<?xml version="1.0" encoding="utf-8"?>
<!-- Generator: Adobe Illustrator 22.0.1, SVG Export Plug-In . SVG Version: 6.00 Build 0)  -->
<svg version="1.1" id="Layer_1" xmlns="http://www.w3.org/2000/svg" xmlns:xlink="http://www.w3.org/1999/xlink" x="0px" y="0px"
	 viewBox="0 0 500 500" style="enable-background:new 0 0 500 500;" xml:space="preserve">
<style type="text/css">
	.st0{fill:#666666;}
	.st1{fill:#FFFFFF;}
	.st2{fill:#00AFF0;}
	.st3{opacity:0.3;fill:#CCCCCC;}
	.st4{fill:#0099FF;}
</style>
<polygon class="st0" points="254.3,14 46,14 83.3,440.1 254.3,488 425.3,439.6 462.6,14 "/>
<path class="st1" d="M408.1,204.6c-0.5-3.9-1.9-7.6-4.1-10.9c-1.4-2.1-2.8-4.2-4.4-6.2c-1.2-1.6-2.3-3.3-3.5-5.1
	c-0.3-0.4-0.5-0.8-0.5-1.4c-0.1-1.1,0.3-1.5,1.4-1.4c1.4,0.2,2.6,0.8,3.6,1.8c0.5,0.5,1,1.1,1.7,1.4c-0.1-0.5-0.1-0.9-0.2-1.3
	c-0.6-3.9-1.9-7.6-4.5-10.7c-1.5-1.9-3.6-3.1-5.5-4.5c-2.8-1.9-5.8-3.6-8.2-6c-0.8-0.8-1.7-1.7-2.2-2.9c-0.4-1-1.2-2.1-0.5-3
	c0.8-1,2.2-0.7,3.4-0.5c1,0.1,2,0.3,2.9,0.5c0.1-0.2,0.2-0.2,0.2-0.4c-0.2-0.2-0.5-0.2-0.7-0.4c-0.2-0.2-0.4-0.4-0.5-0.5
	c-2.6-3-5.6-5.5-9.6-6.7c-6.1-1.7-12.3-1.8-18.5-1.5c-10.1,0.5-30.5,3.3-30.7,3.5c-2.1,0.3-4.2,0.8-6.1,1.7c-1.2,0.6-2,1.5-2.5,2.7
	c-1.4,3.4-3.6,5.9-7.1,7.3c-4.2,1.7-8.4,1.8-12.8,0.9c-1.7-0.4-3.4-1.1-4.9-2.1c-1.9-1.2-3-1-4.3,0.7c-0.6,0.8-1.2,1.7-1.6,2.6
	c-2.2,4.5-3.4,9.3-3.8,14.3c-0.2,2.3,0,4.5,0.7,6.7c0.1,0.2,0,0.9,0.7,0.6c1.9-0.8,3.9-1.3,5.6-2.4c1.6-1.1,3.3-1.1,4.3,0
	c1.2,1.1,2.3,2.3,3.7,3.3c1.8,1.4,3.9,2.3,6.2,1.7c1.5-0.5,3-1.1,4.5-1.7c2.5-0.9,5.1-1.4,7.8-1.1c3,0.4,5.8,1.4,8.5,2.8
	c8.3,4.1,16.8,5.4,25.9,3.1c1.6-0.4,3.3-0.8,5-0.3c1.6,0.5,2.1,1.4,1.7,3c-0.8,3-2.1,5.8-3.8,8.4c-2.8,4.3-6.7,7.4-11.4,9.4
	c-3.4,1.4-7,2-10.7,2c-5.6,0-11.1-0.7-16.3-2.7c-3.9-1.5-7.9-2.8-11.6-5c-2.5-1.5-5.1-2.9-7.6-4.5c-4.1-2.9-7.9-6-11.5-9.5
	c-3-3-5.8-6.1-8.3-9.5c-2.2-3-4.1-6.1-5.8-9.2c-3.4-6.6-5.6-13.5-5.9-21c-0.2-5.5,0.1-11,2.6-16c1.6-3.3,4.6-4.2,7.7-2.2
	c0.8,0.5,1.7,1.1,2.6,1.4c1.1,0.3,1.4-0.1,1.7-1c0.5-1.7,0.6-3.3,0.3-5c-0.8-5-3.4-9.1-6.7-12.7c-3.1-3.5-6.7-6.5-10.2-9.5
	c-2-1.7-4.2-3-6.3-4.5c-29.5-21.1-74.9-22-85.2-22.3c-7.9-0.2-15.8,0.2-23.6,1.5c-4,0.7-23.6,5.1-29.2,7.3c-5.3,2.2-10.7,4.2-15.7,7
	c-0.8,0.5-1.7,0.9-2.3,1.5c-0.8,0.7-1.7,1.4-2.3,2.6c0.5-0.1,0.8-0.1,1.1-0.2c3.2-0.8,6.4-1.1,9.5-2.1c2.1-0.7,4.3-1.1,6.4-1.3
	c3.6-0.5,6.7,0.2,8.8,3.6c2.5,4.2,3.9,8.6,4.3,13.5c0.4,4.2-0.1,8.4-1.1,12.6c-1.6,6.1-4.2,11.6-9.4,15.4c-2,1.4-4.1,2.6-6,4
	c-2.1,1.6-4.4,3-6.5,4.5c-2.3,1.7-4.8,3.4-7.4,4.8c-3.8,2-7.7,4-11.6,6.1c-4,2-7.9,4.5-11.7,7c-1.1,0.8-2.2,1.7-3.1,2.8
	c-0.5,0.6-1,1.3-1,2.3c5.3-1.6,10.5-2.8,15.7-4.6c3.6-1.3,7.1-2.6,10.9-2.9c5.9-0.4,11.6,0,16.6,3.6c3.3,2.4,5.7,5.6,6.5,9.7
	c0.7,3.3,0.2,6.5-0.8,9.7c-1.4,4.2-3.6,7.9-6.1,11.6c-1.3,1.8-2.6,3.6-3.6,5.5c-0.9,1.6-1.9,3.3-2,5.4c2.2-1.4,4.3-1.7,6.4-4
	c0.2-0.2,3-4,4.3-5.7c2.9-3.6,6.4-6.7,10-9.5c2.3-1.8,5.1-3.3,7.6-4.7c4-2.3,8.6-3.6,13-4.5c7.9-1.7,16-1.7,23.9,0.5
	c4.8,1.3,9.5,2.7,13.6,5.6c1.8,1.3,3.6,2.5,5.3,4c3.9,3.6,6.9,7.8,9.2,12.5c0.5,1.1,1,2.3,1.1,3.5c0.6,3.9,1.1,7.8,1.6,11.7
	c0.2,0.9,0.2,1.8,0.7,2.6c0.3,0.5,0.6,0.6,1.1,0.2c1.8-1.6,3.7-3.1,5.2-5c2.3-2.8,4.9-5.2,7.8-7.4c2.6-2,5.5-3.5,8.3-5
	c3.7-2,7.8-3,11.8-4.2c2.4-0.8,5-1.1,7.6-1.6c3.9-0.6,7.7-0.4,11.6-0.2c1.4,0.1,2.6,0.2,4.2,0c-2.2-1.2-4.5-1.8-6.7-2.5
	c-1.7-0.5-4.6-1.1-6.4-1.1c-4.2-0.2-8.2,0.3-12.3,1.3c-3.6,0.8-6.7,2.3-9.8,4.2c-2.5,1.5-5.1,2.9-7.8,3.9c-1.1,0.5-2.3,0.7-3.6,0.5
	c-0.5-0.1-0.8-0.3-0.8-1c0-1.3-0.1-2.6,0.2-3.9c1.3-7.4,4.3-14.2,8.8-20.2c2-2.6,3.9-5.3,5.8-7.9c2.5-3.3,4.9-6.5,7.6-9.6
	c2.3-2.7,4.8-5.5,7.9-7.6c0.5-0.4,1-0.7,1.4-1.1c1.5-1.4,3.4-2.2,5.5-2.6c2.9-0.6,4.8,0.4,6,3c0.7,1.6,0.9,3.3,1.4,4.9
	c1.6,5.1,3.9,9.8,6.6,14.2c2,3.3,4.2,6.3,6.6,9.2c2.6,3.3,5.6,6.4,8.7,9.4c3.5,3.3,7.3,6.4,11.2,9.3c2.3,1.7,4.8,3.3,7.3,4.8
	c2.8,1.7,5.9,3.1,8.9,4.5c19.2,8.8,44.8,10.7,54.5-16c0.8-4.6,0.6-9.1-2.3-12.9c-2.9-3.8-6.9-6.3-11.4-7.8c-0.5-0.2-1.3-0.4-1.6,0.3
	c-0.3,0.7,0.2,1.2,0.8,1.6c0.5,0.3,1,0.5,1.4,0.9c1.4,1.1,3,2.2,4.2,3.5c1.4,1.7,1.4,3.8,0,5.4c-1.1,1.2-2.4,2.1-4.2,2.4
	c-4.5,0.8-8.9,0.2-13.3-1.3c-4.2-1.4-8.3-3-12.3-4.8c-2.8-1.2-5.8-1.4-8.9-0.7c-2.6,0.6-5.1,1.9-7.7,2.4c-1.8,0.4-3.7,0.6-5.5,0.3
	c-2.2-0.4-3.8-1.7-5.3-3.3c-1.3-1.3-2.6-2.5-4.4-3.2c-0.5-0.2-0.8-0.2-1.4,0c-0.7,0.4-1.5,0.7-2.3,0.7c-0.8,0-1.1-0.2-1.1-1.1
	c0.1-0.5,0.2-1.1,0.1-1.7c-0.2-4,0.4-7.9,2.8-11.2c0.5-0.8,0.8-1.4,2.1-0.9c2.6,1.1,5.5,1.7,8.3,2.4c6.2,1.7,12.5,1.7,18.6-0.5
	c1.4-0.5,2.7-0.6,4.2-0.6c1.1,0.1,8.3,0.8,9.3-3.2c0.7-1.7,2.3-2.1,3.6-2.1c4,0,8,0.3,12,1.3c2.3,0.6,4.6,1.3,6.5,3
	c0.5,0.5,1.2,0.8,1.9,1.1c0.4,0.2,0.9,0.5,1.2,0.2c0.3-0.4-0.2-0.8-0.5-1.1c-0.7-0.7-1.3-1.3-2-2c-0.9-0.8-1.7-1.7-2.3-2.8
	c-1.2-2.3-0.5-3.9,2-4.5c0.6-0.2,1.2-0.2,1.7-0.2c3-0.1,5.8,0.8,8.5,2.1c3.6,1.7,6.9,4.2,9.8,7c3,3,5.5,6.1,7.7,9.7
	c3.8,6.1,6.3,12.6,8.1,19.4c2,7.6,3.4,15.3,3.9,23.1c0.5,8.1,0,16.2-1.8,24.1c-0.9,4.1-2.6,7.9-4.1,11.8c-0.7,1.7-1.4,3.5-1.6,5.7
	c0.4-0.5,0.5-0.6,0.7-0.8c1.4-1.6,2.3-3.5,3.2-5.4c2.8-5.8,4.5-11.9,6-18.1c1-4.1,1.7-8.2,2.1-12.3c0.3-3.6,0.3-7.2,0.8-10.8
	c0.2-1,1.1-1.7,2-1.4c2.1,0.5,4.2,0.8,5.6,2.7c0.1,0.1,0.3,0.1,0.4,0.1C409.1,210.3,408.4,206.2,408.1,204.6z M255.2,139.2
	c-0.1,1.1-0.8,2-1.6,2.7c-1,0.8-2,1.7-3.1,2.5c-3.5,2.4-6.5,5.3-9.6,8.1c-2.9,2.6-5.6,5.2-8.3,8c-3.6,3.6-6.6,7.7-9.5,11.9
	c-1.9,2.6-3.8,5.4-5.6,8.1c-2.3,3.4-4.3,7-6.2,10.7c-1,2-2.2,3.8-3.5,5.5c-1.3,1.7-2.6,1.8-4.3,0.5c-1.8-1.4-3.2-3.3-4.7-5.1
	c-3.6-4.1-7.6-7.6-12.3-10.4c-4.2-2.4-8.6-3.9-13.2-4.8c-0.2-0.2-5-1-7.1-1.4c-1.2-0.2-2.3-0.7-3.1-1.7c-0.3-0.4-0.2-0.6,0.1-1
	c1.8-2,4.1-3.4,6.2-5.1c2.4-1.9,4.9-3.7,7.3-5.5c2-1.4,4.2-2.4,6.3-3.6c3.6-2.1,7.4-3.6,11.1-5.3c3.9-1.9,8.1-3,12.1-4.7
	c4.6-2,9.5-3,14.2-4.7c6.2-2.1,12.6-3.3,18.9-4.9c4.2-1,8.3-1.6,12.6-1.7c0.7,0,1.4,0.2,2,0.2C255,137.5,255.2,138.3,255.2,139.2z
	 M257.4,130.2c-2.3,0.8-4.8,1.1-7.2,1.5c-4,0.8-8.1,1.4-12.1,2.3c-6.7,1.7-13.6,2.3-20.2,4.5c-4.6,1.5-9.4,2.8-13.9,4.8
	c-3.4,1.6-7,2.7-10.2,4.5c-3,1.7-6.2,3-9.2,4.8c-2.6,1.7-5.5,2.9-7.9,4.6s-5.3,3-7.7,4.8c-2.3,1.7-4.8,2.9-7.1,4.5
	c-2.5,1.8-5.2,3.3-7.7,5.1c-2.3,1.7-4.9,2.9-7.3,4.5c-3.2,2.3-6.6,3.9-10.3,5.1c-1.4,0.5-2.8,0.6-4.2,0.5c-0.8-0.1-1.3-0.5-1.7-1.1
	c-2.9-4.6-5.8-9.2-9.6-13.1c-0.8-0.9-1.7-1.9-2.6-2.7c-2.5-2.4-5.1-4.8-8.1-6.7c-0.5-0.3-0.9-0.8-1.4-1.1c-0.5-0.2-0.4-0.8-0.2-1.2
	c0.5-1.4,1.6-2.4,2.4-3.6c0.4-0.5,8.1-6.4,11.7-8.4c3.1-1.7,6.4-3,9.5-4.5c4.2-2,8.6-3.3,12.9-4.9c5.1-2,10.6-3.1,15.9-4.6
	c8.3-2.3,16.7-3.5,25.1-4.9c13.7-2.3,27.6-2.9,41.7-3c7.7,0.2,15.7,0.4,23.7,1.2c2,0.2,4.1,0.6,6.1,1.1c0.8,0.2,1.5,0.7,2.3,1.1
	c0.5,0.2,0.3,0.5,0.3,0.8C260.5,127.9,258.9,129.7,257.4,130.2z M260.6,117.4c-5.1,0.5-10.2,0.9-15.4,0.4c-8-0.8-16.1-0.5-24.1-0.2
	c-6.6,0.3-13.2,0.5-19.8,0.8c-4.5,0.2-32,4.4-40,6.3c-5.9,1.4-12,2.5-17.7,4.5c-2.5,0.8-5,1.4-7.6,1.3c-1.1-0.1-2-0.3-2.6-1.3
	c-0.4-0.6-0.3-1.2-0.3-1.8c0.2-4.6,0.8-9.2,0.7-13.8c-0.2-5.4-1.1-10.5-4.1-15.1c-0.7-1.1-1.2-2.3-1.7-3.5c-0.8-2-0.2-3.4,1.7-4.2
	c3.2-1.4,6.5-2.1,9.8-3.1c8.3-2.3,16.7-2.9,25.1-3.2c10.1-0.4,20.1,0.3,30.1,1.6c2.3,0.3,21.3,3.7,27.9,5.7
	c4.5,1.4,9.2,2.6,13.5,4.5c3.3,1.4,6.7,2.9,9.8,4.8c2,1.3,4.1,2.3,6.1,3.8c2.5,1.7,5.1,3.3,7.6,5.1c1.7,1.2,3,2.7,3.3,4.8
	C263,116.4,262.4,117.1,260.6,117.4z M326.2,162c-0.3,0-0.6,0-0.9,0.1c-0.3,0-0.6,0-0.9-0.1c-0.9-0.2-2.1-0.2-2.5-1
	c-0.3-0.6,0.9-1.1,1.4-1.7c1.4-2,3.3-3.3,5.6-4.2c0.5-0.2,0.8-0.3,1.3-0.4c0.9-0.1,1.4,0.4,1.5,1.3
	C331.8,159.2,329.6,161.7,326.2,162z"/>
<polygon class="st2" points="-545.5,-1037.7 -753.8,-1037.7 -716.5,-611.6 -545.5,-563.7 -374.4,-612 -337.2,-1037.7 "/>
<path class="st1" d="M-391.7-847.1c-0.5-3.9-1.9-7.6-4.1-10.9c-1.4-2.1-2.8-4.2-4.4-6.2c-1.2-1.6-2.3-3.3-3.5-5.1
	c-0.3-0.4-0.5-0.8-0.5-1.4c-0.1-1.1,0.3-1.5,1.4-1.4c1.4,0.2,2.6,0.8,3.6,1.8c0.5,0.5,1,1.1,1.7,1.4c-0.1-0.5-0.1-0.9-0.2-1.3
	c-0.6-3.9-1.9-7.6-4.5-10.7c-1.5-1.9-3.6-3.1-5.5-4.5c-2.8-1.9-5.8-3.6-8.2-6c-0.8-0.8-1.7-1.7-2.2-2.9c-0.4-1-1.2-2.1-0.5-3
	c0.8-1,2.2-0.7,3.4-0.5c1,0.1,2,0.3,2.9,0.5c0.1-0.2,0.2-0.2,0.2-0.4c-0.2-0.2-0.5-0.2-0.7-0.4s-0.4-0.4-0.5-0.5
	c-2.6-3-5.6-5.5-9.6-6.7c-6.1-1.7-12.3-1.8-18.5-1.5c-10.1,0.5-30.5,3.3-30.7,3.5c-2.1,0.3-4.2,0.8-6.1,1.7c-1.2,0.6-2,1.5-2.5,2.7
	c-1.4,3.4-3.6,5.9-7.1,7.3c-4.2,1.7-8.4,1.8-12.8,0.9c-1.7-0.4-3.4-1.1-4.9-2.1c-1.9-1.2-3-1-4.3,0.7c-0.6,0.8-1.2,1.7-1.6,2.6
	c-2.2,4.5-3.4,9.3-3.8,14.3c-0.2,2.3,0,4.5,0.7,6.7c0.1,0.2,0,0.9,0.7,0.6c1.9-0.8,3.9-1.3,5.6-2.4c1.6-1.1,3.3-1.1,4.3,0
	c1.2,1.1,2.3,2.3,3.7,3.3c1.8,1.4,3.9,2.3,6.2,1.7c1.5-0.5,3-1.1,4.5-1.7c2.5-0.9,5.1-1.4,7.8-1.1c3,0.4,5.8,1.4,8.5,2.8
	c8.3,4.1,16.8,5.4,25.9,3.1c1.6-0.4,3.3-0.8,5-0.3c1.6,0.5,2.1,1.4,1.7,3c-0.8,3-2.1,5.8-3.8,8.4c-2.8,4.3-6.7,7.4-11.4,9.4
	c-3.4,1.4-7,2-10.7,2c-5.6,0-11.1-0.7-16.3-2.7c-3.9-1.5-7.9-2.8-11.6-5c-2.5-1.5-5.1-2.9-7.6-4.5c-4.1-2.9-7.9-6-11.5-9.5
	c-3-3-5.8-6.1-8.3-9.5c-2.2-3-4.1-6.1-5.8-9.2c-3.4-6.6-5.6-13.5-5.9-21c-0.2-5.5,0.1-11,2.6-16c1.6-3.3,4.6-4.2,7.7-2.2
	c0.8,0.5,1.7,1.1,2.6,1.4c1.1,0.3,1.4-0.1,1.7-1c0.5-1.7,0.6-3.3,0.3-5c-0.8-5-3.4-9.1-6.7-12.7c-3.1-3.5-6.7-6.5-10.2-9.5
	c-2-1.7-4.2-3-6.3-4.5c-29.5-21.1-74.9-22-85.2-22.3c-7.9-0.2-15.8,0.2-23.6,1.5c-4,0.7-23.6,5.1-29.2,7.3c-5.3,2.2-10.7,4.2-15.7,7
	c-0.8,0.5-1.7,0.9-2.3,1.5c-0.8,0.7-1.7,1.4-2.3,2.6c0.5-0.1,0.8-0.1,1.1-0.2c3.2-0.8,6.4-1.1,9.5-2.1c2.1-0.7,4.3-1.1,6.4-1.3
	c3.6-0.5,6.7,0.2,8.8,3.6c2.5,4.2,3.9,8.6,4.3,13.5c0.4,4.2-0.1,8.4-1.1,12.6c-1.6,6.1-4.2,11.6-9.4,15.4c-2,1.4-4.1,2.6-6,4
	c-2.1,1.6-4.4,3-6.5,4.5c-2.3,1.7-4.8,3.4-7.4,4.8c-3.8,2-7.7,4-11.6,6.1c-4,2-7.9,4.5-11.7,7c-1.1,0.8-2.2,1.7-3.1,2.8
	c-0.5,0.6-1,1.3-1,2.3c5.3-1.6,10.5-2.8,15.7-4.6c3.6-1.3,7.1-2.6,10.9-2.9c5.9-0.4,11.6,0,16.6,3.6c3.3,2.4,5.7,5.6,6.5,9.7
	c0.7,3.3,0.2,6.5-0.8,9.7c-1.4,4.2-3.6,7.9-6.1,11.6c-1.3,1.8-2.6,3.6-3.6,5.5c-0.9,1.6-1.9,3.3-2,5.4c2.2-1.4,4.3-1.7,6.4-4
	c0.2-0.2,3-4,4.3-5.7c2.9-3.6,6.4-6.7,10-9.5c2.3-1.8,5.1-3.3,7.6-4.7c4-2.3,8.6-3.6,13-4.5c7.9-1.7,16-1.7,23.9,0.5
	c4.8,1.3,9.5,2.7,13.6,5.6c1.8,1.3,3.6,2.5,5.3,4c3.9,3.6,6.9,7.8,9.2,12.5c0.5,1.1,1,2.3,1.1,3.5c0.6,3.9,1.1,7.8,1.6,11.7
	c0.2,0.9,0.2,1.8,0.7,2.6c0.3,0.5,0.6,0.6,1.1,0.2c1.8-1.6,3.7-3.1,5.2-5c2.3-2.8,4.9-5.2,7.8-7.4c2.6-2,5.5-3.5,8.3-5
	c3.7-2,7.8-3,11.8-4.2c2.4-0.8,5-1.1,7.6-1.6c3.9-0.6,7.7-0.4,11.6-0.2c1.4,0.1,2.6,0.2,4.2,0c-2.2-1.2-4.5-1.8-6.7-2.5
	c-1.7-0.5-4.6-1.1-6.4-1.1c-4.2-0.2-8.2,0.3-12.3,1.3c-3.6,0.8-6.7,2.3-9.8,4.2c-2.5,1.5-5.1,2.9-7.8,3.9c-1.1,0.5-2.3,0.7-3.6,0.5
	c-0.5-0.1-0.8-0.3-0.8-1c0-1.3-0.1-2.6,0.2-3.9c1.3-7.4,4.3-14.2,8.8-20.2c2-2.6,3.9-5.3,5.8-7.9c2.5-3.3,4.9-6.5,7.6-9.6
	c2.3-2.7,4.8-5.5,7.9-7.6c0.5-0.4,1-0.7,1.4-1.1c1.5-1.4,3.4-2.2,5.5-2.6c2.9-0.6,4.8,0.4,6,3c0.7,1.6,0.9,3.3,1.4,4.9
	c1.6,5.1,3.9,9.8,6.6,14.2c2,3.3,4.2,6.3,6.6,9.2c2.6,3.3,5.6,6.4,8.7,9.4c3.5,3.3,7.3,6.4,11.2,9.3c2.3,1.7,4.8,3.3,7.3,4.8
	c2.8,1.7,5.9,3.1,8.9,4.5c19.2,8.8,44.8,10.7,54.5-16c0.8-4.6,0.6-9.1-2.3-12.9c-2.9-3.8-6.9-6.3-11.4-7.8c-0.5-0.2-1.3-0.4-1.6,0.3
	c-0.3,0.7,0.2,1.2,0.8,1.6c0.5,0.3,1,0.5,1.4,0.9c1.4,1.1,3,2.2,4.2,3.5c1.4,1.7,1.4,3.8,0,5.4c-1.1,1.2-2.4,2.1-4.2,2.4
	c-4.5,0.8-8.9,0.2-13.3-1.3c-4.2-1.4-8.3-3-12.3-4.8c-2.8-1.2-5.8-1.4-8.9-0.7c-2.6,0.6-5.1,1.9-7.7,2.4c-1.8,0.4-3.7,0.6-5.5,0.3
	c-2.2-0.4-3.8-1.7-5.3-3.3c-1.3-1.3-2.6-2.5-4.4-3.2c-0.5-0.2-0.8-0.2-1.4,0c-0.7,0.4-1.5,0.7-2.3,0.7c-0.8,0-1.1-0.2-1.1-1.1
	c0.1-0.5,0.2-1.1,0.1-1.7c-0.2-4,0.4-7.9,2.8-11.2c0.5-0.8,0.8-1.4,2.1-0.9c2.6,1.1,5.5,1.7,8.3,2.4c6.2,1.7,12.5,1.7,18.6-0.5
	c1.4-0.5,2.7-0.6,4.2-0.6c1.1,0.1,8.3,0.8,9.3-3.2c0.7-1.7,2.3-2.1,3.6-2.1c4,0,8,0.3,12,1.3c2.3,0.6,4.6,1.3,6.5,3
	c0.5,0.5,1.2,0.8,1.9,1.1c0.4,0.2,0.9,0.5,1.2,0.2c0.3-0.4-0.2-0.8-0.5-1.1c-0.7-0.7-1.3-1.3-2-2c-0.9-0.8-1.7-1.7-2.3-2.8
	c-1.2-2.3-0.5-3.9,2-4.5c0.6-0.2,1.2-0.2,1.7-0.2c3-0.1,5.8,0.8,8.5,2.1c3.6,1.7,6.9,4.2,9.8,7c3,3,5.5,6.1,7.7,9.7
	c3.8,6.1,6.3,12.6,8.1,19.4c2,7.6,3.4,15.3,3.9,23.1c0.5,8.1,0,16.2-1.8,24.1c-0.9,4.1-2.6,7.9-4.1,11.8c-0.7,1.7-1.4,3.5-1.6,5.7
	c0.4-0.5,0.5-0.6,0.7-0.8c1.4-1.6,2.3-3.5,3.2-5.4c2.8-5.8,4.5-11.9,6-18.1c1-4.1,1.7-8.2,2.1-12.3c0.3-3.6,0.3-7.2,0.8-10.8
	c0.2-1,1.1-1.7,2-1.4c2.1,0.5,4.2,0.8,5.6,2.7c0.1,0.1,0.3,0.1,0.4,0.1C-390.7-841.4-391.4-845.4-391.7-847.1z M-544.6-912.4
	c-0.1,1.1-0.8,2-1.6,2.7c-1,0.8-2,1.7-3.1,2.5c-3.5,2.4-6.5,5.3-9.6,8.1c-2.9,2.6-5.6,5.2-8.3,8c-3.6,3.6-6.6,7.7-9.5,11.9
	c-1.9,2.6-3.8,5.4-5.6,8.1c-2.3,3.4-4.3,7-6.2,10.7c-1,2-2.2,3.8-3.5,5.5c-1.3,1.7-2.6,1.8-4.3,0.5c-1.8-1.4-3.2-3.3-4.7-5.1
	c-3.6-4.1-7.6-7.6-12.3-10.4c-4.2-2.4-8.6-3.9-13.2-4.8c-0.2-0.2-5-1-7.1-1.4c-1.2-0.2-2.3-0.7-3.1-1.7c-0.3-0.4-0.2-0.6,0.1-1
	c1.8-2,4.1-3.4,6.2-5.1c2.4-1.9,4.9-3.7,7.3-5.5c2-1.4,4.2-2.4,6.3-3.6c3.6-2.1,7.4-3.6,11.1-5.3c3.9-1.9,8.1-3,12.1-4.7
	c4.6-2,9.5-3,14.2-4.7c6.2-2.1,12.6-3.3,18.9-4.9c4.2-1,8.3-1.6,12.6-1.7c0.7,0,1.4,0.2,2,0.2C-544.8-914.2-544.5-913.4-544.6-912.4
	z M-542.4-921.5c-2.3,0.8-4.8,1.1-7.2,1.5c-4,0.8-8.1,1.4-12.1,2.3c-6.7,1.7-13.6,2.3-20.2,4.5c-4.6,1.5-9.4,2.8-13.9,4.8
	c-3.4,1.6-7,2.7-10.2,4.5c-3,1.7-6.2,3-9.2,4.8c-2.6,1.7-5.5,2.9-7.9,4.6s-5.3,3-7.7,4.8c-2.3,1.7-4.8,2.9-7.1,4.5
	c-2.5,1.8-5.2,3.3-7.7,5.1c-2.3,1.7-4.9,2.9-7.3,4.5c-3.2,2.3-6.6,3.9-10.3,5.1c-1.4,0.5-2.8,0.6-4.2,0.5c-0.8-0.1-1.3-0.5-1.7-1.1
	c-2.9-4.6-5.8-9.2-9.6-13.1c-0.8-0.9-1.7-1.9-2.6-2.7c-2.5-2.4-5.1-4.8-8.1-6.7c-0.5-0.3-0.9-0.8-1.4-1.1c-0.5-0.2-0.4-0.8-0.2-1.2
	c0.5-1.4,1.6-2.4,2.4-3.6c0.4-0.5,8.1-6.4,11.7-8.4c3.1-1.7,6.4-3,9.5-4.5c4.2-2,8.6-3.3,12.9-4.9c5.1-2,10.6-3.1,15.9-4.6
	c8.3-2.3,16.7-3.5,25.1-4.9c13.7-2.3,27.6-2.9,41.7-3c7.7,0.2,15.7,0.4,23.7,1.2c2,0.2,4.1,0.6,6.1,1.1c0.8,0.2,1.5,0.7,2.3,1.1
	c0.5,0.2,0.3,0.5,0.3,0.8C-539.3-923.8-540.9-922-542.4-921.5z M-539.2-934.3c-5.1,0.5-10.2,0.9-15.4,0.4c-8-0.8-16.1-0.5-24.1-0.2
	c-6.6,0.3-13.2,0.5-19.8,0.8c-4.5,0.2-32,4.4-40,6.3c-5.9,1.4-12,2.5-17.7,4.5c-2.5,0.8-5,1.4-7.6,1.3c-1.1-0.1-2-0.3-2.6-1.3
	c-0.4-0.6-0.3-1.2-0.3-1.8c0.2-4.6,0.8-9.2,0.7-13.8c-0.2-5.4-1.1-10.5-4.1-15.1c-0.7-1.1-1.2-2.3-1.7-3.5c-0.8-2-0.2-3.4,1.7-4.2
	c3.2-1.4,6.5-2.1,9.8-3.1c8.3-2.3,16.7-2.9,25.1-3.2c10.1-0.4,20.1,0.3,30.1,1.6c2.3,0.3,21.3,3.7,27.9,5.7
	c4.5,1.4,9.2,2.6,13.5,4.5c3.3,1.4,6.7,2.9,9.8,4.8c2,1.3,4.1,2.3,6.1,3.8c2.5,1.7,5.1,3.3,7.6,5.1c1.7,1.2,3,2.7,3.3,4.8
	C-536.7-935.3-537.4-934.5-539.2-934.3z M-473.6-889.6c-0.3,0-0.6,0-0.9,0.1c-0.3,0-0.6,0-0.9-0.1c-0.9-0.2-2.1-0.2-2.5-1
	c-0.3-0.6,0.9-1.1,1.4-1.7c1.4-2,3.3-3.3,5.6-4.2c0.5-0.2,0.8-0.3,1.3-0.4c0.9-0.1,1.4,0.4,1.5,1.3
	C-467.9-892.4-470.2-889.9-473.6-889.6z"/>
<polygon class="st3" points="-406.7,-639.1 -545.5,-600 -545.5,-1003.5 -374.7,-1003.5 "/>
<text transform="matrix(1 0 0 1 -697.3337 -746.1653)" class="st1" style="font-family:'SFProDisplay-Medium'; font-size:42px;">MAVAJ SUN CO</text>
<polygon class="st2" points="0,-1038.8 -208.3,-1038.8 -171,-612.7 0,-564.8 171,-613.2 208.3,-1038.8 "/>
<path class="st1" d="M153.8-848.2c-0.5-3.9-1.9-7.6-4.1-10.9c-1.4-2.1-2.8-4.2-4.4-6.2c-1.2-1.6-2.3-3.3-3.5-5.1
	c-0.3-0.4-0.5-0.8-0.5-1.4c-0.1-1.1,0.3-1.5,1.4-1.4c1.4,0.2,2.6,0.8,3.6,1.8c0.5,0.5,1,1.1,1.7,1.4c-0.1-0.5-0.1-0.9-0.2-1.3
	c-0.6-3.9-1.9-7.6-4.5-10.7c-1.5-1.9-3.6-3.1-5.5-4.5c-2.8-1.9-5.8-3.6-8.2-6c-0.8-0.8-1.7-1.7-2.2-2.9c-0.4-1-1.2-2.1-0.5-3
	c0.8-1,2.2-0.7,3.4-0.5c1,0.1,2,0.3,2.9,0.5c0.1-0.2,0.2-0.2,0.2-0.4c-0.2-0.2-0.5-0.2-0.7-0.4c-0.2-0.2-0.4-0.4-0.5-0.5
	c-2.6-3-5.6-5.5-9.6-6.7c-6.1-1.7-12.3-1.8-18.5-1.5c-10.1,0.5-30.5,3.3-30.7,3.5c-2.1,0.3-4.2,0.8-6.1,1.7c-1.2,0.6-2,1.5-2.5,2.7
	c-1.4,3.4-3.6,5.9-7.1,7.3c-4.2,1.7-8.4,1.8-12.8,0.9c-1.7-0.4-3.4-1.1-4.9-2.1c-1.9-1.2-3-1-4.3,0.7c-0.6,0.8-1.2,1.7-1.6,2.6
	c-2.2,4.5-3.4,9.3-3.8,14.3c-0.2,2.3,0,4.5,0.7,6.7c0.1,0.2,0,0.9,0.7,0.6c1.9-0.8,3.9-1.3,5.6-2.4c1.6-1.1,3.3-1.1,4.3,0
	c1.2,1.1,2.3,2.3,3.7,3.3c1.8,1.4,3.9,2.3,6.2,1.7c1.5-0.5,3-1.1,4.5-1.7c2.5-0.9,5.1-1.4,7.8-1.1c3,0.4,5.8,1.4,8.5,2.8
	c8.3,4.1,16.8,5.4,25.9,3.1c1.6-0.4,3.3-0.8,5-0.3c1.6,0.5,2.1,1.4,1.7,3c-0.8,3-2.1,5.8-3.8,8.4c-2.8,4.3-6.7,7.4-11.4,9.4
	c-3.4,1.4-7,2-10.7,2c-5.6,0-11.1-0.7-16.3-2.7c-3.9-1.5-7.9-2.8-11.6-5c-2.5-1.5-5.1-2.9-7.6-4.5c-4.1-2.9-7.9-6-11.5-9.5
	c-3-3-5.8-6.1-8.3-9.5c-2.2-3-4.1-6.1-5.8-9.2c-3.4-6.6-5.6-13.5-5.9-21c-0.2-5.5,0.1-11,2.6-16c1.6-3.3,4.6-4.2,7.7-2.2
	c0.8,0.5,1.7,1.1,2.6,1.4c1.1,0.3,1.4-0.1,1.7-1c0.5-1.7,0.6-3.3,0.3-5c-0.8-5-3.4-9.1-6.7-12.7c-3.1-3.5-6.7-6.5-10.2-9.5
	c-2-1.7-4.2-3-6.3-4.5c-29.5-21.1-74.9-22-85.2-22.3c-7.9-0.2-15.8,0.2-23.6,1.5c-4,0.7-23.6,5.1-29.2,7.3c-5.3,2.2-10.7,4.2-15.7,7
	c-0.8,0.5-1.7,0.9-2.3,1.5c-0.8,0.7-1.7,1.4-2.3,2.6c0.5-0.1,0.8-0.1,1.1-0.2c3.2-0.8,6.4-1.1,9.5-2.1c2.1-0.7,4.3-1.1,6.4-1.3
	c3.6-0.5,6.7,0.2,8.8,3.6c2.5,4.2,3.9,8.6,4.3,13.5c0.4,4.2-0.1,8.4-1.1,12.6c-1.6,6.1-4.2,11.6-9.4,15.4c-2,1.4-4.1,2.6-6,4
	c-2.1,1.6-4.4,3-6.5,4.5c-2.3,1.7-4.8,3.4-7.4,4.8c-3.8,2-7.7,4-11.6,6.1c-4,2-7.9,4.5-11.7,7c-1.1,0.8-2.2,1.7-3.1,2.8
	c-0.5,0.6-1,1.3-1,2.3c5.3-1.6,10.5-2.8,15.7-4.6c3.6-1.3,7.1-2.6,10.9-2.9c5.9-0.4,11.6,0,16.6,3.6c3.3,2.4,5.7,5.6,6.5,9.7
	c0.7,3.3,0.2,6.5-0.8,9.7c-1.4,4.2-3.6,7.9-6.1,11.6c-1.3,1.8-2.6,3.6-3.6,5.5c-0.9,1.6-1.9,3.3-2,5.4c2.2-1.4,4.3-1.7,6.4-4
	c0.2-0.2,3-4,4.3-5.7c2.9-3.6,6.4-6.7,10-9.5c2.3-1.8,5.1-3.3,7.6-4.7c4-2.3,8.6-3.6,13-4.5c7.9-1.7,16-1.7,23.9,0.5
	c4.8,1.3,9.5,2.7,13.6,5.6c1.8,1.3,3.6,2.5,5.3,4c3.9,3.6,6.9,7.8,9.2,12.5c0.5,1.1,1,2.3,1.1,3.5c0.6,3.9,1.1,7.8,1.6,11.7
	c0.2,0.9,0.2,1.8,0.7,2.6c0.3,0.5,0.6,0.6,1.1,0.2c1.8-1.6,3.7-3.1,5.2-5c2.3-2.8,4.9-5.2,7.8-7.4c2.6-2,5.5-3.5,8.3-5
	c3.7-2,7.8-3,11.8-4.2c2.4-0.8,5-1.1,7.6-1.6c3.9-0.6,7.7-0.4,11.6-0.2c1.4,0.1,2.6,0.2,4.2,0c-2.2-1.2-4.5-1.8-6.7-2.5
	c-1.7-0.5-4.6-1.1-6.4-1.1c-4.2-0.2-8.2,0.3-12.3,1.3c-3.6,0.8-6.7,2.3-9.8,4.2c-2.5,1.5-5.1,2.9-7.8,3.9c-1.1,0.5-2.3,0.7-3.6,0.5
	c-0.5-0.1-0.8-0.3-0.8-1c0-1.3-0.1-2.6,0.2-3.9c1.3-7.4,4.3-14.2,8.8-20.2c2-2.6,3.9-5.3,5.8-7.9c2.5-3.3,4.9-6.5,7.6-9.6
	c2.3-2.7,4.8-5.5,7.9-7.6c0.5-0.4,1-0.7,1.4-1.1c1.5-1.4,3.4-2.2,5.5-2.6c2.9-0.6,4.8,0.4,6,3c0.7,1.6,0.9,3.3,1.4,4.9
	c1.6,5.1,3.9,9.8,6.6,14.2c2,3.3,4.2,6.3,6.6,9.2c2.6,3.3,5.6,6.4,8.7,9.4c3.5,3.3,7.3,6.4,11.2,9.3c2.3,1.7,4.8,3.3,7.3,4.8
	c2.8,1.7,5.9,3.1,8.9,4.5c19.2,8.8,44.8,10.7,54.5-16c0.8-4.6,0.6-9.1-2.3-12.9c-2.9-3.8-6.9-6.3-11.4-7.8c-0.5-0.2-1.3-0.4-1.6,0.3
	s0.2,1.2,0.8,1.6c0.5,0.3,1,0.5,1.4,0.9c1.4,1.1,3,2.2,4.2,3.5c1.4,1.7,1.4,3.8,0,5.4c-1.1,1.2-2.4,2.1-4.2,2.4
	c-4.5,0.8-8.9,0.2-13.3-1.3c-4.2-1.4-8.3-3-12.3-4.8c-2.8-1.2-5.8-1.4-8.9-0.7c-2.6,0.6-5.1,1.9-7.7,2.4c-1.8,0.4-3.7,0.6-5.5,0.3
	c-2.2-0.4-3.8-1.7-5.3-3.3c-1.3-1.3-2.6-2.5-4.4-3.2c-0.5-0.2-0.8-0.2-1.4,0c-0.7,0.4-1.5,0.7-2.3,0.7c-0.8,0-1.1-0.2-1.1-1.1
	c0.1-0.5,0.2-1.1,0.1-1.7c-0.2-4,0.4-7.9,2.8-11.2c0.5-0.8,0.8-1.4,2.1-0.9c2.6,1.1,5.5,1.7,8.3,2.4c6.2,1.7,12.5,1.7,18.6-0.5
	c1.4-0.5,2.7-0.6,4.2-0.6c1.1,0.1,8.3,0.8,9.3-3.2c0.7-1.7,2.3-2.1,3.6-2.1c4,0,8,0.3,12,1.3c2.3,0.6,4.6,1.3,6.5,3
	c0.5,0.5,1.2,0.8,1.9,1.1c0.4,0.2,0.9,0.5,1.2,0.2s-0.2-0.8-0.5-1.1c-0.7-0.7-1.3-1.3-2-2c-0.9-0.8-1.7-1.7-2.3-2.8
	c-1.2-2.3-0.5-3.9,2-4.5c0.6-0.2,1.2-0.2,1.7-0.2c3-0.1,5.8,0.8,8.5,2.1c3.6,1.7,6.9,4.2,9.8,7c3,3,5.5,6.1,7.7,9.7
	c3.8,6.1,6.3,12.6,8.1,19.4c2,7.6,3.4,15.3,3.9,23.1c0.5,8.1,0,16.2-1.8,24.1c-0.9,4.1-2.6,7.9-4.1,11.8c-0.7,1.7-1.4,3.5-1.6,5.7
	c0.4-0.5,0.5-0.6,0.7-0.8c1.4-1.6,2.3-3.5,3.2-5.4c2.8-5.8,4.5-11.9,6-18.1c1-4.1,1.7-8.2,2.1-12.3c0.3-3.6,0.3-7.2,0.8-10.8
	c0.2-1,1.1-1.7,2-1.4c2.1,0.5,4.2,0.8,5.6,2.7c0.1,0.1,0.3,0.1,0.4,0.1C154.8-842.5,154.1-846.5,153.8-848.2z M0.9-913.5
	c-0.1,1.1-0.8,2-1.6,2.7c-1,0.8-2,1.7-3.1,2.5c-3.5,2.4-6.5,5.3-9.6,8.1c-2.9,2.6-5.6,5.2-8.3,8c-3.6,3.6-6.6,7.7-9.5,11.9
	c-1.9,2.6-3.8,5.4-5.6,8.1c-2.3,3.4-4.3,7-6.2,10.7c-1,2-2.2,3.8-3.5,5.5c-1.3,1.7-2.6,1.8-4.3,0.5c-1.8-1.4-3.2-3.3-4.7-5.1
	c-3.6-4.1-7.6-7.6-12.3-10.4c-4.2-2.4-8.6-3.9-13.2-4.8c-0.2-0.2-5-1-7.1-1.4c-1.2-0.2-2.3-0.7-3.1-1.7c-0.3-0.4-0.2-0.6,0.1-1
	c1.8-2,4.1-3.4,6.2-5.1c2.4-1.9,4.9-3.7,7.3-5.5c2-1.4,4.2-2.4,6.3-3.6c3.6-2.1,7.4-3.6,11.1-5.3c3.9-1.9,8.1-3,12.1-4.7
	c4.6-2,9.5-3,14.2-4.7c6.2-2.1,12.6-3.3,18.9-4.9c4.2-1,8.3-1.6,12.6-1.7c0.7,0,1.4,0.2,2,0.2C0.7-915.3,0.9-914.5,0.9-913.5z
	 M3.1-922.6c-2.3,0.8-4.8,1.1-7.2,1.5c-4,0.8-8.1,1.4-12.1,2.3c-6.7,1.7-13.6,2.3-20.2,4.5c-4.6,1.5-9.4,2.8-13.9,4.8
	c-3.4,1.6-7,2.7-10.2,4.5c-3,1.7-6.2,3-9.2,4.8c-2.6,1.7-5.5,2.9-7.9,4.6c-2.5,1.7-5.3,3-7.7,4.8c-2.3,1.7-4.8,2.9-7.1,4.5
	c-2.5,1.8-5.2,3.3-7.7,5.1c-2.3,1.7-4.9,2.9-7.3,4.5c-3.2,2.3-6.6,3.9-10.3,5.1c-1.4,0.5-2.8,0.6-4.2,0.5c-0.8-0.1-1.3-0.5-1.7-1.1
	c-2.9-4.6-5.8-9.2-9.6-13.1c-0.8-0.9-1.7-1.9-2.6-2.7c-2.5-2.4-5.1-4.8-8.1-6.7c-0.5-0.3-0.9-0.8-1.4-1.1c-0.5-0.2-0.4-0.8-0.2-1.2
	c0.5-1.4,1.6-2.4,2.4-3.6c0.4-0.5,8.1-6.4,11.7-8.4c3.1-1.7,6.4-3,9.5-4.5c4.2-2,8.6-3.3,12.9-4.9c5.1-2,10.6-3.1,15.9-4.6
	c8.3-2.3,16.7-3.5,25.1-4.9c13.7-2.3,27.6-2.9,41.7-3c7.7,0.2,15.7,0.4,23.7,1.2c2,0.2,4.1,0.6,6.1,1.1c0.8,0.2,1.5,0.7,2.3,1.1
	c0.5,0.2,0.3,0.5,0.3,0.8C6.2-924.9,4.6-923.1,3.1-922.6z M6.3-935.4c-5.1,0.5-10.2,0.9-15.4,0.4c-8-0.8-16.1-0.5-24.1-0.2
	c-6.6,0.3-13.2,0.5-19.8,0.8c-4.5,0.2-32,4.4-40,6.3c-5.9,1.4-12,2.5-17.7,4.5c-2.5,0.8-5,1.4-7.6,1.3c-1.1-0.1-2-0.3-2.6-1.3
	c-0.4-0.6-0.3-1.2-0.3-1.8c0.2-4.6,0.8-9.2,0.7-13.8c-0.2-5.4-1.1-10.5-4.1-15.1c-0.7-1.1-1.2-2.3-1.7-3.5c-0.8-2-0.2-3.4,1.7-4.2
	c3.2-1.4,6.5-2.1,9.8-3.1c8.3-2.3,16.7-2.9,25.1-3.2c10.1-0.4,20.1,0.3,30.1,1.6c2.3,0.3,21.3,3.7,27.9,5.7
	c4.5,1.4,9.2,2.6,13.5,4.5c3.3,1.4,6.7,2.9,9.8,4.8c2,1.3,4.1,2.3,6.1,3.8c2.5,1.7,5.1,3.3,7.6,5.1c1.7,1.2,3,2.7,3.3,4.8
	C8.7-936.4,8.1-935.6,6.3-935.4z M71.9-890.8c-0.3,0-0.6,0-0.9,0.1c-0.3,0-0.6,0-0.9-0.1c-0.9-0.2-2.1-0.2-2.5-1
	c-0.3-0.6,0.9-1.1,1.4-1.7c1.4-2,3.3-3.3,5.6-4.2c0.5-0.2,0.8-0.3,1.3-0.4c0.9-0.1,1.4,0.4,1.5,1.3
	C77.5-893.6,75.3-891.1,71.9-890.8z"/>
<polygon class="st3" points="138.8,-640.3 0,-601.2 0,-1004.6 170.8,-1004.6 "/>
<text transform="matrix(1 0 0 1 -151.8544 -747.2867)" class="st1" style="font-family:'SFProDisplay-Medium'; font-size:42px;">MAVAJ SUN CO</text>
<polygon class="st4" points="500,-1039.9 291.7,-1039.9 329,-613.8 500,-565.9 671,-614.3 708.3,-1039.9 "/>
<path class="st1" d="M653.8-849.3c-0.5-3.9-1.9-7.6-4.1-10.9c-1.4-2.1-2.8-4.2-4.4-6.2c-1.2-1.6-2.3-3.3-3.5-5.1
	c-0.3-0.4-0.5-0.8-0.5-1.4c-0.1-1.1,0.3-1.5,1.4-1.4c1.4,0.2,2.6,0.8,3.6,1.8c0.5,0.5,1,1.1,1.7,1.4c-0.1-0.5-0.1-0.9-0.2-1.3
	c-0.6-3.9-1.9-7.6-4.5-10.7c-1.5-1.9-3.6-3.1-5.5-4.5c-2.8-1.9-5.8-3.6-8.2-6c-0.8-0.8-1.7-1.7-2.2-2.9c-0.4-1-1.2-2.1-0.5-3
	c0.8-1,2.2-0.7,3.4-0.5c1,0.1,2,0.3,2.9,0.5c0.1-0.2,0.2-0.2,0.2-0.4c-0.2-0.2-0.5-0.2-0.7-0.4c-0.2-0.2-0.4-0.4-0.5-0.5
	c-2.6-3-5.6-5.5-9.6-6.7c-6.1-1.7-12.3-1.8-18.5-1.5c-10.1,0.5-30.5,3.3-30.7,3.5c-2.1,0.3-4.2,0.8-6.1,1.7c-1.2,0.6-2,1.5-2.5,2.7
	c-1.4,3.4-3.6,5.9-7.1,7.3c-4.2,1.7-8.4,1.8-12.8,0.9c-1.7-0.4-3.4-1.1-4.9-2.1c-1.9-1.2-3-1-4.3,0.7c-0.6,0.8-1.2,1.7-1.6,2.6
	c-2.2,4.5-3.4,9.3-3.8,14.3c-0.2,2.3,0,4.5,0.7,6.7c0.1,0.2,0,0.9,0.7,0.6c1.9-0.8,3.9-1.3,5.6-2.4c1.6-1.1,3.3-1.1,4.3,0
	c1.2,1.1,2.3,2.3,3.7,3.3c1.8,1.4,3.9,2.3,6.2,1.7c1.5-0.5,3-1.1,4.5-1.7c2.5-0.9,5.1-1.4,7.8-1.1c3,0.4,5.8,1.4,8.5,2.8
	c8.3,4.1,16.8,5.4,25.9,3.1c1.6-0.4,3.3-0.8,5-0.3c1.6,0.5,2.1,1.4,1.7,3c-0.8,3-2.1,5.8-3.8,8.4c-2.8,4.3-6.7,7.4-11.4,9.4
	c-3.4,1.4-7,2-10.7,2c-5.6,0-11.1-0.7-16.3-2.7c-3.9-1.5-7.9-2.8-11.6-5c-2.5-1.5-5.1-2.9-7.6-4.5c-4.1-2.9-7.9-6-11.5-9.5
	c-3-3-5.8-6.1-8.3-9.5c-2.2-3-4.1-6.1-5.8-9.2c-3.4-6.6-5.6-13.5-5.9-21c-0.2-5.5,0.1-11,2.6-16c1.6-3.3,4.6-4.2,7.7-2.2
	c0.8,0.5,1.7,1.1,2.6,1.4c1.1,0.3,1.4-0.1,1.7-1c0.5-1.7,0.6-3.3,0.3-5c-0.8-5-3.4-9.1-6.7-12.7c-3.1-3.5-6.7-6.5-10.2-9.5
	c-2-1.7-4.2-3-6.3-4.5c-29.5-21.1-74.9-22-85.2-22.3c-7.9-0.2-15.8,0.2-23.6,1.5c-4,0.7-23.6,5.1-29.2,7.3c-5.3,2.2-10.7,4.2-15.7,7
	c-0.8,0.5-1.7,0.9-2.3,1.5c-0.8,0.7-1.7,1.4-2.3,2.6c0.5-0.1,0.8-0.1,1.1-0.2c3.2-0.8,6.4-1.1,9.5-2.1c2.1-0.7,4.3-1.1,6.4-1.3
	c3.6-0.5,6.7,0.2,8.8,3.6c2.5,4.2,3.9,8.6,4.3,13.5c0.4,4.2-0.1,8.4-1.1,12.6c-1.6,6.1-4.2,11.6-9.4,15.4c-2,1.4-4.1,2.6-6,4
	c-2.1,1.6-4.4,3-6.5,4.5c-2.3,1.7-4.8,3.4-7.4,4.8c-3.8,2-7.7,4-11.6,6.1c-4,2-7.9,4.5-11.7,7c-1.1,0.8-2.2,1.7-3.1,2.8
	c-0.5,0.6-1,1.3-1,2.3c5.3-1.6,10.5-2.8,15.7-4.6c3.6-1.3,7.1-2.6,10.9-2.9c5.9-0.4,11.6,0,16.6,3.6c3.3,2.4,5.7,5.6,6.5,9.7
	c0.7,3.3,0.2,6.5-0.8,9.7c-1.4,4.2-3.6,7.9-6.1,11.6c-1.3,1.8-2.6,3.6-3.6,5.5c-0.9,1.6-1.9,3.3-2,5.4c2.2-1.4,4.3-1.7,6.4-4
	c0.2-0.2,3-4,4.3-5.7c2.9-3.6,6.4-6.7,10-9.5c2.3-1.8,5.1-3.3,7.6-4.7c4-2.3,8.6-3.6,13-4.5c7.9-1.7,16-1.7,23.9,0.5
	c4.8,1.3,9.5,2.7,13.6,5.6c1.8,1.3,3.6,2.5,5.3,4c3.9,3.6,6.9,7.8,9.2,12.5c0.5,1.1,1,2.3,1.1,3.5c0.6,3.9,1.1,7.8,1.6,11.7
	c0.2,0.9,0.2,1.8,0.7,2.6c0.3,0.5,0.6,0.6,1.1,0.2c1.8-1.6,3.7-3.1,5.2-5c2.3-2.8,4.9-5.2,7.8-7.4c2.6-2,5.5-3.5,8.3-5
	c3.7-2,7.8-3,11.8-4.2c2.4-0.8,5-1.1,7.6-1.6c3.9-0.6,7.7-0.4,11.6-0.2c1.4,0.1,2.6,0.2,4.2,0c-2.2-1.2-4.5-1.8-6.7-2.5
	c-1.7-0.5-4.6-1.1-6.4-1.1c-4.2-0.2-8.2,0.3-12.3,1.3c-3.6,0.8-6.7,2.3-9.8,4.2c-2.5,1.5-5.1,2.9-7.8,3.9c-1.1,0.5-2.3,0.7-3.6,0.5
	c-0.5-0.1-0.8-0.3-0.8-1c0-1.3-0.1-2.6,0.2-3.9c1.3-7.4,4.3-14.2,8.8-20.2c2-2.6,3.9-5.3,5.8-7.9c2.5-3.3,4.9-6.5,7.6-9.6
	c2.3-2.7,4.8-5.5,7.9-7.6c0.5-0.4,1-0.7,1.4-1.1c1.5-1.4,3.4-2.2,5.5-2.6c2.9-0.6,4.8,0.4,6,3c0.7,1.6,0.9,3.3,1.4,4.9
	c1.6,5.1,3.9,9.8,6.6,14.2c2,3.3,4.2,6.3,6.6,9.2c2.6,3.3,5.6,6.4,8.7,9.4c3.5,3.3,7.3,6.4,11.2,9.3c2.3,1.7,4.8,3.3,7.3,4.8
	c2.8,1.7,5.9,3.1,8.9,4.5c19.2,8.8,44.8,10.7,54.5-16c0.8-4.6,0.6-9.1-2.3-12.9c-2.9-3.8-6.9-6.3-11.4-7.8c-0.5-0.2-1.3-0.4-1.6,0.3
	s0.2,1.2,0.8,1.6c0.5,0.3,1,0.5,1.4,0.9c1.4,1.1,3,2.2,4.2,3.5c1.4,1.7,1.4,3.8,0,5.4c-1.1,1.2-2.4,2.1-4.2,2.4
	c-4.5,0.8-8.9,0.2-13.3-1.3c-4.2-1.4-8.3-3-12.3-4.8c-2.8-1.2-5.8-1.4-8.9-0.7c-2.6,0.6-5.1,1.9-7.7,2.4c-1.8,0.4-3.7,0.6-5.5,0.3
	c-2.2-0.4-3.8-1.7-5.3-3.3c-1.3-1.3-2.6-2.5-4.4-3.2c-0.5-0.2-0.8-0.2-1.4,0c-0.7,0.4-1.5,0.7-2.3,0.7c-0.8,0-1.1-0.2-1.1-1.1
	c0.1-0.5,0.2-1.1,0.1-1.7c-0.2-4,0.4-7.9,2.8-11.2c0.5-0.8,0.8-1.4,2.1-0.9c2.6,1.1,5.5,1.7,8.3,2.4c6.2,1.7,12.5,1.7,18.6-0.5
	c1.4-0.5,2.7-0.6,4.2-0.6c1.1,0.1,8.3,0.8,9.3-3.2c0.7-1.7,2.3-2.1,3.6-2.1c4,0,8,0.3,12,1.3c2.3,0.6,4.6,1.3,6.5,3
	c0.5,0.5,1.2,0.8,1.9,1.1c0.4,0.2,0.9,0.5,1.2,0.2c0.3-0.4-0.2-0.8-0.5-1.1c-0.7-0.7-1.3-1.3-2-2c-0.9-0.8-1.7-1.7-2.3-2.8
	c-1.2-2.3-0.5-3.9,2-4.5c0.6-0.2,1.2-0.2,1.7-0.2c3-0.1,5.8,0.8,8.5,2.1c3.6,1.7,6.9,4.2,9.8,7c3,3,5.5,6.1,7.7,9.7
	c3.8,6.1,6.3,12.6,8.1,19.4c2,7.6,3.4,15.3,3.9,23.1c0.5,8.1,0,16.2-1.8,24.1c-0.9,4.1-2.6,7.9-4.1,11.8c-0.7,1.7-1.4,3.5-1.6,5.7
	c0.4-0.5,0.5-0.6,0.7-0.8c1.4-1.6,2.3-3.5,3.2-5.4c2.8-5.8,4.5-11.9,6-18.1c1-4.1,1.7-8.2,2.1-12.3c0.3-3.6,0.3-7.2,0.8-10.8
	c0.2-1,1.1-1.7,2-1.4c2.1,0.5,4.2,0.8,5.6,2.7c0.1,0.1,0.3,0.1,0.4,0.1C654.8-843.7,654.1-847.7,653.8-849.3z M500.9-914.7
	c-0.1,1.1-0.8,2-1.6,2.7c-1,0.8-2,1.7-3.1,2.5c-3.5,2.4-6.5,5.3-9.6,8.1c-2.9,2.6-5.6,5.2-8.3,8c-3.6,3.6-6.6,7.7-9.5,11.9
	c-1.9,2.6-3.8,5.4-5.6,8.1c-2.3,3.4-4.3,7-6.2,10.7c-1,2-2.2,3.8-3.5,5.5c-1.3,1.7-2.6,1.8-4.3,0.5c-1.8-1.4-3.2-3.3-4.7-5.1
	c-3.6-4.1-7.6-7.6-12.3-10.4c-4.2-2.4-8.6-3.9-13.2-4.8c-0.2-0.2-5-1-7.1-1.4c-1.2-0.2-2.3-0.7-3.1-1.7c-0.3-0.4-0.2-0.6,0.1-1
	c1.8-2,4.1-3.4,6.2-5.1c2.4-1.9,4.9-3.7,7.3-5.5c2-1.4,4.2-2.4,6.3-3.6c3.6-2.1,7.4-3.6,11.1-5.3c3.9-1.9,8.1-3,12.1-4.7
	c4.6-2,9.5-3,14.2-4.7c6.2-2.1,12.6-3.3,18.9-4.9c4.2-1,8.3-1.6,12.6-1.7c0.7,0,1.4,0.2,2,0.2C500.7-916.4,500.9-915.6,500.9-914.7z
	 M503.1-923.7c-2.3,0.8-4.8,1.1-7.2,1.5c-4,0.8-8.1,1.4-12.1,2.3c-6.7,1.7-13.6,2.3-20.2,4.5c-4.6,1.5-9.4,2.8-13.9,4.8
	c-3.4,1.6-7,2.7-10.2,4.5c-3,1.7-6.2,3-9.2,4.8c-2.6,1.7-5.5,2.9-7.9,4.6s-5.3,3-7.7,4.8c-2.3,1.7-4.8,2.9-7.1,4.5
	c-2.5,1.8-5.2,3.3-7.7,5.1c-2.3,1.7-4.9,2.9-7.3,4.5c-3.2,2.3-6.6,3.9-10.3,5.1c-1.4,0.5-2.8,0.6-4.2,0.5c-0.8-0.1-1.3-0.5-1.7-1.1
	c-2.9-4.6-5.8-9.2-9.6-13.1c-0.8-0.9-1.7-1.9-2.6-2.7c-2.5-2.4-5.1-4.8-8.1-6.7c-0.5-0.3-0.9-0.8-1.4-1.1c-0.5-0.2-0.4-0.8-0.2-1.2
	c0.5-1.4,1.6-2.4,2.4-3.6c0.4-0.5,8.1-6.4,11.7-8.4c3.1-1.7,6.4-3,9.5-4.5c4.2-2,8.6-3.3,12.9-4.9c5.1-2,10.6-3.1,15.9-4.6
	c8.3-2.3,16.7-3.5,25.1-4.9c13.7-2.3,27.6-2.9,41.7-3c7.7,0.2,15.7,0.4,23.7,1.2c2,0.2,4.1,0.6,6.1,1.1c0.8,0.2,1.5,0.7,2.3,1.1
	c0.5,0.2,0.3,0.5,0.3,0.8C506.2-926,504.6-924.2,503.1-923.7z M506.3-936.5c-5.1,0.5-10.2,0.9-15.4,0.4c-8-0.8-16.1-0.5-24.1-0.2
	c-6.6,0.3-13.2,0.5-19.8,0.8c-4.5,0.2-32,4.4-40,6.3c-5.9,1.4-12,2.5-17.7,4.5c-2.5,0.8-5,1.4-7.6,1.3c-1.1-0.1-2-0.3-2.6-1.3
	c-0.4-0.6-0.3-1.2-0.3-1.8c0.2-4.6,0.8-9.2,0.7-13.8c-0.2-5.4-1.1-10.5-4.1-15.1c-0.7-1.1-1.2-2.3-1.7-3.5c-0.8-2-0.2-3.4,1.7-4.2
	c3.2-1.4,6.5-2.1,9.8-3.1c8.3-2.3,16.7-2.9,25.1-3.2c10.1-0.4,20.1,0.3,30.1,1.6c2.3,0.3,21.3,3.7,27.9,5.7
	c4.5,1.4,9.2,2.6,13.5,4.5c3.3,1.4,6.7,2.9,9.8,4.8c2,1.3,4.1,2.3,6.1,3.8c2.5,1.7,5.1,3.3,7.6,5.1c1.7,1.2,3,2.7,3.3,4.8
	C508.7-937.5,508.1-936.8,506.3-936.5z M571.9-891.9c-0.3,0-0.6,0-0.9,0.1c-0.3,0-0.6,0-0.9-0.1c-0.9-0.2-2.1-0.2-2.5-1
	c-0.3-0.6,0.9-1.1,1.4-1.7c1.4-2,3.3-3.3,5.6-4.2c0.5-0.2,0.8-0.3,1.3-0.4c0.9-0.1,1.4,0.4,1.5,1.3
	C577.5-894.7,575.3-892.2,571.9-891.9z"/>
<polygon class="st3" points="638.8,-641.4 500,-602.3 500,-1005.8 670.8,-1005.8 "/>
<text transform="matrix(1 0 0 1 348.1456 -748.4081)" class="st1" style="font-family:'SFProDisplay-Medium'; font-size:42px;">MAVAJ SUN CO</text>
<polygon class="st3" points="393.1,412.5 254.3,451.6 254.3,48.1 425.1,48.1 "/>
<polygon class="st0" points="955.1,-1034.3 746.8,-1034.3 784.1,-608.2 955.1,-560.3 1126.1,-608.6 1163.4,-1034.3 "/>
<path class="st1" d="M1108.9-843.7c-0.5-3.9-1.9-7.6-4.1-10.9c-1.4-2.1-2.8-4.2-4.4-6.2c-1.2-1.6-2.3-3.3-3.5-5.1
	c-0.3-0.4-0.5-0.8-0.5-1.4c-0.1-1.1,0.3-1.5,1.4-1.4c1.4,0.2,2.6,0.8,3.6,1.8c0.5,0.5,1,1.1,1.7,1.4c-0.1-0.5-0.1-0.9-0.2-1.3
	c-0.6-3.9-1.9-7.6-4.5-10.7c-1.5-1.9-3.6-3.1-5.5-4.5c-2.8-1.9-5.8-3.6-8.2-6c-0.8-0.8-1.7-1.7-2.2-2.9c-0.4-1-1.2-2.1-0.5-3
	c0.8-1,2.2-0.7,3.4-0.5c1,0.1,2,0.3,2.9,0.5c0.1-0.2,0.2-0.2,0.2-0.4c-0.2-0.2-0.5-0.2-0.7-0.4c-0.2-0.2-0.4-0.4-0.5-0.5
	c-2.6-3-5.6-5.5-9.6-6.7c-6.1-1.7-12.3-1.8-18.5-1.5c-10.1,0.5-30.5,3.3-30.7,3.5c-2.1,0.3-4.2,0.8-6.1,1.7c-1.2,0.6-2,1.5-2.5,2.7
	c-1.4,3.4-3.6,5.9-7.1,7.3c-4.2,1.7-8.4,1.8-12.8,0.9c-1.7-0.4-3.4-1.1-4.9-2.1c-1.9-1.2-3-1-4.3,0.7c-0.6,0.8-1.2,1.7-1.6,2.6
	c-2.2,4.5-3.4,9.3-3.8,14.3c-0.2,2.3,0,4.5,0.7,6.7c0.1,0.2,0,0.9,0.7,0.6c1.9-0.8,3.9-1.3,5.6-2.4c1.6-1.1,3.3-1.1,4.3,0
	c1.2,1.1,2.3,2.3,3.7,3.3c1.8,1.4,3.9,2.3,6.2,1.7c1.5-0.5,3-1.1,4.5-1.7c2.5-0.9,5.1-1.4,7.8-1.1c3,0.4,5.8,1.4,8.5,2.8
	c8.3,4.1,16.8,5.4,25.9,3.1c1.6-0.4,3.3-0.8,5-0.3c1.6,0.5,2.1,1.4,1.7,3c-0.8,3-2.1,5.8-3.8,8.4c-2.8,4.3-6.7,7.4-11.4,9.4
	c-3.4,1.4-7,2-10.7,2c-5.6,0-11.1-0.7-16.3-2.7c-3.9-1.5-7.9-2.8-11.6-5c-2.5-1.5-5.1-2.9-7.6-4.5c-4.1-2.9-7.9-6-11.5-9.5
	c-3-3-5.8-6.1-8.3-9.5c-2.2-3-4.1-6.1-5.8-9.2c-3.4-6.6-5.6-13.5-5.9-21c-0.2-5.5,0.1-11,2.6-16c1.6-3.3,4.6-4.2,7.7-2.2
	c0.8,0.5,1.7,1.1,2.6,1.4c1.1,0.3,1.4-0.1,1.7-1c0.5-1.7,0.6-3.3,0.3-5c-0.8-5-3.4-9.1-6.7-12.7c-3.1-3.5-6.7-6.5-10.2-9.5
	c-2-1.7-4.2-3-6.3-4.5c-29.5-21.1-74.9-22-85.2-22.3c-7.9-0.2-15.8,0.2-23.6,1.5c-4,0.7-23.6,5.1-29.2,7.3c-5.3,2.2-10.7,4.2-15.7,7
	c-0.8,0.5-1.7,0.9-2.3,1.5c-0.8,0.7-1.7,1.4-2.3,2.6c0.5-0.1,0.8-0.1,1.1-0.2c3.2-0.8,6.4-1.1,9.5-2.1c2.1-0.7,4.3-1.1,6.4-1.3
	c3.6-0.5,6.7,0.2,8.8,3.6c2.5,4.2,3.9,8.6,4.3,13.5c0.4,4.2-0.1,8.4-1.1,12.6c-1.6,6.1-4.2,11.6-9.4,15.4c-2,1.4-4.1,2.6-6,4
	c-2.1,1.6-4.4,3-6.5,4.5c-2.3,1.7-4.8,3.4-7.4,4.8c-3.8,2-7.7,4-11.6,6.1c-4,2-7.9,4.5-11.7,7c-1.1,0.8-2.2,1.7-3.1,2.8
	c-0.5,0.6-1,1.3-1,2.3c5.3-1.6,10.5-2.8,15.7-4.6c3.6-1.3,7.1-2.6,10.9-2.9c5.9-0.4,11.6,0,16.6,3.6c3.3,2.4,5.7,5.6,6.5,9.7
	c0.7,3.3,0.2,6.5-0.8,9.7c-1.4,4.2-3.6,7.9-6.1,11.6c-1.3,1.8-2.6,3.6-3.6,5.5c-0.9,1.6-1.9,3.3-2,5.4c2.2-1.4,4.3-1.7,6.4-4
	c0.2-0.2,3-4,4.3-5.7c2.9-3.6,6.4-6.7,10-9.5c2.3-1.8,5.1-3.3,7.6-4.7c4-2.3,8.6-3.6,13-4.5c7.9-1.7,16-1.7,23.9,0.5
	c4.8,1.3,9.5,2.7,13.6,5.6c1.8,1.3,3.6,2.5,5.3,4c3.9,3.6,6.9,7.8,9.2,12.5c0.5,1.1,1,2.3,1.1,3.5c0.6,3.9,1.1,7.8,1.6,11.7
	c0.2,0.9,0.2,1.8,0.7,2.6c0.3,0.5,0.6,0.6,1.1,0.2c1.8-1.6,3.7-3.1,5.2-5c2.3-2.8,4.9-5.2,7.8-7.4c2.6-2,5.5-3.5,8.3-5
	c3.7-2,7.8-3,11.8-4.2c2.4-0.8,5-1.1,7.6-1.6c3.9-0.6,7.7-0.4,11.6-0.2c1.4,0.1,2.6,0.2,4.2,0c-2.2-1.2-4.5-1.8-6.7-2.5
	c-1.7-0.5-4.6-1.1-6.4-1.1c-4.2-0.2-8.2,0.3-12.3,1.3c-3.6,0.8-6.7,2.3-9.8,4.2c-2.5,1.5-5.1,2.9-7.8,3.9c-1.1,0.5-2.3,0.7-3.6,0.5
	c-0.5-0.1-0.8-0.3-0.8-1c0-1.3-0.1-2.6,0.2-3.9c1.3-7.4,4.3-14.2,8.8-20.2c2-2.6,3.9-5.3,5.8-7.9c2.5-3.3,4.9-6.5,7.6-9.6
	c2.3-2.7,4.8-5.5,7.9-7.6c0.5-0.4,1-0.7,1.4-1.1c1.5-1.4,3.4-2.2,5.5-2.6c2.9-0.6,4.8,0.4,6,3c0.7,1.6,0.9,3.3,1.4,4.9
	c1.6,5.1,3.9,9.8,6.6,14.2c2,3.3,4.2,6.3,6.6,9.2c2.6,3.3,5.6,6.4,8.7,9.4c3.5,3.3,7.3,6.4,11.2,9.3c2.3,1.7,4.8,3.3,7.3,4.8
	c2.8,1.7,5.9,3.1,8.9,4.5c19.2,8.8,44.8,10.7,54.5-16c0.8-4.6,0.6-9.1-2.3-12.9c-2.9-3.8-6.9-6.3-11.4-7.8c-0.5-0.2-1.3-0.4-1.6,0.3
	c-0.3,0.7,0.2,1.2,0.8,1.6c0.5,0.3,1,0.5,1.4,0.9c1.4,1.1,3,2.2,4.2,3.5c1.4,1.7,1.4,3.8,0,5.4c-1.1,1.2-2.4,2.1-4.2,2.4
	c-4.5,0.8-8.9,0.2-13.3-1.3c-4.2-1.4-8.3-3-12.3-4.8c-2.8-1.2-5.8-1.4-8.9-0.7c-2.6,0.6-5.1,1.9-7.7,2.4c-1.8,0.4-3.7,0.6-5.5,0.3
	c-2.2-0.4-3.8-1.7-5.3-3.3c-1.3-1.3-2.6-2.5-4.4-3.2c-0.5-0.2-0.8-0.2-1.4,0c-0.7,0.4-1.5,0.7-2.3,0.7c-0.8,0-1.1-0.2-1.1-1.1
	c0.1-0.5,0.2-1.1,0.1-1.7c-0.2-4,0.4-7.9,2.8-11.2c0.5-0.8,0.8-1.4,2.1-0.9c2.6,1.1,5.5,1.7,8.3,2.4c6.2,1.7,12.5,1.7,18.6-0.5
	c1.4-0.5,2.7-0.6,4.2-0.6c1.1,0.1,8.3,0.8,9.3-3.2c0.7-1.7,2.3-2.1,3.6-2.1c4,0,8,0.3,12,1.3c2.3,0.6,4.6,1.3,6.5,3
	c0.5,0.5,1.2,0.8,1.9,1.1c0.4,0.2,0.9,0.5,1.2,0.2c0.3-0.4-0.2-0.8-0.5-1.1c-0.7-0.7-1.3-1.3-2-2c-0.9-0.8-1.7-1.7-2.3-2.8
	c-1.2-2.3-0.5-3.9,2-4.5c0.6-0.2,1.2-0.2,1.7-0.2c3-0.1,5.8,0.8,8.5,2.1c3.6,1.7,6.9,4.2,9.8,7c3,3,5.5,6.1,7.7,9.7
	c3.8,6.1,6.3,12.6,8.1,19.4c2,7.6,3.4,15.3,3.9,23.1c0.5,8.1,0,16.2-1.8,24.1c-0.9,4.1-2.6,7.9-4.1,11.8c-0.7,1.7-1.4,3.5-1.6,5.7
	c0.4-0.5,0.5-0.6,0.7-0.8c1.4-1.6,2.3-3.5,3.2-5.4c2.8-5.8,4.5-11.9,6-18.1c1-4.1,1.7-8.2,2.1-12.3c0.3-3.6,0.3-7.2,0.8-10.8
	c0.2-1,1.1-1.7,2-1.4c2.1,0.5,4.2,0.8,5.6,2.7c0.1,0.1,0.3,0.1,0.4,0.1C1109.9-838,1109.2-842,1108.9-843.7z M956-909
	c-0.1,1.1-0.8,2-1.6,2.7c-1,0.8-2,1.7-3.1,2.5c-3.5,2.4-6.5,5.3-9.6,8.1c-2.9,2.6-5.6,5.2-8.3,8c-3.6,3.6-6.6,7.7-9.5,11.9
	c-1.9,2.6-3.8,5.4-5.6,8.1c-2.3,3.4-4.3,7-6.2,10.7c-1,2-2.2,3.8-3.5,5.5c-1.3,1.7-2.6,1.8-4.3,0.5c-1.8-1.4-3.2-3.3-4.7-5.1
	c-3.6-4.1-7.6-7.6-12.3-10.4c-4.2-2.4-8.6-3.9-13.2-4.8c-0.2-0.2-5-1-7.1-1.4c-1.2-0.2-2.3-0.7-3.1-1.7c-0.3-0.4-0.2-0.6,0.1-1
	c1.8-2,4.1-3.4,6.2-5.1c2.4-1.9,4.9-3.7,7.3-5.5c2-1.4,4.2-2.4,6.3-3.6c3.6-2.1,7.4-3.6,11.1-5.3c3.9-1.9,8.1-3,12.1-4.7
	c4.6-2,9.5-3,14.2-4.7c6.2-2.1,12.6-3.3,18.9-4.9c4.2-1,8.3-1.6,12.6-1.7c0.7,0,1.4,0.2,2,0.2C955.8-910.7,956-910,956-909z
	 M958.2-918.1c-2.3,0.8-4.8,1.1-7.2,1.5c-4,0.8-8.1,1.4-12.1,2.3c-6.7,1.7-13.6,2.3-20.2,4.5c-4.6,1.5-9.4,2.8-13.9,4.8
	c-3.4,1.6-7,2.7-10.2,4.5c-3,1.7-6.2,3-9.2,4.8c-2.6,1.7-5.5,2.9-7.9,4.6s-5.3,3-7.7,4.8c-2.3,1.7-4.8,2.9-7.1,4.5
	c-2.5,1.8-5.2,3.3-7.7,5.1c-2.3,1.7-4.9,2.9-7.3,4.5c-3.2,2.3-6.6,3.9-10.3,5.1c-1.4,0.5-2.8,0.6-4.2,0.5c-0.8-0.1-1.3-0.5-1.7-1.1
	c-2.9-4.6-5.8-9.2-9.6-13.1c-0.8-0.9-1.7-1.9-2.6-2.7c-2.5-2.4-5.1-4.8-8.1-6.7c-0.5-0.3-0.9-0.8-1.4-1.1c-0.5-0.2-0.4-0.8-0.2-1.2
	c0.5-1.4,1.6-2.4,2.4-3.6c0.4-0.5,8.1-6.4,11.7-8.4c3.1-1.7,6.4-3,9.5-4.5c4.2-2,8.6-3.3,12.9-4.9c5.1-2,10.6-3.1,15.9-4.6
	c8.3-2.3,16.7-3.5,25.1-4.9c13.7-2.3,27.6-2.9,41.7-3c7.7,0.2,15.7,0.4,23.7,1.2c2,0.2,4.1,0.6,6.1,1.1c0.8,0.2,1.5,0.7,2.3,1.1
	c0.5,0.2,0.3,0.5,0.3,0.8C961.3-920.4,959.7-918.5,958.2-918.1z M961.4-930.9c-5.1,0.5-10.2,0.9-15.4,0.4c-8-0.8-16.1-0.5-24.1-0.2
	c-6.6,0.3-13.2,0.5-19.8,0.8c-4.5,0.2-32,4.4-40,6.3c-5.9,1.4-12,2.5-17.7,4.5c-2.5,0.8-5,1.4-7.6,1.3c-1.1-0.1-2-0.3-2.6-1.3
	c-0.4-0.6-0.3-1.2-0.3-1.8c0.2-4.6,0.8-9.2,0.7-13.8c-0.2-5.4-1.1-10.5-4.1-15.1c-0.7-1.1-1.2-2.3-1.7-3.5c-0.8-2-0.2-3.4,1.7-4.2
	c3.2-1.4,6.5-2.1,9.8-3.1c8.3-2.3,16.7-2.9,25.1-3.2c10.1-0.4,20.1,0.3,30.1,1.6c2.3,0.3,21.3,3.7,27.9,5.7
	c4.5,1.4,9.2,2.6,13.5,4.5c3.3,1.4,6.7,2.9,9.8,4.8c2,1.3,4.1,2.3,6.1,3.8c2.5,1.7,5.1,3.3,7.6,5.1c1.7,1.2,3,2.7,3.3,4.8
	C963.8-931.9,963.2-931.1,961.4-930.9z M1027-886.2c-0.3,0-0.6,0-0.9,0.1c-0.3,0-0.6,0-0.9-0.1c-0.9-0.2-2.1-0.2-2.5-1
	c-0.3-0.6,0.9-1.1,1.4-1.7c1.4-2,3.3-3.3,5.6-4.2c0.5-0.2,0.8-0.3,1.3-0.4c0.9-0.1,1.4,0.4,1.5,1.3
	C1032.6-889,1030.4-886.5,1027-886.2z"/>
<text transform="matrix(1 0 0 1 812.6339 -679.2453)" class="st1" style="font-family:'SFProDisplay-Black'; font-size:120px;">MSC</text>
<polygon class="st3" points="1093.9,-635.7 955.1,-596.6 955.1,-1000.1 1125.9,-1000.1 "/>
<polygon class="st0" points="1410.2,-1034.3 1201.9,-1034.3 1239.2,-608.2 1410.2,-560.3 1581.2,-608.6 1618.5,-1034.3 "/>
<path class="st1" d="M1564-843.7c-0.5-3.9-1.9-7.6-4.1-10.9c-1.4-2.1-2.8-4.2-4.4-6.2c-1.2-1.6-2.3-3.3-3.5-5.1
	c-0.3-0.4-0.5-0.8-0.5-1.4c-0.1-1.1,0.3-1.5,1.4-1.4c1.4,0.2,2.6,0.8,3.6,1.8c0.5,0.5,1,1.1,1.7,1.4c-0.1-0.5-0.1-0.9-0.2-1.3
	c-0.6-3.9-1.9-7.6-4.5-10.7c-1.5-1.9-3.6-3.1-5.5-4.5c-2.8-1.9-5.8-3.6-8.2-6c-0.8-0.8-1.7-1.7-2.2-2.9c-0.4-1-1.2-2.1-0.5-3
	c0.8-1,2.2-0.7,3.4-0.5c1,0.1,2,0.3,2.9,0.5c0.1-0.2,0.2-0.2,0.2-0.4c-0.2-0.2-0.5-0.2-0.7-0.4c-0.2-0.2-0.4-0.4-0.5-0.5
	c-2.6-3-5.6-5.5-9.6-6.7c-6.1-1.7-12.3-1.8-18.5-1.5c-10.1,0.5-30.5,3.3-30.7,3.5c-2.1,0.3-4.2,0.8-6.1,1.7c-1.2,0.6-2,1.5-2.5,2.7
	c-1.4,3.4-3.6,5.9-7.1,7.3c-4.2,1.7-8.4,1.8-12.8,0.9c-1.7-0.4-3.4-1.1-4.9-2.1c-1.9-1.2-3-1-4.3,0.7c-0.6,0.8-1.2,1.7-1.6,2.6
	c-2.2,4.5-3.4,9.3-3.8,14.3c-0.2,2.3,0,4.5,0.7,6.7c0.1,0.2,0,0.9,0.7,0.6c1.9-0.8,3.9-1.3,5.6-2.4c1.6-1.1,3.3-1.1,4.3,0
	c1.2,1.1,2.3,2.3,3.7,3.3c1.8,1.4,3.9,2.3,6.2,1.7c1.5-0.5,3-1.1,4.5-1.7c2.5-0.9,5.1-1.4,7.8-1.1c3,0.4,5.8,1.4,8.5,2.8
	c8.3,4.1,16.8,5.4,25.9,3.1c1.6-0.4,3.3-0.8,5-0.3c1.6,0.5,2.1,1.4,1.7,3c-0.8,3-2.1,5.8-3.8,8.4c-2.8,4.3-6.7,7.4-11.4,9.4
	c-3.4,1.4-7,2-10.7,2c-5.6,0-11.1-0.7-16.3-2.7c-3.9-1.5-7.9-2.8-11.6-5c-2.5-1.5-5.1-2.9-7.6-4.5c-4.1-2.9-7.9-6-11.5-9.5
	c-3-3-5.8-6.1-8.3-9.5c-2.2-3-4.1-6.1-5.8-9.2c-3.4-6.6-5.6-13.5-5.9-21c-0.2-5.5,0.1-11,2.6-16c1.6-3.3,4.6-4.2,7.7-2.2
	c0.8,0.5,1.7,1.1,2.6,1.4c1.1,0.3,1.4-0.1,1.7-1c0.5-1.7,0.6-3.3,0.3-5c-0.8-5-3.4-9.1-6.7-12.7c-3.1-3.5-6.7-6.5-10.2-9.5
	c-2-1.7-4.2-3-6.3-4.5c-29.5-21.1-74.9-22-85.2-22.3c-7.9-0.2-15.8,0.2-23.6,1.5c-4,0.7-23.6,5.1-29.2,7.3c-5.3,2.2-10.7,4.2-15.7,7
	c-0.8,0.5-1.7,0.9-2.3,1.5c-0.8,0.7-1.7,1.4-2.3,2.6c0.5-0.1,0.8-0.1,1.1-0.2c3.2-0.8,6.4-1.1,9.5-2.1c2.1-0.7,4.3-1.1,6.4-1.3
	c3.6-0.5,6.7,0.2,8.8,3.6c2.5,4.2,3.9,8.6,4.3,13.5c0.4,4.2-0.1,8.4-1.1,12.6c-1.6,6.1-4.2,11.6-9.4,15.4c-2,1.4-4.1,2.6-6,4
	c-2.1,1.6-4.4,3-6.5,4.5c-2.3,1.7-4.8,3.4-7.4,4.8c-3.8,2-7.7,4-11.6,6.1c-4,2-7.9,4.5-11.7,7c-1.1,0.8-2.2,1.7-3.1,2.8
	c-0.5,0.6-1,1.3-1,2.3c5.3-1.6,10.5-2.8,15.7-4.6c3.6-1.3,7.1-2.6,10.9-2.9c5.9-0.4,11.6,0,16.6,3.6c3.3,2.4,5.7,5.6,6.5,9.7
	c0.7,3.3,0.2,6.5-0.8,9.7c-1.4,4.2-3.6,7.9-6.1,11.6c-1.3,1.8-2.6,3.6-3.6,5.5c-0.9,1.6-1.9,3.3-2,5.4c2.2-1.4,4.3-1.7,6.4-4
	c0.2-0.2,3-4,4.3-5.7c2.9-3.6,6.4-6.7,10-9.5c2.3-1.8,5.1-3.3,7.6-4.7c4-2.3,8.6-3.6,13-4.5c7.9-1.7,16-1.7,23.9,0.5
	c4.8,1.3,9.5,2.7,13.6,5.6c1.8,1.3,3.6,2.5,5.3,4c3.9,3.6,6.9,7.8,9.2,12.5c0.5,1.1,1,2.3,1.1,3.5c0.6,3.9,1.1,7.8,1.6,11.7
	c0.2,0.9,0.2,1.8,0.7,2.6c0.3,0.5,0.6,0.6,1.1,0.2c1.8-1.6,3.7-3.1,5.2-5c2.3-2.8,4.9-5.2,7.8-7.4c2.6-2,5.5-3.5,8.3-5
	c3.7-2,7.8-3,11.8-4.2c2.4-0.8,5-1.1,7.6-1.6c3.9-0.6,7.7-0.4,11.6-0.2c1.4,0.1,2.6,0.2,4.2,0c-2.2-1.2-4.5-1.8-6.7-2.5
	c-1.7-0.5-4.6-1.1-6.4-1.1c-4.2-0.2-8.2,0.3-12.3,1.3c-3.6,0.8-6.7,2.3-9.8,4.2c-2.5,1.5-5.1,2.9-7.8,3.9c-1.1,0.5-2.3,0.7-3.6,0.5
	c-0.5-0.1-0.8-0.3-0.8-1c0-1.3-0.1-2.6,0.2-3.9c1.3-7.4,4.3-14.2,8.8-20.2c2-2.6,3.9-5.3,5.8-7.9c2.5-3.3,4.9-6.5,7.6-9.6
	c2.3-2.7,4.8-5.5,7.9-7.6c0.5-0.4,1-0.7,1.4-1.1c1.5-1.4,3.4-2.2,5.5-2.6c2.9-0.6,4.8,0.4,6,3c0.7,1.6,0.9,3.3,1.4,4.9
	c1.6,5.1,3.9,9.8,6.6,14.2c2,3.3,4.2,6.3,6.6,9.2c2.6,3.3,5.6,6.4,8.7,9.4c3.5,3.3,7.3,6.4,11.2,9.3c2.3,1.7,4.8,3.3,7.3,4.8
	c2.8,1.7,5.9,3.1,8.9,4.5c19.2,8.8,44.8,10.7,54.5-16c0.8-4.6,0.6-9.1-2.3-12.9c-2.9-3.8-6.9-6.3-11.4-7.8c-0.5-0.2-1.3-0.4-1.6,0.3
	c-0.3,0.7,0.2,1.2,0.8,1.6c0.5,0.3,1,0.5,1.4,0.9c1.4,1.1,3,2.2,4.2,3.5c1.4,1.7,1.4,3.8,0,5.4c-1.1,1.2-2.4,2.1-4.2,2.4
	c-4.5,0.8-8.9,0.2-13.3-1.3c-4.2-1.4-8.3-3-12.3-4.8c-2.8-1.2-5.8-1.4-8.9-0.7c-2.6,0.6-5.1,1.9-7.7,2.4c-1.8,0.4-3.7,0.6-5.5,0.3
	c-2.2-0.4-3.8-1.7-5.3-3.3c-1.3-1.3-2.6-2.5-4.4-3.2c-0.5-0.2-0.8-0.2-1.4,0c-0.7,0.4-1.5,0.7-2.3,0.7c-0.8,0-1.1-0.2-1.1-1.1
	c0.1-0.5,0.2-1.1,0.1-1.7c-0.2-4,0.4-7.9,2.8-11.2c0.5-0.8,0.8-1.4,2.1-0.9c2.6,1.1,5.5,1.7,8.3,2.4c6.2,1.7,12.5,1.7,18.6-0.5
	c1.4-0.5,2.7-0.6,4.2-0.6c1.1,0.1,8.3,0.8,9.3-3.2c0.7-1.7,2.3-2.1,3.6-2.1c4,0,8,0.3,12,1.3c2.3,0.6,4.6,1.3,6.5,3
	c0.5,0.5,1.2,0.8,1.9,1.1c0.4,0.2,0.9,0.5,1.2,0.2c0.3-0.4-0.2-0.8-0.5-1.1c-0.7-0.7-1.3-1.3-2-2c-0.9-0.8-1.7-1.7-2.3-2.8
	c-1.2-2.3-0.5-3.9,2-4.5c0.6-0.2,1.2-0.2,1.7-0.2c3-0.1,5.8,0.8,8.5,2.1c3.6,1.7,6.9,4.2,9.8,7c3,3,5.5,6.1,7.7,9.7
	c3.8,6.1,6.3,12.6,8.1,19.4c2,7.6,3.4,15.3,3.9,23.1c0.5,8.1,0,16.2-1.8,24.1c-0.9,4.1-2.6,7.9-4.1,11.8c-0.7,1.7-1.4,3.5-1.6,5.7
	c0.4-0.5,0.5-0.6,0.7-0.8c1.4-1.6,2.3-3.5,3.2-5.4c2.8-5.8,4.5-11.9,6-18.1c1-4.1,1.7-8.2,2.1-12.3c0.3-3.6,0.3-7.2,0.8-10.8
	c0.2-1,1.1-1.7,2-1.4c2.1,0.5,4.2,0.8,5.6,2.7c0.1,0.1,0.3,0.1,0.4,0.1C1565-838,1564.3-842,1564-843.7z M1411.1-909
	c-0.1,1.1-0.8,2-1.6,2.7c-1,0.8-2,1.7-3.1,2.5c-3.5,2.4-6.5,5.3-9.6,8.1c-2.9,2.6-5.6,5.2-8.3,8c-3.6,3.6-6.6,7.7-9.5,11.9
	c-1.9,2.6-3.8,5.4-5.6,8.1c-2.3,3.4-4.3,7-6.2,10.7c-1,2-2.2,3.8-3.5,5.5s-2.6,1.8-4.3,0.5c-1.8-1.4-3.2-3.3-4.7-5.1
	c-3.6-4.1-7.6-7.6-12.3-10.4c-4.2-2.4-8.6-3.9-13.2-4.8c-0.2-0.2-5-1-7.1-1.4c-1.2-0.2-2.3-0.7-3.1-1.7c-0.3-0.4-0.2-0.6,0.1-1
	c1.8-2,4.1-3.4,6.2-5.1c2.4-1.9,4.9-3.7,7.3-5.5c2-1.4,4.2-2.4,6.3-3.6c3.6-2.1,7.4-3.6,11.1-5.3c3.9-1.9,8.1-3,12.1-4.7
	c4.6-2,9.5-3,14.2-4.7c6.2-2.1,12.6-3.3,18.9-4.9c4.2-1,8.3-1.6,12.6-1.7c0.7,0,1.4,0.2,2,0.2C1410.9-910.7,1411.1-910,1411.1-909z
	 M1413.3-918.1c-2.3,0.8-4.8,1.1-7.2,1.5c-4,0.8-8.1,1.4-12.1,2.3c-6.7,1.7-13.6,2.3-20.2,4.5c-4.6,1.5-9.4,2.8-13.9,4.8
	c-3.4,1.6-7,2.7-10.2,4.5c-3,1.7-6.2,3-9.2,4.8c-2.6,1.7-5.5,2.9-7.9,4.6c-2.5,1.7-5.3,3-7.7,4.8c-2.3,1.7-4.8,2.9-7.1,4.5
	c-2.5,1.8-5.2,3.3-7.7,5.1c-2.3,1.7-4.9,2.9-7.3,4.5c-3.2,2.3-6.6,3.9-10.3,5.1c-1.4,0.5-2.8,0.6-4.2,0.5c-0.8-0.1-1.3-0.5-1.7-1.1
	c-2.9-4.6-5.8-9.2-9.6-13.1c-0.8-0.9-1.7-1.9-2.6-2.7c-2.5-2.4-5.1-4.8-8.1-6.7c-0.5-0.3-0.9-0.8-1.4-1.1c-0.5-0.2-0.4-0.8-0.2-1.2
	c0.5-1.4,1.6-2.4,2.4-3.6c0.4-0.5,8.1-6.4,11.7-8.4c3.1-1.7,6.4-3,9.5-4.5c4.2-2,8.6-3.3,12.9-4.9c5.1-2,10.6-3.1,15.9-4.6
	c8.3-2.3,16.7-3.5,25.1-4.9c13.7-2.3,27.6-2.9,41.7-3c7.7,0.2,15.7,0.4,23.7,1.2c2,0.2,4.1,0.6,6.1,1.1c0.8,0.2,1.5,0.7,2.3,1.1
	c0.5,0.2,0.3,0.5,0.3,0.8C1416.4-920.4,1414.8-918.5,1413.3-918.1z M1416.5-930.9c-5.1,0.5-10.2,0.9-15.4,0.4
	c-8-0.8-16.1-0.5-24.1-0.2c-6.6,0.3-13.2,0.5-19.8,0.8c-4.5,0.2-32,4.4-40,6.3c-5.9,1.4-12,2.5-17.7,4.5c-2.5,0.8-5,1.4-7.6,1.3
	c-1.1-0.1-2-0.3-2.6-1.3c-0.4-0.6-0.3-1.2-0.3-1.8c0.2-4.6,0.8-9.2,0.7-13.8c-0.2-5.4-1.1-10.5-4.1-15.1c-0.7-1.1-1.2-2.3-1.7-3.5
	c-0.8-2-0.2-3.4,1.7-4.2c3.2-1.4,6.5-2.1,9.8-3.1c8.3-2.3,16.7-2.9,25.1-3.2c10.1-0.4,20.1,0.3,30.1,1.6c2.3,0.3,21.3,3.7,27.9,5.7
	c4.5,1.4,9.2,2.6,13.5,4.5c3.3,1.4,6.7,2.9,9.8,4.8c2,1.3,4.1,2.3,6.1,3.8c2.5,1.7,5.1,3.3,7.6,5.1c1.7,1.2,3,2.7,3.3,4.8
	C1418.9-931.9,1418.3-931.1,1416.5-930.9z M1482.1-886.2c-0.3,0-0.6,0-0.9,0.1c-0.3,0-0.6,0-0.9-0.1c-0.9-0.2-2.1-0.2-2.5-1
	c-0.3-0.6,0.9-1.1,1.4-1.7c1.4-2,3.3-3.3,5.6-4.2c0.5-0.2,0.8-0.3,1.3-0.4c0.9-0.1,1.4,0.4,1.5,1.3
	C1487.7-889,1485.5-886.5,1482.1-886.2z"/>
<text transform="matrix(1 0 0 1 1265.9637 -667.0157)" class="st1" style="font-family:'MajorSnafu'; font-size:150px;">MSC</text>
<polygon class="st3" points="1549,-635.7 1410.2,-596.6 1410.2,-1000.1 1581,-1000.1 "/>
<g>
	<g>
		<g>
			<path class="st1" d="M146.7,254.9l22.4,75.2l-9.5,37.9l-28.5-110.8L146.7,254.9z M146.8,390l-15.7-5.1V274.1l15.7,65V390z
				 M194.9,247.9v157.8l-21-7.1v-76.3l-10.6-37.3l10.5-34.1L194.9,247.9z"/>
			<path class="st1" d="M253,353.8l-34.7-36.1c-6.7-7-10-17.2-10-30.7v-20.6c0-13.8,4.1-21.2,12.7-22.5l31.7-4.6v46.4l-18.2,0.4
				l18.5,16.9 M208.3,389.5v-41.2l26,3.9v22.2l18.6,3.9v46.3l-32-10.5C212.3,411.4,208.3,403.2,208.3,389.5z M300.6,232.4"/>
		</g>
	</g>
	<g>
		<g>
			<path class="st1" d="M255.6,305.3l37.6,34.5c7.5,5.9,11.1,15.6,11,29.4v20.7c0,13.5-4.4,21.6-13.5,24.4l-35.2,10.6v-46.3
				l20.4-3.9l-20.3-18 M304.4,266.2l0.1,41.3l-28.5,1v-22.4l-20.3-0.5v-46.4l34.9,4.7C299.8,245.1,304.4,252.5,304.4,266.2z"/>
			<path class="st1" d="M341.9,398.9c-15,4.5-23.1-6.2-23.1-32.4v-79.4c0-26.2,8-38.3,22.9-36.3l12.7,1.7v35.5l-12.7-0.4l-0.1,74.4
				l12.8-2.5v35.6L341.9,398.9z M371.4,254.7l-11.8-1.6v35.1l11.8,0.3v8.4l17-0.1l-0.1-8C388.3,267.6,382.9,256.2,371.4,254.7z
				 M388.3,353.4l0.1-8.6l-17,2.7v9l-11.8,2.3v35l11.8-3.5C382.9,386.7,388.3,374.5,388.3,353.4z"/>
		</g>
	</g>
</g>
<g>
	<path d="M1082-241.9l50.1-160l35.2,118.5h-25.3l-13,41.5H1082z M1198.9-241.9L1140-429.4h46.9l58.9,187.5H1198.9z"/>
	<path d="M1260.7-288.3l-0.1-24.3l46.9-0.1v24.2h29.6v46.7h-29.6C1276.3-241.9,1260.7-257.3,1260.7-288.3z M1377.8-242
		c31.3,0,47-15.5,47-46.6v-140.6H1378l0.1,140.5h-28.9v46.7H1377.8z"/>
</g>
<g>
	<path d="M1123.5-173.4l58.9,100.9l-23.9,51.7l-81.9-152.6H1123.5z M1123.8,14.1h-47.2v-162.6l47.2,92V14.1z M1240.4-173.4V14.1
		l-46.6-0.3v-96.7l-26.1-47.8l25.8-42.8H1240.4z"/>
	<path d="M1354.8-32.9h29.7l-98.7-59.2c-12.5-7.5-18.7-19-18.6-34.4v-23.6c0-15.7,7.9-23.6,23.6-23.6h52.1v47l-28.9-0.1l98,59
		c12.8,7.6,19.1,19.2,18.9,34.9v23.6c0,15.4-7.7,23.1-23,23.1h-53.2V-32.9z M1267.2-9.3v-47h46.6v23.6h29.4v46.9h-52.7
		C1275,14.1,1267.2,6.3,1267.2-9.3z M1431.3-150.1l0.1,47l-46.9,0.1v-23.7H1355v-46.9h52.6C1423.4-173.5,1431.3-165.7,1431.3-150.1z
		"/>
	<path d="M1504.8,14c-31.3,0-47-15.5-47-46.6v-94c0-31.1,15.6-46.6,46.7-46.6h28.7v46.6l-28.7-0.1l-0.1,94h28.9V14H1504.8z
		 M1575.1-173.5h-29.6v46.9h29.6v11.6l46.9-0.1l-0.1-11.7C1621.9-158,1606.3-173.5,1575.1-173.5z M1621.9-32.3l0.1-12.6l-46.9-0.1
		v12.5h-29.6v46.7h29.6C1606.3,14.1,1621.9-1.3,1621.9-32.3z"/>
</g>
<g>
	<path d="M1113.5,130.6l58.9,100.9l-23.9,51.7l-81.9-152.6H1113.5z M1113.8,318.1h-47.2V155.5l47.2,92V318.1z M1230.4,130.6v187.5
		l-46.6-0.3v-96.7l-26.1-47.8l25.8-42.8H1230.4z"/>
	<path d="M1242.6,318.1l50.1-160l35.2,118.5h-25.3l-13,41.5H1242.6z M1359.5,318.1l-58.9-187.5h46.9l58.9,187.5H1359.5z"/>
	<path d="M1453.8,130.6l58.9,187.5h-46.9l-58.9-187.5H1453.8z M1570.7,130.6l-50.4,160l-22.7-76.9l26.2-83.1H1570.7z"/>
	<path d="M1571,318.1l50.1-160l35.2,118.5h-25.3l-13,41.5H1571z M1687.9,318.1L1629,130.6h46.9l58.9,187.5H1687.9z"/>
	<path d="M1749.7,271.7l-0.1-24.3l46.9-0.1v24.2h29.6v46.7h-29.6C1765.3,318.1,1749.7,302.7,1749.7,271.7z M1866.7,318
		c31.3,0,47-15.5,47-46.6V130.8H1867l0.1,140.5h-28.9V318H1866.7z"/>
	<path d="M2144.8,271.1h29.7l-98.7-59.2c-12.5-7.5-18.7-19-18.6-34.4v-23.6c0-15.7,7.9-23.6,23.6-23.6h52.1v47l-28.9-0.1l98,59
		c12.8,7.6,19.1,19.2,18.9,34.9v23.6c0,15.4-7.7,23.1-23,23.1h-53.2V271.1z M2057.2,294.7v-47h46.6v23.6h29.4v46.9h-52.7
		C2064.9,318.1,2057.2,310.3,2057.2,294.7z M2221.2,153.9l0.1,47l-46.9,0.1v-23.7h-29.6v-46.9h52.6
		C2213.3,130.5,2221.2,138.3,2221.2,153.9z"/>
	<path d="M2294.8,318c-31.3,0-47-15.5-47-46.6V130.8h46.7l-0.1,140.5h28.9V318H2294.8z M2411.8,271.7l0.1-141.4h-46.9v141.1h-29.6
		v46.7h29.6C2396.2,318.1,2411.8,302.7,2411.8,271.7z"/>
	<path d="M2485.3,130.6l117,164.4l0.1,23.1h-46.9l-117.3-164.4l0.1-23.1H2485.3z M2485.5,318.1h-47V177.5l47,65.9V318.1z
		 M2555.2,130.4h47v140.8l-47-65.9V130.4z"/>
	<path d="M2793,318c-31.3,0-47-15.5-47-46.6v-94c0-31.1,15.6-46.6,46.7-46.6h28.7v46.6l-28.7-0.1l-0.1,94h28.9V318H2793z
		 M2863.3,130.5h-29.6v46.9h29.6v11.6l46.9-0.1l-0.1-11.7C2910,146,2894.4,130.5,2863.3,130.5z M2910,271.7l0.1-12.6l-46.9-0.1v12.5
		h-29.6v46.7h29.6C2894.4,318.1,2910,302.7,2910,271.7z"/>
	<path d="M2983.5,318c-31.3,0-47-15.5-47-46.6v-94c0-31.1,15.6-46.6,46.7-46.6h28.7v46.6l-28.7-0.1l-0.1,94h28.9V318H2983.5z
		 M3100.6,271.7v-94.6c0-31.1-15.6-46.6-46.7-46.6h-29.6v46.9h29.6v94h-29.6v46.7h29.6C3085,318.1,3100.6,302.7,3100.6,271.7z"/>
</g>
</svg>
