<?xml version="1.0" encoding="utf-8"?>
<!-- Generator: Adobe Illustrator 22.0.1, SVG Export Plug-In . SVG Version: 6.00 Build 0)  -->
<svg version="1.1" id="Layer_1" xmlns="http://www.w3.org/2000/svg" xmlns:xlink="http://www.w3.org/1999/xlink" x="0px" y="0px"
	 viewBox="0 0 250 150" style="enable-background:new 0 0 250 150;" xml:space="preserve">
<style type="text/css">
	.st0{fill:#00AFF0;}
</style>
<path class="st0" d="M246.1,103.6c-0.4-2.8-1.4-5.4-2.9-7.9c-0.9-1.6-2-3-3.1-4.5c-0.8-1.2-1.7-2.4-2.5-3.7
	c-0.2-0.3-0.3-0.6-0.3-0.9c-0.1-0.7,0.2-1,0.9-0.9c0.9,0.2,1.9,0.5,2.6,1.4c0.3,0.4,0.7,0.7,1.3,0.9c-0.1-0.3-0.1-0.6-0.1-0.9
	c-0.4-2.8-1.4-5.5-3.2-7.7c-1-1.4-2.6-2.2-4-3.2c-2-1.4-4.2-2.6-5.9-4.3c-0.6-0.6-1.3-1.3-1.6-2.1c-0.3-0.7-0.8-1.6-0.4-2.2
	c0.5-0.7,1.6-0.5,2.5-0.4c0.7,0.1,1.5,0.2,2.1,0.3c0.1-0.1,0.1-0.2,0.2-0.3c-0.2-0.1-0.3-0.2-0.5-0.3s-0.3-0.3-0.4-0.4
	c-1.9-2.2-4.1-4-6.9-4.8c-4.4-1.2-8.9-1.4-13.4-1c-7.3,0.4-22.1,2.4-22.2,2.5c-1.6,0.2-3,0.5-4.4,1.2c-0.8,0.4-1.5,1-1.8,2
	c-0.9,2.5-2.6,4.3-5.1,5.2c-3,1.2-6.1,1.4-9.2,0.6c-1.3-0.3-2.5-0.8-3.6-1.6c-1.4-0.8-2.2-0.7-3.1,0.5c-0.4,0.6-0.8,1.2-1.2,1.9
	c-1.6,3.2-2.5,6.7-2.7,10.4c-0.1,1.7,0,3.2,0.5,4.9c0.1,0.2,0,0.6,0.5,0.4c1.4-0.6,2.8-0.9,4.1-1.8c1.2-0.7,2.3-0.7,3.1,0
	c0.8,0.8,1.7,1.7,2.7,2.4c1.4,0.9,2.8,1.7,4.5,1.2c1-0.3,2.1-0.8,3.2-1.2c1.8-0.6,3.7-1,5.7-0.7c2.2,0.3,4.2,1,6.2,2
	c6,2.9,12.1,3.9,18.7,2.2c1.2-0.3,2.3-0.6,3.6-0.2c1.2,0.3,1.6,1,1.2,2.2c-0.6,2.1-1.6,4.2-2.7,6.1c-2,3.1-4.8,5.3-8.3,6.8
	c-2.5,1-5.1,1.5-7.7,1.5c-4.1,0-8-0.5-11.7-2c-2.8-1-5.8-2-8.4-3.6c-1.8-1-3.8-2.1-5.4-3.2c-2.9-2.1-5.8-4.3-8.3-6.8
	c-2.2-2.1-4.2-4.4-6-6.9c-1.6-2.1-2.9-4.4-4.2-6.7c-2.5-4.7-4.1-9.8-4.3-15.2c-0.2-4,0.1-8,1.9-11.6c1.2-2.4,3.3-3,5.5-1.6
	c0.6,0.4,1.2,0.7,1.9,0.9s1-0.1,1.3-0.7c0.4-1.2,0.4-2.4,0.2-3.6c-0.6-3.6-2.5-6.6-4.9-9.2c-2.2-2.5-4.8-4.7-7.4-6.8
	c-1.5-1.2-3-2.2-4.5-3.2c-22-15.7-54.8-16.2-62.2-16.4c-5.8-0.2-11.4,0.1-17.1,1c-2.9,0.6-17,3.7-21.1,5.4c-3.9,1.6-7.7,3-11.4,5.1
	c-0.6,0.3-1.2,0.6-1.7,1c-0.6,0.5-1.3,1-1.7,1.9c0.3-0.1,0.5-0.1,0.7-0.1c2.3-0.6,4.6-0.8,6.9-1.6c1.6-0.5,3.1-0.7,4.6-0.9
	c2.6-0.3,4.8,0.2,6.4,2.6c1.8,3,2.8,6.3,3.1,9.7c0.3,3-0.1,6.1-0.8,9.1c-1.2,4.4-3,8.4-6.8,11.2c-1.5,1-2.9,1.9-4.3,2.9
	c-1.6,1.2-3.1,2.1-4.7,3.2c-1.7,1.3-3.5,2.5-5.3,3.5c-2.7,1.5-5.5,2.9-8.4,4.4S8.7,74.2,6,76.1c-0.8,0.5-1.6,1.3-2.2,2
	c-0.4,0.4-0.7,0.9-0.7,1.7c3.9-1.2,7.6-2,11.3-3.3c2.6-0.9,5.1-1.9,7.9-2.1c4.3-0.3,8.4,0,11.9,2.6c2.4,1.8,4.1,4.1,4.7,7
	c0.5,2.3,0.1,4.7-0.6,7c-0.9,3-2.6,5.8-4.4,8.4c-0.9,1.4-1.9,2.6-2.6,4c-0.6,1.2-1.4,2.3-1.5,3.9c1.6-0.9,3.1-1.2,4.6-2.9
	c0.1-0.1,2.1-2.9,3.1-4.1c2.1-2.6,4.6-4.8,7.2-6.8c1.7-1.4,3.7-2.3,5.5-3.3c2.9-1.7,6.2-2.6,9.4-3.2c5.8-1.2,11.5-1.2,17.3,0.3
	c3.5,0.9,6.8,2,9.8,4.1c1.4,0.9,2.6,1.8,3.9,2.9c2.8,2.6,5,5.7,6.7,9c0.4,0.8,0.7,1.7,0.8,2.5c0.4,2.8,0.7,5.7,1.2,8.5
	c0.1,0.6,0.1,1.4,0.5,1.9c0.2,0.3,0.4,0.4,0.7,0.1c1.4-1.2,2.7-2.2,3.8-3.6c1.7-2,3.6-3.8,5.7-5.3c1.9-1.5,4-2.5,6-3.6
	c2.7-1.5,5.7-2.1,8.6-3c1.8-0.6,3.6-0.8,5.4-1.2c2.8-0.4,5.5-0.3,8.4-0.2c0.9,0.1,1.9,0.2,3,0c-1.6-0.8-3.2-1.4-4.8-1.8
	c-1.3-0.4-3.3-0.7-4.6-0.8c-3-0.1-5.9,0.2-8.9,0.9c-2.6,0.6-4.9,1.7-7.1,3c-1.8,1-3.7,2.1-5.7,2.8c-0.8,0.3-1.7,0.5-2.6,0.3
	c-0.4-0.1-0.6-0.2-0.6-0.7c0-0.9-0.1-1.9,0.1-2.8c0.9-5.3,3.1-10.3,6.4-14.7c1.5-1.9,2.8-3.9,4.2-5.7c1.8-2.3,3.6-4.7,5.4-6.9
	c1.7-2,3.5-4,5.7-5.4c0.3-0.3,0.7-0.5,1-0.7c1-1,2.5-1.6,4-1.9c2.1-0.4,3.5,0.3,4.3,2.2c0.5,1.2,0.6,2.4,1,3.6
	c1.2,3.7,2.8,7,4.7,10.3c1.5,2.3,3,4.5,4.7,6.7c1.9,2.4,4.1,4.6,6.3,6.8c2.5,2.4,5.2,4.6,8.1,6.7c1.7,1.2,3.5,2.3,5.2,3.5
	c2,1.3,4.3,2.2,6.5,3.2c13.8,6.4,32.3,7.7,39.4-11.6c0.6-3.3,0.4-6.6-1.7-9.3c-2.1-2.7-5-4.5-8.3-5.7c-0.4-0.1-0.9-0.3-1.2,0.2
	c-0.2,0.5,0.1,0.8,0.5,1.2c0.3,0.2,0.7,0.4,1,0.6c1,0.8,2.1,1.6,3,2.5c1,1.2,1,2.7,0,3.9c-0.8,0.8-1.8,1.6-3,1.8
	c-3.2,0.6-6.5,0.2-9.6-0.9c-3-1-6-2.2-8.9-3.5c-2-0.8-4.2-0.9-6.5-0.5c-1.9,0.4-3.7,1.4-5.5,1.8c-1.4,0.3-2.7,0.4-4,0.2
	c-1.6-0.3-2.7-1.3-3.9-2.3c-0.9-0.9-1.9-1.8-3.1-2.3c-0.3-0.2-0.6-0.2-0.9,0c-0.5,0.3-1,0.5-1.7,0.5c-0.5,0-0.8-0.2-0.7-0.7
	c0.1-0.4,0.1-0.7,0.1-1.2c-0.1-2.9,0.3-5.7,2-8.1c0.4-0.5,0.5-1,1.6-0.6c1.9,0.7,4,1.2,6,1.8c4.5,1.2,9,1.3,13.5-0.3
	c0.9-0.4,2-0.4,3-0.4c0.8,0.1,6,0.6,6.7-2.3c0.5-1.3,1.7-1.6,2.6-1.6c2.9,0,5.8,0.2,8.7,0.9c1.7,0.4,3.3,0.9,4.7,2.1
	c0.4,0.4,0.8,0.6,1.4,0.8c0.3,0.2,0.6,0.4,0.8,0.1s-0.1-0.6-0.3-0.8c-0.5-0.5-0.9-0.9-1.5-1.5s-1.3-1.3-1.7-2
	c-0.8-1.7-0.3-2.8,1.5-3.2c0.4-0.1,0.8-0.1,1.3-0.1c2.2-0.1,4.2,0.6,6.2,1.6c2.6,1.3,5,3,7,5.1c2.1,2.1,4,4.4,5.5,7
	c2.7,4.4,4.5,9.1,5.9,14c1.5,5.4,2.5,11.1,2.8,16.6c0.4,5.9,0,11.7-1.4,17.5c-0.6,2.9-1.9,5.7-2.9,8.6c-0.5,1.3-0.9,2.5-1.2,4.1
	c0.3-0.3,0.4-0.4,0.5-0.6c0.9-1.2,1.7-2.5,2.3-3.9c2-4.2,3.2-8.6,4.3-13.1c0.7-2.9,1.3-5.9,1.6-8.9c0.2-2.6,0.2-5.2,0.5-7.9
	c0.1-0.7,0.7-1.2,1.5-1c1.6,0.3,3,0.5,4.1,2c0.1,0.1,0.2,0.1,0.3,0.1C246.8,107.7,246.3,104.8,246.1,103.6z M135.6,56.4
	c-0.1,0.8-0.5,1.5-1.2,2c-0.7,0.6-1.5,1.3-2.2,1.8c-2.5,1.8-4.7,3.9-6.9,5.9c-2.1,1.9-4.1,3.8-6,5.8c-2.6,2.6-4.7,5.5-6.9,8.6
	c-1.4,1.9-2.7,3.9-4.1,5.9c-1.7,2.5-3.1,5-4.5,7.7c-0.7,1.5-1.6,2.7-2.5,4s-1.9,1.4-3.1,0.3c-1.4-1-2.3-2.4-3.3-3.7
	c-2.6-2.9-5.4-5.4-8.9-7.5c-3-1.8-6.2-2.8-9.5-3.5c-0.2-0.1-3.6-0.7-5.1-0.9c-0.8-0.2-1.7-0.5-2.2-1.3c-0.2-0.3-0.2-0.4,0.1-0.7
	c1.4-1.5,2.9-2.5,4.5-3.7c1.8-1.4,3.6-2.7,5.3-4c1.5-1,3-1.8,4.5-2.6c2.6-1.6,5.3-2.6,8.1-3.9c2.8-1.4,5.9-2.2,8.8-3.3
	c3.3-1.5,6.9-2.2,10.3-3.3c4.5-1.6,9.1-2.4,13.7-3.6c3-0.7,6-1.2,9.1-1.3c0.5,0,0.9,0.1,1.5,0.1C135.5,55.1,135.6,55.6,135.6,56.4z
	 M137.1,49.8c-1.7,0.5-3.5,0.7-5.2,1c-2.9,0.6-5.9,0.9-8.8,1.7c-4.9,1.2-9.8,1.7-14.7,3.2c-3.3,1-6.8,2-10,3.5c-2.5,1.2-5,2-7.4,3.2
	c-2.2,1.2-4.5,2.1-6.6,3.5c-1.9,1.2-4,2.1-5.8,3.3c-1.8,1.3-3.9,2.2-5.5,3.5c-1.7,1.2-3.5,2.1-5.1,3.2c-1.8,1.4-3.8,2.3-5.5,3.7
	c-1.7,1.3-3.6,2.1-5.2,3.2c-2.3,1.7-4.7,2.8-7.4,3.7c-1,0.3-2,0.4-3,0.3c-0.5-0.1-0.9-0.4-1.2-0.8c-2.1-3.3-4.2-6.6-6.9-9.4
	c-0.6-0.6-1.2-1.4-1.9-2c-1.8-1.8-3.7-3.5-5.9-4.8c-0.4-0.2-0.6-0.6-1-0.8s-0.3-0.5-0.2-0.8c0.3-1,1.2-1.8,1.8-2.6
	c0.3-0.4,5.9-4.6,8.5-6.1c2.2-1.3,4.6-2.1,6.9-3.2c3-1.5,6.2-2.3,9.3-3.6c3.8-1.5,7.6-2.2,11.5-3.3c6-1.7,12-2.5,18.1-3.6
	c9.9-1.7,19.9-2.1,30.1-2.1c5.5,0.2,11.4,0.3,17.2,0.8c1.5,0.2,2.9,0.4,4.4,0.8c0.5,0.2,1,0.5,1.7,0.7c0.3,0.1,0.2,0.4,0.2,0.6
	C139.3,48.2,138.2,49.5,137.1,49.8z M139.5,40.6c-3.8,0.4-7.4,0.6-11.1,0.3c-5.8-0.6-11.6-0.4-17.5-0.1c-4.7,0.2-9.5,0.3-14.2,0.5
	c-3.2,0.2-23.1,3.1-28.9,4.5c-4.3,1-8.7,1.8-12.8,3.2c-1.8,0.6-3.6,1-5.4,0.9c-0.7-0.1-1.5-0.2-1.9-0.9c-0.3-0.4-0.2-0.8-0.2-1.4
	c0.1-3.3,0.5-6.6,0.5-9.9c-0.1-3.9-0.8-7.6-2.9-11c-0.5-0.8-0.8-1.7-1.2-2.5c-0.5-1.5-0.2-2.5,1.3-3c2.3-0.9,4.7-1.6,7-2.2
	c6-1.7,12-2.1,18.2-2.3c7.3-0.3,14.5,0.2,21.8,1.2c1.7,0.2,15.4,2.7,20.2,4.1c3.2,0.9,6.6,1.9,9.7,3.2c2.4,1,4.8,2.1,7,3.5
	c1.5,0.9,2.9,1.7,4.4,2.7c1.8,1.3,3.8,2.4,5.4,3.7c1.2,0.8,2.1,2,2.3,3.5C141.2,39.8,140.8,40.5,139.5,40.6z M186.9,72.9
	c-0.2,0-0.4,0-0.6,0.1c-0.2,0-0.4,0-0.6-0.1c-0.6-0.1-1.6-0.2-1.8-0.7c-0.2-0.4,0.6-0.8,0.9-1.2c1-1.5,2.4-2.4,4.1-3
	c0.3-0.1,0.6-0.2,0.9-0.3c0.6-0.1,1,0.3,1,0.9C190.9,70.8,189.4,72.6,186.9,72.9z"/>
</svg>
