<?xml version="1.0" encoding="utf-8"?>
<!-- Generator: Adobe Illustrator 22.0.1, SVG Export Plug-In . SVG Version: 6.00 Build 0)  -->
<svg version="1.1" id="Layer_1" xmlns="http://www.w3.org/2000/svg" xmlns:xlink="http://www.w3.org/1999/xlink" x="0px" y="0px"
	 viewBox="0 0 1920 1080" style="enable-background:new 0 0 1920 1080;" xml:space="preserve">
<style type="text/css">
	.st0{fill:#00AFF0;}
	.st1{fill:#4D4D4D;}
	.st2{font-family:'SinhalaMN';}
	.st3{font-size:170px;}
</style>
<path class="st0" d="M1788.1,742.1c-2.8-20.1-9.8-38.5-20.9-55.4c-7.1-10.8-14.4-21.3-22.3-31.6c-6.3-8.3-11.9-17.1-17.7-25.8
	c-1.4-2.1-2.2-4.4-2.4-6.9c-0.3-5.5,1.5-7.7,6.9-6.8c7,1.2,13.3,3.7,18.2,9.4c2.3,2.7,5,5.5,8.7,7c-0.3-2.4-0.5-4.5-0.8-6.5
	c-3.2-20.2-9.8-38.9-22.9-54.9c-7.8-9.5-18.3-15.9-28.2-22.6c-14.3-9.7-29.2-18.3-41.5-30.6c-4.4-4.4-8.9-8.7-11.3-14.8
	c-2-5.1-6.2-10.9-2.7-15.4c3.9-5.1,11.2-3.5,17.2-2.8c5,0.6,9.9,1.5,14.8,2.3c0.4-0.6,0.9-1.2,1.3-1.9c-1.2-0.6-2.5-1.1-3.6-1.9
	c-1.1-0.8-1.9-1.8-2.8-2.8c-13.3-15.6-28.4-28.3-48.9-34c-30.9-8.5-62.4-9.2-94-7.6c-51.3,2.6-155.6,17-156.8,17.8
	c-10.7,1.6-21.3,3.8-31.2,8.4c-6.3,2.9-10.2,7.7-12.7,13.9c-6.9,17.4-18.7,30-36.2,37c-21.1,8.3-42.9,9.1-65.2,4.5
	c-9-1.9-17.4-5.8-25.1-10.8c-9.5-6.1-15.3-5-21.9,3.6c-3.1,4.1-6,8.4-8.2,13c-11,23-17.5,47.3-19.3,72.8
	c-0.8,11.6-0.1,23.2,3.4,34.4c0.4,1.3,0.1,4.6,3.3,3.2c9.5-4.1,19.8-6.4,28.5-12.2c8.2-5.4,16.5-5.5,22-0.1
	c6.1,5.9,12.1,12.1,18.9,17.1c9.3,6.9,19.7,11.8,31.6,8.4c7.7-2.2,15-5.8,22.6-8.5c12.8-4.6,26-7.1,39.7-5.3
	c15.3,2.1,29.3,7.5,43.2,14.3c41.9,20.8,85.8,27.3,131.8,16c8.2-2,16.7-4.1,25.4-1.5c8.2,2.4,10.8,7.2,8.5,15.3
	c-4.4,15.2-10.7,29.6-19.3,42.9c-14.2,22-34.1,37.8-58.1,47.9c-17.3,7.3-35.9,10-54.6,10.1c-28.4,0.1-56.1-3.6-83-13.8
	c-20.1-7.6-40.6-14.2-59.2-25.5c-12.9-7.8-26.3-14.6-38.8-23.3c-20.8-14.6-40.5-30.4-58.6-48.2c-15.5-15.2-29.7-31.3-42.5-48.8
	c-11-15-20.8-30.7-29.3-47.2c-17.5-33.7-28.4-69.2-30.1-107.1c-1.3-28.1,0.6-55.8,13.1-81.8c8.2-17,23.6-21.8,39.2-11.4
	c4.3,2.8,8.6,5.4,13.6,6.9c5.3,1.6,7.5-0.3,9.1-5.1c2.7-8.4,3-16.8,1.6-25.4c-4.3-25.4-17.4-46.3-34.2-65
	c-15.8-17.6-33.8-33-52-48.2c-10.2-8.5-21.4-15.6-32.2-23.2c-13.4-9.4-27.9-17.3-42.3-25.3c-18.1-10-38-15.7-57.3-22.7
	c-25.4-9.3-51.9-15.2-77.7-23.3c-32.7-10.3-66.5-16.6-100-23.8c-51.8-11.1-104.3-16.9-157.3-18.2c-40.4-1-80.6,0.7-120.5,7.6
	c-20.5,3.6-120.3,25.9-148.9,37.6c-27.1,11.1-54.4,21.6-80.1,35.8c-4.1,2.3-8.4,4.6-12,7.6c-4.4,3.6-8.8,7.4-11.9,13.3
	c2.4-0.3,3.9-0.2,5.3-0.6c16.1-4.1,32.7-5.9,48.6-10.9c10.6-3.3,21.8-5.3,32.9-6.7c18.1-2.2,34,1.1,44.6,18.6
	c12.9,21.2,20.2,44,22.2,68.6c1.7,21.6-0.5,42.9-5.8,63.9c-8,31.1-21.3,58.9-48,78.8c-9.9,7.4-20.7,13.1-30.6,20.4
	c-10.8,8-22.4,14.9-33.2,23.1c-12,9-24.4,17.4-37.6,24.5c-19.5,10.5-39.2,20.6-58.9,30.7c-20.6,10.6-39.9,23.1-59.2,35.8
	c-5.9,3.9-11.3,8.8-15.9,14.4c-2.5,3.2-5.1,6.4-5.2,11.5c26.9-8.2,53.8-14.3,79.8-23.7c17.9-6.5,36.1-13.3,55.5-14.6
	c29.9-2,59.2-0.1,84.6,18.7c17,12.5,29,28.4,33.2,49.3c3.4,16.8,0.9,33.4-4.1,49.5c-6.8,21.6-18.4,40.6-31.4,58.9
	c-6.5,9.1-12.9,18.3-18.4,28c-4.7,8.2-9.5,16.6-10.6,27.2c11.2-7.1,22-8.6,32.4-20.6c0.6-0.7,15-20.3,21.9-28.8
	c14.8-18.3,32.4-33.9,50.9-48.3c12.1-9.4,25.8-16.4,39.1-23.8c20.6-11.5,43.4-18.1,66.2-22.8c40.5-8.4,81.3-8.3,121.7,2.4
	c24.4,6.5,48.3,13.9,69.4,28.5c9.3,6.5,18.5,12.8,27,20.5c20,18.1,35,39.8,47,63.7c2.8,5.6,5,11.6,5.9,17.7
	c3,19.9,5.5,39.9,8.2,59.9c0.6,4.5,0.9,9.1,3.5,13.1c1.5,2.3,2.9,2.9,5.4,0.8c9.3-8,18.8-16,26.6-25.4c11.8-14.2,25.2-26.6,39.6-38
	c13-10.2,27.7-17.6,42.2-25.4c18.9-10.1,39.9-15,60-21.8c12.4-4.1,25.5-5.9,38.4-8c19.7-3.3,39.4-1.9,59.2-1
	c6.8,0.3,13.7,1.3,21.5-0.1c-11.2-6-22.7-9.4-34-12.7c-8.9-2.6-23.7-5.4-32.9-5.8c-21.3-1-41.8,1.7-62.5,6.6
	c-18.2,4.3-34.5,11.8-50,21.3c-12.8,7.8-25.9,14.7-39.9,19.9c-5.9,2.2-12,3.6-18.5,2.4c-2.8-0.5-4.2-1.7-4.2-4.8
	c0.1-6.7-0.3-13.3,0.9-19.9c6.7-37.9,21.9-72,44.6-102.9c9.8-13.4,19.6-26.9,29.7-40.1c12.7-16.5,25.2-33.2,38.7-49
	c12.1-14.1,24.8-27.7,39.9-38.7c2.5-1.8,5.1-3.3,7.3-5.4c7.8-7.4,17.4-11.2,27.6-13.5c14.5-3.3,24.3,1.9,30.3,15.4
	c3.5,8,4.6,16.8,7.2,25.1c8,25.7,19.8,49.6,33.7,72.5c10,16.5,21.4,32.1,33.5,47.2c13.6,17,28.5,32.9,44.3,47.9
	c17.9,17.1,37,32.9,57.1,47.5c11.9,8.7,24.5,16.4,36.9,24.2c14.4,9,30,15.9,45.4,23.1C1381,815,1512,825,1561.1,688.2
	c4.2-23.6,3.2-46.3-11.6-65.8c-14.8-19.5-35.1-31.9-58.3-39.6c-2.7-0.9-6.4-2-8.1,1.5c-1.7,3.6,1,6.1,3.8,8c2.3,1.6,5,2.9,7.2,4.6
	c7.2,5.8,14.9,11,21.1,17.9c7.4,8.3,7.5,19.2-0.1,27.2c-5.8,6.1-12.5,10.7-21.1,12.2c-23.3,4.2-45.7,1-68-6.7
	c-21.3-7.3-42.1-15.5-62.8-24.6c-14.3-6.3-29.7-6.9-45.3-3.5c-13.5,3-25.7,9.7-39.3,12.4c-9.4,1.9-18.7,3.1-28.3,1.5
	c-11.3-1.9-19.3-8.9-26.9-16.7c-6.5-6.7-13.4-12.8-22.3-16.3c-2.4-1-4.4-1.2-6.8,0.1c-3.6,2-7.6,3.4-11.8,3.4
	c-3.7,0.1-5.7-1.3-5.2-5.5c0.3-2.8,0.6-5.5,0.5-8.3c-0.9-20.5,1.8-40,14.1-57.1c2.8-3.9,3.9-7.3,10.9-4.6c13.6,5.3,28,8.3,42.1,12.2
	c31.8,8.6,63.6,9,94.8-2.1c7.1-2.5,13.9-3.2,21.1-2.9c5.9,0.2,42.4,4.4,47.5-16.3c3.7-8.8,11.4-10.7,18.2-10.7
	c20.5,0.1,41.1,1.6,61.1,6.6c11.9,3,23.7,6.4,33.1,15.1c2.7,2.5,6.3,4.2,9.6,6c1.9,1,4.7,2.7,6.3,0.6c1.6-2.1-0.8-4.2-2.4-5.8
	c-3.3-3.3-6.6-6.6-10-9.9c-4.6-4.3-9-8.8-12-14.4c-6.3-11.5-2.5-20,10.1-23.3c3-0.8,6-0.9,9-0.9c15.4-0.2,29.7,4.2,43.3,10.9
	c18.6,9.1,35,21.3,49.7,35.9c15,14.9,28,31.3,39.2,49.2c19.1,30.7,32,63.8,41.3,98.6c10.3,38.7,17.4,77.8,20.2,117.7
	c2.8,41.4,0.2,82.4-9.1,122.9c-4.8,20.8-13.4,40.2-20.9,60.1c-3.4,8.9-6.8,17.9-8.1,29c1.9-2.2,2.8-3.1,3.6-4.1
	c6.8-8.3,11.7-17.7,16.4-27.2c14.3-29.3,23.3-60.4,30.6-92.1c4.8-20.7,9-41.6,10.7-62.9c1.5-18.3,1.4-36.8,4-55
	c0.7-5.1,5.4-8.4,10.5-7.3c10.7,2.4,21.7,4,28.7,14c0.3,0.4,1.4,0.4,2.1,0.5C1793.5,771.1,1789.3,750.5,1788.1,742.1z M1008.6,408.9
	c-0.5,5.9-3.7,10.3-8,14c-5.1,4.4-10.3,8.9-15.8,12.8c-17.6,12.3-33.2,27.1-49.1,41.3c-14.6,13.1-28.7,26.8-42.5,40.8
	c-18.2,18.5-33.7,39.3-48.8,60.4c-9.7,13.6-19.1,27.4-28.5,41.2c-11.8,17.4-22.2,35.6-31.5,54.4c-4.9,10-11.2,19.4-17.8,28.3
	c-6.6,8.9-13.2,9.3-22,2.5c-9.3-7.3-16.2-16.9-24-25.7c-18.2-20.8-38.5-38.8-62.5-52.9c-21-12.4-43.4-20-67.2-24.4
	c-1.1-0.9-25.5-5-36.4-6.8c-6.3-1-12-3.4-16-8.9c-1.5-2.1-1.3-3.2,0.5-5.2c9.4-10.1,20.7-17.5,31.5-25.8
	c12.4-9.5,24.9-18.8,37.5-28.2c9.9-7.4,21.4-12.2,32.1-18.5c18.2-10.6,37.8-17.9,56.7-27c20-9.6,41.3-15.6,61.6-24.1
	c23.6-9.9,48.6-15.5,72.6-23.8c31.6-10.9,64.3-17,96.6-24.9c21.1-5.2,42.3-8,63.9-8.9c3.4-0.1,6.8,0.6,10.2,0.7
	C1008,400.2,1009,404.1,1008.6,408.9z M1019.9,362.9c-12,3.8-24.5,5.2-36.8,7.7c-20.5,4.1-41.3,7-61.5,11.9
	c-34.1,8.3-69.4,11.9-102.8,22.9c-23.7,7.8-47.9,14.1-70.6,24.5c-17.3,7.9-35.5,14-52.2,23.3c-15.3,8.5-31.8,15-46.6,24.3
	c-13.3,8.3-27.7,14.7-40.7,23.5c-12.8,8.7-26.9,15.4-39.5,24.4c-11.7,8.4-24.6,14.8-36.1,23.3c-12.6,9.4-26.7,16.5-39.3,25.8
	c-11.8,8.7-25.2,14.6-36.9,23.1c-16.1,11.7-33.6,20-52.6,26c-7.3,2.3-14.1,3.2-21.5,2.2c-3.8-0.5-6.4-2.5-8.4-5.7
	c-14.5-23.6-29.8-46.6-49-66.8c-4.4-4.6-8.6-9.5-13.2-14c-12.7-12.5-25.9-24.5-41.2-33.9c-2.7-1.6-4.5-4.3-7.5-5.8
	c-2.6-1.3-1.9-3.8-1.2-6c2.3-7.3,7.9-12.3,12.5-18c2.1-2.6,41.2-32.6,59.9-43c15.8-8.8,32.5-15.1,48.5-23
	c21.1-10.5,43.8-16.5,65.6-24.9c26.4-10.2,54-15.7,81.1-23.4c41.9-12,84.9-17.6,127.6-24.9c69.9-12,140.4-14.6,212.7-15.1
	c39.2,1.3,80.1,1.8,120.7,6.1c10.4,1.1,20.7,2.9,30.7,5.9c4,1.2,7.7,3.6,11.6,5.3c2.1,1,1.5,2.8,1.7,4.4
	C1035.8,351.2,1027.7,360.4,1019.9,362.9z M1036.5,297.5c-26.1,2.9-52.3,4.5-78.5,1.9c-41-4.1-82-2.6-123-0.8
	c-33.6,1.5-67.2,2.5-100.8,4c-23,1-163.1,22.2-204.1,32c-30.2,7.2-60.8,12.9-90.2,22.9c-12.8,4.4-25.3,7.3-38.6,6.5
	c-5.3-0.3-10.4-1.4-13.6-6.6c-1.9-3.1-1.6-6.2-1.5-9.3c0.9-23.3,3.9-46.6,3.4-70c-0.6-27.4-5.8-53.5-20.8-77
	c-3.6-5.6-6.2-11.7-8.6-17.9c-4-10-1-17.5,8.9-21.7c16.1-6.8,33.1-10.9,49.9-15.8c41.9-12.1,85-14.8,128.2-16.3
	c51.4-1.8,102.6,1.7,153.6,8.2c12.1,1.5,108.8,18.8,142.2,29c23.1,7,46.6,13.1,68.8,22.8c16.9,7.4,34.1,14.5,49.6,24.6
	c10.1,6.6,20.9,12.1,30.7,19.1c12.6,9,26.1,16.8,38.6,25.9c8.3,6.1,14.9,13.9,16.7,24.7C1048.7,292.6,1045.7,296.5,1036.5,297.5z
	 M1370.4,525.1c-1.5,0.1-3,0.2-4.6,0.2c-1.5-0.1-3,0-4.6-0.2c-4.8-0.6-10.7-1.1-12.7-5.1c-1.4-2.9,4.5-5.6,6.8-8.7
	c7.5-9.9,17-17.1,28.6-21.4c2.1-0.8,4.3-1.6,6.5-1.9c4.7-0.6,7.5,2,7.9,6.6C1399.6,510.7,1387.9,523.4,1370.4,525.1z"/>
<text transform="matrix(1 0 0 1 760.3906 1005.8428)" class="st1 st2 st3">MAVAJ SUN CO</text>
</svg>
