<?xml version="1.0" encoding="utf-8"?>
<!-- Generator: Adobe Illustrator 22.0.1, SVG Export Plug-In . SVG Version: 6.00 Build 0)  -->
<svg version="1.1" id="Layer_1" xmlns="http://www.w3.org/2000/svg" xmlns:xlink="http://www.w3.org/1999/xlink" x="0px" y="0px"
	 viewBox="0 0 1920 1080" style="enable-background:new 0 0 1920 1080;" xml:space="preserve">
<style type="text/css">
	.st0{fill:#00AFF0;}
	.st1{fill:#FFFFFF;}
</style>
<path class="st0" d="M1283.6,770.1c-15.3-7.2-30.9-14.1-45.4-23.1c-12.5-7.8-25.1-15.5-36.9-24.2c-20-14.6-39.1-30.4-57.1-47.5
	c-15.7-15-30.6-31-44.3-47.9c-12.1-15-23.5-30.7-33.5-47.2c-13.9-22.9-25.8-46.8-33.7-72.5c-2.6-8.3-3.6-17.1-7.2-25.1
	c-6-13.5-15.7-18.6-30.3-15.4c-10.2,2.3-19.8,6.1-27.6,13.5c-2.2,2.1-4.9,3.6-7.3,5.4c-15.1,11.1-27.8,24.7-39.9,38.7
	c-13.6,15.8-26.1,32.5-38.7,49c-10.1,13.2-19.9,26.7-29.7,40.1c-22.7,30.9-37.9,65.1-44.6,102.9c-1.2,6.6-0.8,13.3-0.9,19.9
	c0,3.2,1.4,4.3,4.2,4.8c6.4,1.2,12.6-0.3,18.5-2.4c14-5.2,27.1-12.1,39.9-19.9c15.5-9.4,31.8-17,50-21.3c20.7-4.9,41.3-7.6,62.5-6.6
	c9.2,0.4,24,3.2,32.9,5.8c11.3,3.3,22.7,6.7,34,12.7c-7.9,1.4-14.7,0.4-21.5,0.1c-19.8-0.9-39.5-2.2-59.2,1c-12.9,2.1-26,3.9-38.4,8
	c-20.2,6.7-41.2,11.6-60,21.8c-14.4,7.8-29.2,15.2-42.2,25.4c-14.4,11.3-27.8,23.8-39.6,38c-7.9,9.4-17.3,17.4-26.6,25.4
	c-2.5,2.1-3.9,1.5-5.4-0.8c-2.5-4-2.9-8.6-3.5-13.1c-2.7-20-5.3-39.9-8.2-59.9c-0.9-6.2-3.1-12.1-5.9-17.7c-12-23.9-27-45.5-47-63.7
	c-8.5-7.7-17.7-14.1-27-20.5c-21.1-14.6-45-22-69.4-28.5c-40.5-10.7-81.2-10.8-121.7-2.4c-22.8,4.8-45.6,11.4-66.2,22.8
	c-13.3,7.4-27,14.4-39.1,23.8c-18.6,14.4-36.1,30-50.9,48.3c-6.9,8.5-21.3,28.1-21.9,28.8c-10.4,12-21.1,13.4-32.4,20.6
	c1-10.6,5.9-19,10.6-27.2c5.5-9.7,12-18.9,18.4-28c13-18.3,24.6-37.4,31.4-58.9c5.1-16.1,7.5-32.7,4.1-49.5
	c-4.2-20.9-16.2-36.8-33.2-49.3c-25.5-18.8-54.7-20.7-84.6-18.7c-19.3,1.3-37.5,8.1-55.5,14.6c-26,9.4-52.9,15.5-79.8,23.7
	c0.1-5,2.6-8.3,5.2-11.5c4.5-5.6,10-10.5,15.9-14.4c19.3-12.6,38.6-25.2,59.2-35.8c19.7-10.1,39.4-20.2,58.9-30.7
	c13.2-7.1,25.7-15.4,37.6-24.5c10.8-8.2,22.4-15.1,33.2-23.1c9.9-7.3,20.7-13,30.6-20.4c26.7-19.9,40-47.7,48-78.8
	c5.4-21,7.6-42.2,5.8-63.9c-2-24.6-9.2-47.3-22.2-68.6c-10.6-17.5-26.5-20.8-44.6-18.6c-11.1,1.4-22.3,3.4-32.9,6.7
	c-16,5-32.5,6.8-48.6,10.9c-1.4,0.4-3,0.3-5.3,0.6c3.1-5.9,7.5-9.7,11.9-13.3c3.6-3,7.9-5.3,12-7.6c25.7-14.2,53-24.7,80.1-35.8
	c28.6-11.6,128.4-34,148.9-37.6c39.9-6.9,80.1-8.7,120.5-7.6c52.9,1.4,105.5,7.1,157.3,18.2c33.5,7.2,67.3,13.5,100,23.8
	c25.8,8.1,52.3,14.1,77.7,23.3c19.3,7.1,39.2,12.7,57.3,22.7c14.4,8,28.9,15.9,42.3,25.3c10.8,7.6,22,14.7,32.2,23.2
	c18.2,15.1,36.2,30.6,52,48.2c16.8,18.7,29.9,39.6,34.2,65c1.4,8.5,1.1,17-1.6,25.4c-1.5,4.9-3.8,6.7-9.1,5.1
	c-5.1-1.5-9.4-4-13.6-6.9c-15.6-10.4-31-5.6-39.2,11.4c-12.5,26-14.4,53.8-13.1,81.8c1.8,37.9,12.7,73.4,30.1,107.1
	c8.6,16.5,18.3,32.2,29.3,47.2c12.8,17.5,27.1,33.6,42.5,48.8c18.2,17.8,37.8,33.6,58.6,48.2c12.4,8.7,25.9,15.5,38.8,23.3
	c18.6,11.3,39.1,17.9,59.2,25.5c26.8,10.1,54.6,13.9,83,13.8c18.7-0.1,37.3-2.8,54.6-10.1c24-10.1,43.9-25.9,58.1-47.9
	c8.6-13.2,14.9-27.6,19.3-42.9c2.3-8.1-0.2-12.9-8.5-15.3c-8.6-2.5-17.1-0.5-25.4,1.5c-46,11.3-89.9,4.8-131.8-16
	c-13.9-6.9-27.9-12.3-43.2-14.3c-13.7-1.8-26.9,0.7-39.7,5.3c-7.6,2.7-14.9,6.3-22.6,8.5c-11.9,3.4-22.4-1.6-31.6-8.4
	c-6.8-5-12.8-11.2-18.9-17.1c-5.5-5.4-13.8-5.3-22,0.1c-8.7,5.8-19,8-28.5,12.2c-3.2,1.4-2.9-1.9-3.3-3.2
	c-3.5-11.2-4.2-22.8-3.4-34.4c1.7-25.5,8.2-49.8,19.3-72.8c2.2-4.6,5.1-8.9,8.2-13c6.6-8.6,12.4-9.7,21.9-3.6
	c7.7,5,16.1,8.9,25.1,10.8c22.3,4.7,44.1,3.9,65.2-4.5c17.5-6.9,29.3-19.6,36.2-37c2.5-6.2,6.4-11,12.7-13.9
	c9.9-4.6,20.5-6.8,31.2-8.4c1.1-0.8,105.5-15.3,156.8-17.8c31.6-1.6,63-0.9,94,7.6c20.5,5.6,35.5,18.4,48.9,34
	c0.9,1,1.7,2.1,2.8,2.8c1.1,0.8,2.4,1.3,3.6,1.9c-0.4,0.6-0.9,1.2-1.3,1.9c-4.9-0.8-9.8-1.7-14.8-2.3c-6-0.7-13.3-2.2-17.2,2.8
	c-3.5,4.5,0.7,10.3,2.7,15.4c2.4,6.1,6.9,10.4,11.3,14.8c12.3,12.2,27.2,20.9,41.5,30.6c9.9,6.7,20.4,13.1,28.2,22.6
	c13.1,16,19.7,34.8,22.9,54.9c0.3,2.1,0.5,4.1,0.8,6.5c-3.8-1.5-6.4-4.3-8.7-7c-4.9-5.7-11.3-8.2-18.2-9.4c-5.4-0.9-7.2,1.2-6.9,6.8
	c0.2,2.6,1,4.8,2.4,6.9c5.9,8.6,11.4,17.5,17.7,25.8c7.9,10.3,15.2,20.8,22.3,31.6c11.1,16.9,18,35.3,20.9,55.4
	c1.2,8.5,5.4,29,5.4,30.9c-0.7-0.2-1.8-0.1-2.1-0.5c-7-10-18-11.6-28.7-14c-5.1-1.1-9.8,2.2-10.5,7.3c-2.7,18.3-2.5,36.7-4,55
	c-1.8,21.2-5.9,42.1-10.7,62.9c-7.4,31.6-16.4,62.7-30.6,92.1c-4.7,9.6-9.5,19-16.4,27.2c-0.8,1-1.7,1.9-3.6,4.1
	c1.3-11.2,4.7-20.2,8.1-29c7.5-19.8,16.2-39.3,20.9-60.1c9.3-40.5,11.9-81.5,9.1-122.9c-2.7-39.9-9.8-79.1-20.2-117.7
	c-9.3-34.8-22.2-68-41.3-98.6c-11.2-17.9-24.1-34.3-39.2-49.2c-14.8-14.6-31.1-26.9-49.7-35.9c-13.6-6.6-27.9-11.1-43.3-10.9
	c-3,0-6.1,0.2-9,0.9c-12.6,3.2-16.4,11.8-10.1,23.3c3,5.6,7.4,10.1,12,14.4c3.4,3.2,6.7,6.5,10,9.9c1.6,1.6,4,3.6,2.4,5.8
	c-1.6,2.1-4.3,0.4-6.3-0.6c-3.4-1.7-6.9-3.5-9.6-6c-9.4-8.7-21.2-12.1-33.1-15.1c-20-5.1-40.6-6.6-61.1-6.6
	c-6.8,0-14.6,1.9-18.2,10.7c-5.1,20.7-41.6,16.6-47.5,16.3c-7.2-0.3-14,0.4-21.1,2.9c-31.3,11.2-63,10.8-94.8,2.1
	c-14.1-3.8-28.5-6.9-42.1-12.2c-6.9-2.7-8,0.6-10.9,4.6c-12.3,17.1-15,36.6-14.1,57.1c0.1,2.8-0.1,5.6-0.5,8.3
	c-0.5,4.2,1.5,5.5,5.2,5.5c4.2-0.1,8.2-1.4,11.8-3.4c2.4-1.4,4.4-1.1,6.8-0.1c8.8,3.6,15.7,9.6,22.3,16.3
	c7.6,7.8,15.6,14.9,26.9,16.7c9.5,1.6,18.9,0.4,28.3-1.5c13.6-2.7,25.8-9.4,39.3-12.4c15.6-3.4,31-2.8,45.3,3.5
	c20.6,9.1,41.5,17.3,62.8,24.6c22.3,7.7,44.7,10.9,68,6.7c8.6-1.5,15.3-6.2,21.1-12.2c7.6-8,7.6-18.9,0.1-27.2
	c-6.2-6.9-13.9-12.1-21.1-17.9c-2.2-1.8-4.8-3-7.2-4.6c-2.8-1.9-5.5-4.4-3.8-8c1.7-3.5,5.4-2.4,8.1-1.5
	c23.2,7.7,43.5,20.2,58.3,39.6c14.8,19.5,15.8,42.2,11.6,65.8C1512,825,1381,815,1283.6,770.1z"/>
<path class="st1" d="M530.1,334.6c-30.2,7.2-60.8,12.9-90.2,22.9c-12.8,4.4-25.3,7.3-38.6,6.5c-5.3-0.3-10.4-1.4-13.6-6.6
	c-1.9-3.1-1.6-6.2-1.5-9.3c0.9-23.3,3.9-46.6,3.4-70c-0.6-27.4-5.8-53.5-20.8-77c-3.6-5.6-6.2-11.7-8.6-17.9c-4-10-1-17.5,8.9-21.7
	c16.1-6.8,33.1-10.9,49.9-15.8c41.9-12.1,85-14.8,128.2-16.3c51.4-1.8,102.6,1.7,153.6,8.2c12.1,1.5,108.8,18.8,142.2,29
	c23.1,7,46.6,13.1,68.8,22.8c16.9,7.4,34.1,14.5,49.6,24.6c10.1,6.6,20.9,12.1,30.7,19.1c12.6,9,26.1,16.8,38.6,25.9
	c8.3,6.1,14.9,13.9,16.7,24.7c1.5,8.8-1.6,12.8-10.7,13.8c-26.1,2.9-52.3,4.5-78.5,1.9c-41-4.1-82-2.6-123-0.8
	c-33.6,1.5-67.2,2.5-100.8,4C711.3,303.6,571.1,324.8,530.1,334.6z"/>
<path class="st1" d="M870.3,321.4c39.2,1.3,80.1,1.8,120.7,6.1c10.4,1.1,20.7,2.9,30.7,5.9c4,1.2,7.7,3.6,11.6,5.3
	c2.1,1,1.5,2.8,1.7,4.4c0.7,8.1-7.4,17.3-15.2,19.8c-12,3.8-24.5,5.2-36.8,7.7c-20.5,4.1-41.3,7-61.5,11.9
	c-34.1,8.3-69.4,11.9-102.8,22.9c-23.7,7.8-47.9,14.1-70.6,24.5c-17.3,7.9-35.5,14-52.2,23.3c-15.3,8.5-31.8,15-46.6,24.3
	c-13.3,8.3-27.7,14.7-40.7,23.5c-12.8,8.7-26.9,15.4-39.5,24.4c-11.7,8.4-24.6,14.8-36.1,23.3c-12.6,9.4-26.7,16.5-39.3,25.8
	c-11.8,8.7-25.2,14.6-36.9,23.1c-16.1,11.7-33.6,20-52.6,26c-7.3,2.3-14.1,3.2-21.5,2.2c-3.8-0.5-6.4-2.5-8.4-5.7
	c-14.5-23.6-29.8-46.6-49-66.8c-4.4-4.6-8.6-9.5-13.2-14c-12.7-12.5-25.9-24.5-41.2-33.9c-2.7-1.6-4.5-4.3-7.5-5.8
	c-2.6-1.3-1.9-3.8-1.2-6c2.3-7.3,7.9-12.3,12.5-18c2.1-2.6,41.2-32.6,59.9-43c15.8-8.8,32.5-15.1,48.5-23
	c21.1-10.5,43.8-16.5,65.6-24.9c26.4-10.2,54-15.7,81.1-23.4c41.9-12,84.9-17.6,127.6-24.9C727.5,324.5,798,321.8,870.3,321.4z"/>
<path class="st1" d="M554.6,594.7c-6.3-1-12-3.4-16-8.9c-1.5-2.1-1.3-3.2,0.5-5.2c9.4-10.1,20.7-17.5,31.5-25.8
	c12.4-9.5,24.9-18.8,37.5-28.2c9.9-7.4,21.4-12.2,32.1-18.5c18.2-10.6,37.8-17.9,56.7-27c20-9.6,41.3-15.6,61.6-24.1
	c23.6-9.9,48.6-15.5,72.6-23.8c31.6-10.9,64.3-17,96.6-24.9c21.1-5.2,42.3-8,63.9-8.9c3.4-0.1,6.8,0.6,10.2,0.7c6.1,0,7.1,4,6.8,8.8
	c-0.5,5.9-3.7,10.3-8,14c-5.1,4.4-10.3,8.9-15.8,12.8c-17.6,12.3-33.2,27.1-49.1,41.3c-14.6,13.1-28.7,26.8-42.5,40.8
	c-18.2,18.5-33.7,39.3-48.8,60.4c-9.7,13.6-19.1,27.4-28.5,41.2c-11.8,17.4-22.2,35.6-31.5,54.4c-4.9,10-11.2,19.4-17.8,28.3
	c-6.6,8.9-13.2,9.3-22,2.5c-9.3-7.3-16.2-16.9-24-25.7c-18.2-20.8-38.5-38.8-62.5-52.9c-21-12.4-43.4-20-67.2-24.4
	C589.9,600.6,565.5,596.5,554.6,594.7z"/>
<path class="st1" d="M1365.9,525.3c-1.5-0.1-3,0-4.6-0.2c-4.8-0.6-10.7-1.1-12.7-5.1c-1.4-2.9,4.5-5.6,6.8-8.7
	c7.5-9.9,17-17.1,28.6-21.4c2.1-0.8,4.3-1.6,6.5-1.9c4.7-0.6,7.5,2,7.9,6.6c1.2,16-10.6,28.7-28,30.4
	C1368.9,525.2,1367.4,525.3,1365.9,525.3z"/>
</svg>
