<?xml version="1.0" encoding="utf-8"?>
<!-- Generator: Adobe Illustrator 22.0.1, SVG Export Plug-In . SVG Version: 6.00 Build 0)  -->
<svg version="1.1" id="Layer_1" xmlns="http://www.w3.org/2000/svg" xmlns:xlink="http://www.w3.org/1999/xlink" x="0px" y="0px"
	 viewBox="0 0 350 75" style="enable-background:new 0 0 350 75;" xml:space="preserve">
<style type="text/css">
	.st0{fill:#00AFF0;}
	.st1{fill:#4D4D4D;}
	.st2{font-family:'SFProDisplay-Regular';}
	.st3{font-size:25px;}
</style>
<path class="st0" d="M146.4,50.8c-0.2-1.4-0.7-2.7-1.4-3.9c-0.4-0.8-1-1.5-1.5-2.2c-0.4-0.6-0.8-1.2-1.2-1.8
	c-0.1-0.1-0.1-0.3-0.1-0.4c0-0.3,0.1-0.5,0.4-0.4c0.4,0.1,0.9,0.2,1.3,0.7c0.1,0.2,0.3,0.3,0.6,0.4c0-0.1,0-0.3,0-0.4
	c-0.2-1.4-0.7-2.7-1.6-3.8c-0.5-0.7-1.3-1.1-2-1.6c-1-0.7-2.1-1.3-2.9-2.1c-0.3-0.3-0.6-0.6-0.8-1c-0.1-0.3-0.4-0.8-0.2-1.1
	c0.2-0.3,0.8-0.2,1.2-0.2c0.3,0,0.7,0.1,1,0.1c0,0,0-0.1,0.1-0.1c-0.1,0-0.1-0.1-0.2-0.1c-0.1,0-0.1-0.1-0.2-0.2
	c-0.9-1.1-2-2-3.4-2.4c-2.2-0.6-4.4-0.7-6.7-0.5c-3.6,0.2-11,1.2-11.1,1.2c-0.8,0.1-1.5,0.2-2.2,0.6c-0.4,0.2-0.7,0.5-0.9,1
	c-0.4,1.2-1.3,2.1-2.5,2.6c-1.5,0.6-3,0.7-4.6,0.3c-0.6-0.1-1.2-0.4-1.8-0.8c-0.7-0.4-1.1-0.3-1.5,0.2c-0.2,0.3-0.4,0.6-0.6,0.9
	c-0.8,1.6-1.2,3.3-1.3,5.2c0,0.8,0,1.6,0.2,2.4c0,0.1,0,0.3,0.2,0.2c0.7-0.3,1.4-0.4,2-0.9c0.6-0.3,1.1-0.3,1.5,0
	c0.4,0.4,0.8,0.8,1.3,1.2c0.7,0.4,1.4,0.8,2.2,0.6c0.5-0.1,1-0.4,1.6-0.6c0.9-0.3,1.8-0.5,2.8-0.3c1.1,0.1,2.1,0.5,3.1,1
	c3,1.4,6,1.9,9.3,1.1c0.6-0.1,1.1-0.3,1.8-0.1c0.6,0.1,0.8,0.5,0.6,1.1c-0.3,1-0.8,2.1-1.3,3c-1,1.5-2.4,2.6-4.1,3.4
	c-1.2,0.5-2.5,0.7-3.8,0.7c-2,0-4-0.2-5.8-1c-1.4-0.5-2.9-1-4.2-1.8c-0.9-0.5-1.9-1-2.7-1.6c-1.4-1-2.9-2.1-4.1-3.4
	c-1.1-1-2.1-2.2-3-3.4c-0.8-1-1.4-2.2-2.1-3.3c-1.2-2.3-2-4.9-2.1-7.6c-0.1-2,0-4,0.9-5.8c0.6-1.2,1.6-1.5,2.7-0.8
	c0.3,0.2,0.6,0.3,0.9,0.4c0.3,0.1,0.5,0,0.6-0.3c0.2-0.6,0.2-1.2,0.1-1.8c-0.3-1.8-1.2-3.3-2.4-4.6c-1.1-1.2-2.4-2.3-3.7-3.4
	c-0.7-0.6-1.5-1.1-2.2-1.6c-11-7.8-27.4-8.1-31.1-8.2c-2.9-0.1-5.7,0-8.5,0.5c-1.4,0.3-8.5,1.8-10.5,2.7c-1.9,0.8-3.8,1.5-5.7,2.5
	c-0.3,0.1-0.6,0.3-0.8,0.5c-0.3,0.2-0.6,0.5-0.8,0.9c0.1,0,0.2,0,0.3,0c1.1-0.3,2.3-0.4,3.4-0.8c0.8-0.2,1.5-0.3,2.3-0.4
	c1.3-0.1,2.4,0.1,3.2,1.3c0.9,1.5,1.4,3.1,1.5,4.8c0.1,1.5,0,3-0.4,4.5c-0.6,2.2-1.5,4.2-3.4,5.6c-0.7,0.5-1.4,0.9-2.1,1.4
	c-0.8,0.6-1.5,1-2.3,1.6c-0.8,0.6-1.7,1.2-2.6,1.7c-1.3,0.7-2.7,1.4-4.2,2.2c-1.4,0.7-2.8,1.6-4.2,2.5c-0.4,0.2-0.8,0.6-1.1,1
	c-0.2,0.2-0.3,0.4-0.3,0.8c1.9-0.6,3.8-1,5.6-1.6c1.3-0.4,2.5-0.9,3.9-1c2.1-0.1,4.2,0,5.9,1.3c1.2,0.9,2,2,2.3,3.5
	c0.2,1.1,0,2.3-0.3,3.5c-0.4,1.5-1.3,2.9-2.2,4.2c-0.4,0.7-0.9,1.3-1.3,2c-0.3,0.6-0.7,1.1-0.7,1.9c0.8-0.4,1.5-0.6,2.3-1.4
	c0,0,1-1.4,1.5-2c1-1.3,2.3-2.4,3.6-3.4c0.8-0.7,1.8-1.1,2.7-1.6c1.4-0.8,3.1-1.3,4.7-1.6c2.9-0.6,5.7-0.6,8.6,0.1
	c1.7,0.4,3.4,1,4.9,2c0.7,0.4,1.3,0.9,1.9,1.4c1.4,1.3,2.5,2.8,3.3,4.5c0.2,0.4,0.3,0.8,0.4,1.2c0.2,1.4,0.3,2.8,0.6,4.2
	c0,0.3,0,0.7,0.2,0.9c0.1,0.1,0.2,0.2,0.3,0c0.7-0.6,1.3-1.1,1.9-1.8c0.8-1,1.8-1.9,2.8-2.6c0.9-0.7,2-1.2,3-1.8
	c1.3-0.7,2.8-1,4.3-1.5c0.9-0.3,1.8-0.4,2.7-0.6c1.4-0.2,2.7-0.1,4.2-0.1c0.4,0,0.9,0.1,1.5,0c-0.8-0.4-1.6-0.7-2.4-0.9
	c-0.6-0.2-1.6-0.3-2.3-0.4c-1.5,0-2.9,0.1-4.4,0.4c-1.3,0.3-2.4,0.8-3.5,1.5c-0.9,0.5-1.8,1-2.8,1.4c-0.4,0.1-0.8,0.2-1.3,0.1
	c-0.2,0-0.3-0.1-0.3-0.3c0-0.4,0-0.9,0-1.4c0.4-2.6,1.5-5.1,3.2-7.3c0.7-0.9,1.4-1.9,2.1-2.8c0.9-1.1,1.8-2.3,2.7-3.4
	c0.8-1,1.7-2,2.8-2.7c0.1-0.1,0.3-0.2,0.5-0.3c0.5-0.5,1.2-0.8,2-0.9c1-0.2,1.7,0.1,2.1,1.1c0.2,0.6,0.3,1.2,0.5,1.8
	c0.6,1.8,1.4,3.5,2.3,5.1c0.7,1.1,1.5,2.2,2.3,3.3c0.9,1.2,2,2.3,3.1,3.4c1.2,1.2,2.6,2.3,4,3.3c0.8,0.6,1.7,1.1,2.6,1.7
	c1,0.6,2.1,1.1,3.2,1.6c6.9,3.2,16.1,3.8,19.7-5.8c0.3-1.6,0.2-3.3-0.8-4.6c-1-1.3-2.5-2.2-4.1-2.8c-0.2,0-0.4-0.1-0.6,0.1
	c-0.1,0.2,0,0.4,0.2,0.6c0.1,0.1,0.3,0.2,0.5,0.3c0.5,0.4,1,0.8,1.5,1.2c0.5,0.6,0.5,1.3,0,1.9c-0.4,0.4-0.9,0.8-1.5,0.9
	c-1.6,0.3-3.2,0.1-4.8-0.4c-1.5-0.5-3-1.1-4.4-1.7c-1-0.4-2.1-0.4-3.2-0.2c-0.9,0.2-1.8,0.7-2.7,0.9c-0.7,0.1-1.3,0.2-2,0.1
	c-0.8-0.1-1.3-0.6-1.9-1.1c-0.4-0.4-0.9-0.9-1.5-1.1c-0.1-0.1-0.3-0.1-0.4,0c-0.2,0.1-0.5,0.2-0.8,0.2c-0.2,0-0.4-0.1-0.3-0.3
	c0-0.2,0-0.3,0-0.6c0-1.4,0.1-2.8,1-4c0.2-0.2,0.2-0.5,0.8-0.3c0.9,0.3,2,0.6,3,0.9c2.2,0.6,4.5,0.6,6.7-0.1c0.4-0.2,1-0.2,1.5-0.2
	c0.4,0,3,0.3,3.3-1.1c0.2-0.6,0.8-0.8,1.3-0.8c1.4,0,2.9,0.1,4.3,0.4c0.8,0.2,1.6,0.4,2.3,1c0.2,0.2,0.4,0.3,0.7,0.4
	c0.1,0.1,0.3,0.2,0.4,0s0-0.3-0.1-0.4c-0.2-0.2-0.4-0.4-0.7-0.7c-0.3-0.3-0.6-0.6-0.8-1c-0.4-0.8-0.1-1.4,0.7-1.6c0.2,0,0.4,0,0.6,0
	c1.1,0,2.1,0.3,3.1,0.8c1.3,0.6,2.5,1.5,3.5,2.5c1,1,2,2.2,2.7,3.5c1.3,2.2,2.2,4.5,2.9,7c0.7,2.7,1.2,5.5,1.4,8.3
	c0.2,2.9,0,5.8-0.7,8.7c-0.3,1.4-0.9,2.8-1.4,4.3c-0.2,0.6-0.4,1.2-0.6,2c0.1-0.1,0.2-0.2,0.2-0.3c0.4-0.6,0.8-1.2,1.1-1.9
	c1-2.1,1.6-4.3,2.1-6.5c0.3-1.4,0.6-2.9,0.8-4.4c0.1-1.3,0.1-2.6,0.2-3.9c0-0.3,0.3-0.6,0.7-0.5c0.8,0.1,1.5,0.2,2,1
	c0,0,0.1,0,0.1,0C146.8,52.9,146.5,51.4,146.4,50.8z M91.2,27.2c0,0.4-0.2,0.7-0.6,1c-0.3,0.3-0.7,0.6-1.1,0.9
	c-1.2,0.9-2.3,1.9-3.4,2.9c-1,0.9-2,1.9-3,2.9c-1.3,1.3-2.3,2.7-3.4,4.3c-0.7,0.9-1.3,1.9-2,2.9c-0.8,1.2-1.5,2.5-2.2,3.8
	c-0.3,0.7-0.8,1.3-1.2,2c-0.4,0.6-0.9,0.7-1.5,0.1c-0.7-0.5-1.1-1.2-1.6-1.8c-1.3-1.4-2.7-2.7-4.4-3.7c-1.5-0.9-3.1-1.4-4.7-1.7
	c-0.1,0-1.8-0.3-2.5-0.4c-0.4-0.1-0.8-0.2-1.1-0.6c-0.1-0.1-0.1-0.2,0-0.3c0.7-0.7,1.4-1.2,2.2-1.8c0.9-0.7,1.8-1.3,2.6-2
	c0.7-0.5,1.5-0.9,2.2-1.3c1.3-0.8,2.6-1.3,4-1.9c1.4-0.7,2.9-1.1,4.4-1.6c1.6-0.7,3.4-1.1,5.1-1.6c2.2-0.8,4.5-1.2,6.8-1.8
	c1.5-0.3,3-0.6,4.5-0.6c0.2,0,0.4,0,0.7,0C91.2,26.6,91.2,26.8,91.2,27.2z M92,23.9c-0.8,0.2-1.7,0.3-2.6,0.5
	c-1.4,0.3-2.9,0.4-4.4,0.8c-2.4,0.6-4.9,0.8-7.3,1.6c-1.6,0.5-3.4,1-5,1.7c-1.2,0.6-2.5,1-3.7,1.6c-1.1,0.6-2.2,1-3.3,1.7
	c-0.9,0.6-2,1-2.9,1.6c-0.9,0.6-1.9,1.1-2.7,1.7c-0.8,0.6-1.7,1-2.5,1.6c-0.9,0.7-1.9,1.1-2.7,1.8c-0.8,0.6-1.8,1-2.6,1.6
	c-1.1,0.8-2.3,1.4-3.7,1.8c-0.5,0.1-1,0.2-1.5,0.1c-0.2,0-0.4-0.2-0.6-0.4c-1-1.6-2.1-3.3-3.4-4.7c-0.3-0.3-0.6-0.7-0.9-1
	c-0.9-0.9-1.8-1.7-2.9-2.4c-0.2-0.1-0.3-0.3-0.5-0.4s-0.1-0.2-0.1-0.4c0.1-0.5,0.6-0.9,0.9-1.3c0.1-0.2,2.9-2.3,4.2-3
	c1.1-0.6,2.3-1,3.4-1.6c1.5-0.7,3.1-1.1,4.6-1.8c1.9-0.7,3.8-1.1,5.7-1.6c3-0.8,6-1.2,9-1.8c4.9-0.8,9.9-1,15-1
	c2.7,0.1,5.7,0.1,8.6,0.4c0.7,0.1,1.4,0.2,2.2,0.4c0.2,0.1,0.5,0.2,0.8,0.3c0.1,0,0.1,0.2,0.1,0.3C93.1,23.1,92.5,23.8,92,23.9z
	 M93.2,19.3c-1.9,0.2-3.7,0.3-5.5,0.1c-2.9-0.3-5.8-0.2-8.7,0c-2.3,0.1-4.7,0.1-7.1,0.2c-1.6,0.1-11.5,1.5-14.4,2.2
	c-2.1,0.5-4.3,0.9-6.4,1.6c-0.9,0.3-1.8,0.5-2.7,0.4c-0.3,0-0.7-0.1-0.9-0.4c-0.1-0.2-0.1-0.4-0.1-0.7c0-1.6,0.2-3.3,0.2-4.9
	c0-1.9-0.4-3.8-1.4-5.5c-0.2-0.4-0.4-0.8-0.6-1.2c-0.2-0.7-0.1-1.2,0.6-1.5c1.1-0.4,2.3-0.8,3.5-1.1c3-0.8,6-1,9.1-1.1
	c3.6-0.1,7.2,0.1,10.9,0.6c0.8,0.1,7.7,1.3,10.1,2c1.6,0.4,3.3,0.9,4.8,1.6c1.2,0.5,2.4,1,3.5,1.7c0.7,0.4,1.4,0.8,2.2,1.3
	c0.9,0.6,1.9,1.2,2.7,1.8c0.6,0.4,1,1,1.1,1.7C94,18.9,93.8,19.3,93.2,19.3z M116.9,35.5c-0.1,0-0.2,0-0.3,0c-0.1,0-0.2,0-0.3,0
	c-0.3,0-0.8-0.1-0.9-0.3c-0.1-0.2,0.3-0.4,0.4-0.6c0.5-0.7,1.2-1.2,2-1.5c0.1,0,0.3-0.1,0.4-0.1c0.3,0,0.5,0.1,0.5,0.4
	C118.9,34.4,118.1,35.3,116.9,35.5z"/>
<text transform="matrix(1 0 0 1 152.8461 69.9819)" class="st1 st2 st3">MAVAJ SUN CO</text>
</svg>
