<?xml version="1.0" encoding="utf-8"?>
<!-- Generator: Adobe Illustrator 22.0.1, SVG Export Plug-In . SVG Version: 6.00 Build 0)  -->
<svg version="1.1" id="Layer_1" xmlns="http://www.w3.org/2000/svg" xmlns:xlink="http://www.w3.org/1999/xlink" x="0px" y="0px"
	 viewBox="0 0 500 500" style="enable-background:new 0 0 500 500;" xml:space="preserve">
<style type="text/css">
	.st0{fill:#00AFF0;}
</style>
<path class="st0" d="M483.5,301.5c-0.7-5.5-2.6-10.5-5.7-15.2c-1.9-3-3.9-5.8-6.1-8.6c-1.7-2.2-3.3-4.6-4.8-7.1
	c-0.4-0.5-0.6-1.2-0.6-1.9c-0.1-1.5,0.4-2.1,1.9-1.9c1.9,0.3,3.6,1.1,5,2.5c0.6,0.7,1.4,1.5,2.4,1.9c-0.1-0.6-0.1-1.3-0.2-1.8
	c-0.8-5.5-2.6-10.6-6.2-15c-2.1-2.6-5-4.3-7.7-6.2c-3.9-2.6-8-5.1-11.4-8.3c-1.2-1.2-2.4-2.4-3.1-4c-0.5-1.4-1.7-3-0.7-4.2
	c1.1-1.4,3.1-0.9,4.7-0.7c1.4,0.1,2.7,0.4,4,0.6c0.1-0.2,0.2-0.3,0.3-0.5c-0.3-0.2-0.6-0.3-0.9-0.5c-0.3-0.2-0.5-0.5-0.7-0.7
	c-3.7-4.2-7.8-7.7-13.4-9.3c-8.4-2.3-17.1-2.5-25.7-2.1c-14,0.7-42.5,4.6-42.8,4.8c-3,0.4-5.8,1.1-8.5,2.3c-1.7,0.8-2.8,2.1-3.5,3.8
	c-1.9,4.7-5.1,8.2-9.9,10.1c-5.8,2.3-11.7,2.5-17.8,1.3c-2.4-0.5-4.7-1.6-6.9-3c-2.6-1.7-4.2-1.4-6,0.9c-0.8,1.2-1.7,2.3-2.2,3.6
	c-3.1,6.3-4.7,13-5.3,19.9c-0.2,3.2,0,6.3,0.9,9.4c0.1,0.3,0,1.3,0.9,0.8c2.6-1.2,5.4-1.8,7.8-3.4c2.2-1.5,4.5-1.5,6,0
	c1.7,1.6,3.3,3.3,5.2,4.6c2.5,1.9,5.4,3.3,8.6,2.3c2.1-0.6,4.1-1.6,6.2-2.3c3.5-1.3,7.1-2,10.9-1.5c4.2,0.5,8,2,11.8,3.9
	c11.5,5.7,23.4,7.5,36.1,4.3c2.2-0.5,4.5-1.2,7-0.4c2.2,0.6,3,2,2.3,4.2c-1.2,4.1-3,8.1-5.3,11.7c-3.9,6-9.3,10.3-15.9,13.1
	c-4.7,2-9.8,2.7-15,2.7c-7.8,0-15.4-0.9-22.7-3.8c-5.5-2.1-11.1-3.9-16.1-7c-3.5-2.1-7.2-4-10.5-6.3c-5.7-4-11.1-8.3-16-13.2
	c-4.2-4.1-8.1-8.5-11.6-13.3c-3.1-4.1-5.7-8.4-8-12.9c-4.7-9.2-7.8-18.9-8.2-29.3c-0.3-7.7,0.1-15.3,3.6-22.4
	c2.2-4.6,6.4-5.9,10.8-3.1c1.2,0.7,2.3,1.5,3.7,1.9c1.5,0.4,2-0.1,2.4-1.4c0.7-2.3,0.8-4.6,0.4-7c-1.2-7-4.7-12.7-9.4-17.7
	c-4.3-4.8-9.3-9.1-14.2-13.2c-2.7-2.3-5.9-4.2-8.8-6.3c-41.1-29.4-104.3-30.6-118.7-31c-11.1-0.3-22,0.2-32.9,2.1
	c-5.6,0.9-32.9,7.1-40.7,10.2c-7.4,3.1-14.9,5.9-21.9,9.8c-1.2,0.6-2.3,1.3-3.3,2.1c-1.2,0.9-2.4,2-3.3,3.6c0.6-0.1,1.1-0.1,1.5-0.2
	c4.4-1.2,9-1.6,13.3-3c3-0.9,6-1.5,9-1.8c5-0.6,9.3,0.3,12.2,5.1c3.5,5.8,5.5,12,6,18.8c0.5,5.9-0.1,11.7-1.6,17.5
	c-2.2,8.5-5.8,16.1-13.1,21.5c-2.7,2-5.7,3.6-8.3,5.6c-3,2.2-6.1,4.1-9.1,6.3c-3.3,2.4-6.6,4.7-10.3,6.6c-5.3,2.8-10.8,5.6-16.1,8.4
	c-5.6,2.8-11,6.3-16.2,9.8c-1.6,1.1-3.1,2.4-4.3,3.9c-0.7,0.8-1.4,1.8-1.4,3.2c7.4-2.2,14.7-3.9,21.8-6.4c5-1.8,9.9-3.6,15.2-4
	c8.2-0.5,16.1,0,23.1,5.1c4.6,3.4,7.9,7.8,9.1,13.5c0.9,4.5,0.2,9.1-1.2,13.5c-1.9,5.9-5.1,11.1-8.5,16.1c-1.8,2.5-3.6,5-5.1,7.7
	c-1.3,2.2-2.6,4.5-2.8,7.5c3.1-1.9,6-2.3,8.9-5.6c0.2-0.2,4.1-5.6,6-7.9c4-5,8.9-9.3,13.9-13.2c3.3-2.5,7.1-4.5,10.6-6.5
	c5.6-3.2,11.9-5,18.1-6.2c11.1-2.3,22.2-2.3,33.3,0.6c6.6,1.8,13.2,3.8,19,7.8c2.5,1.8,5.1,3.5,7.4,5.6c5.5,5,9.6,10.9,12.9,17.4
	c0.7,1.6,1.4,3.2,1.6,4.8c0.8,5.5,1.5,10.9,2.2,16.3c0.2,1.3,0.2,2.5,0.9,3.6c0.4,0.6,0.8,0.8,1.5,0.2c2.5-2.2,5.2-4.3,7.3-7
	c3.3-3.9,6.9-7.3,10.9-10.3c3.6-2.7,7.6-4.8,11.5-7c5.2-2.7,10.9-4.1,16.4-5.9c3.4-1.2,7-1.6,10.5-2.2c5.4-0.8,10.8-0.5,16.1-0.3
	c1.9,0.1,3.7,0.3,5.9,0c-3.1-1.7-6.2-2.5-9.3-3.5c-2.4-0.7-6.4-1.5-9-1.6c-5.8-0.2-11.4,0.4-17.1,1.8c-5,1.2-9.4,3.3-13.7,5.8
	c-3.5,2.1-7.1,4-10.9,5.5c-1.6,0.6-3.3,0.9-5.1,0.6c-0.7-0.1-1.2-0.4-1.2-1.4c0-1.8-0.1-3.7,0.2-5.5c1.8-10.3,6-19.7,12.2-28.1
	c2.7-3.7,5.4-7.4,8.1-11c3.5-4.5,6.9-9.1,10.5-13.4c3.3-3.8,6.7-7.6,11-10.5c0.6-0.5,1.4-0.9,2-1.5c2.1-2,4.7-3.1,7.6-3.7
	c4-0.8,6.6,0.5,8.3,4.2c0.9,2.2,1.3,4.6,2,6.9c2.2,7.1,5.4,13.6,9.2,19.8c2.7,4.5,5.9,8.8,9.2,12.9c3.7,4.6,7.8,9,12.1,13.1
	c4.8,4.6,10.1,9,15.6,13c3.3,2.3,6.6,4.5,10.1,6.6c3.9,2.4,8.2,4.3,12.4,6.3c26.7,12.2,62.4,15,75.9-22.4c1.2-6.4,0.8-12.7-3.2-18
	c-4-5.3-9.6-8.8-15.9-10.9c-0.7-0.2-1.8-0.5-2.2,0.4c-0.4,0.9,0.2,1.7,1.1,2.2c0.6,0.4,1.4,0.7,2,1.3c2,1.6,4.1,3.1,5.8,4.8
	c2,2.3,2,5.3,0,7.5c-1.6,1.7-3.4,3-5.8,3.4c-6.3,1.2-12.4,0.3-18.6-1.8c-5.8-2-11.5-4.2-17.2-6.7c-3.9-1.7-8.1-1.9-12.4-0.9
	c-3.7,0.8-7.1,2.6-10.8,3.4c-2.5,0.5-5.2,0.8-7.7,0.4c-3.1-0.5-5.3-2.4-7.4-4.5c-1.8-1.8-3.7-3.5-6.1-4.4c-0.6-0.3-1.2-0.3-1.9,0
	c-0.9,0.5-2.1,0.9-3.3,0.9c-1.1,0-1.6-0.3-1.5-1.5c0.1-0.7,0.2-1.5,0.1-2.3c-0.2-5.6,0.5-11,3.9-15.6c0.7-1.1,1.1-2,3-1.3
	c3.7,1.5,7.7,2.3,11.5,3.4c8.6,2.3,17.4,2.4,25.9-0.6c1.9-0.7,3.8-0.8,5.8-0.8c1.6,0.1,11.6,1.2,13-4.4c0.9-2.4,3.2-3,5-3
	c5.6,0,11.2,0.4,16.7,1.8c3.3,0.8,6.4,1.8,9.1,4.1c0.7,0.7,1.7,1.2,2.6,1.6c0.5,0.3,1.3,0.7,1.7,0.2c0.4-0.5-0.2-1.2-0.6-1.6
	c-0.9-0.9-1.8-1.8-2.7-2.7c-1.3-1.2-2.4-2.4-3.3-3.9c-1.7-3.2-0.6-5.5,2.7-6.3c0.8-0.2,1.7-0.2,2.4-0.2c4.2-0.1,8.1,1.2,11.8,3
	c5.1,2.4,9.6,5.8,13.6,9.8c4.1,4.1,7.6,8.5,10.8,13.5c5.3,8.4,8.8,17.5,11.3,27c2.8,10.5,4.7,21.3,5.5,32.2
	c0.7,11.3,0,22.6-2.5,33.6c-1.3,5.7-3.7,11-5.7,16.4c-0.9,2.4-1.9,4.8-2.2,7.9c0.5-0.6,0.7-0.8,0.9-1.2c1.9-2.2,3.2-4.8,4.4-7.5
	c3.9-8,6.3-16.6,8.3-25.2c1.4-5.7,2.4-11.4,3-17.2c0.4-5.1,0.4-10,1.1-15.1c0.2-1.4,1.5-2.3,2.8-2c3,0.6,5.9,1.1,7.8,3.8
	c0.1,0.1,0.4,0.1,0.5,0.1C485,309.4,483.9,303.8,483.5,301.5z M270.5,210.5c-0.1,1.6-1.1,2.8-2.2,3.8c-1.4,1.2-2.8,2.4-4.3,3.5
	c-4.8,3.4-9.1,7.4-13.4,11.3c-4,3.6-7.8,7.3-11.6,11.2c-5,5.1-9.2,10.8-13.3,16.6c-2.6,3.7-5.3,7.5-7.8,11.3
	c-3.3,4.7-6,9.7-8.6,14.9c-1.4,2.7-3.1,5.3-4.8,7.7c-1.8,2.4-3.6,2.5-6,0.6c-2.5-2-4.4-4.6-6.5-7.1c-5-5.7-10.5-10.5-17.1-14.4
	c-5.8-3.4-11.9-5.5-18.3-6.6c-0.3-0.2-7-1.4-9.9-1.9c-1.7-0.3-3.3-0.9-4.3-2.4c-0.4-0.5-0.3-0.8,0.1-1.4c2.5-2.7,5.7-4.7,8.6-7.1
	c3.4-2.6,6.9-5.2,10.2-7.7c2.7-2,5.8-3.4,8.8-5.1c5-3,10.3-5,15.5-7.4c5.5-2.6,11.3-4.2,16.9-6.5c6.4-2.7,13.3-4.2,19.8-6.5
	c8.6-3,17.6-4.6,26.4-6.9c5.8-1.4,11.6-2.2,17.5-2.4c0.9,0,1.9,0.2,2.8,0.2C270.3,208.1,270.7,209.1,270.5,210.5z M273.6,197.9
	c-3.3,1.1-6.7,1.5-10,2.1c-5.6,1.2-11.3,1.9-16.9,3.3c-9.4,2.3-19,3.3-28.1,6.2c-6.4,2.1-13.1,3.9-19.3,6.7
	c-4.7,2.2-9.7,3.8-14.2,6.3c-4.2,2.3-8.6,4.1-12.8,6.6c-3.7,2.3-7.6,4-11.1,6.4c-3.5,2.4-7.4,4.2-10.8,6.6c-3.2,2.3-6.7,4-9.9,6.3
	c-3.5,2.5-7.3,4.5-10.8,7.1c-3.3,2.4-6.9,4-10.1,6.3c-4.4,3.2-9.2,5.5-14.3,7.1c-2,0.6-3.9,0.8-5.9,0.6c-1.1-0.1-1.8-0.7-2.3-1.6
	c-4-6.4-8.1-12.8-13.4-18.2c-1.2-1.3-2.3-2.6-3.6-3.8c-3.5-3.4-7.1-6.7-11.3-9.3c-0.7-0.4-1.3-1.2-2-1.6c-0.7-0.3-0.5-1.1-0.3-1.7
	c0.6-2,2.2-3.4,3.4-5c0.5-0.7,11.3-8.9,16.3-11.7c4.3-2.4,8.9-4.1,13.3-6.3c5.8-2.8,11.9-4.5,17.9-6.9c7.2-2.7,14.8-4.3,22.1-6.4
	c11.5-3.3,23.2-4.8,34.9-6.9c19.1-3.3,38.4-4,58.1-4.1c10.8,0.3,21.9,0.5,33,1.7c2.8,0.3,5.7,0.8,8.4,1.6c1.1,0.3,2.1,0.9,3.2,1.5
	c0.6,0.2,0.4,0.7,0.4,1.2C277.9,194.7,275.7,197.2,273.6,197.9z M278.1,180c-7.2,0.7-14.2,1.3-21.4,0.5c-11.2-1.2-22.5-0.7-33.6-0.2
	c-9.2,0.4-18.3,0.6-27.5,1.1c-6.3,0.3-44.6,6.1-55.8,8.8c-8.2,2-16.7,3.5-24.7,6.2c-3.5,1.2-7,2-10.5,1.8c-1.5-0.1-2.8-0.4-3.7-1.8
	c-0.5-0.8-0.4-1.7-0.4-2.5c0.2-6.4,1.1-12.8,0.9-19.2c-0.2-7.5-1.6-14.7-5.7-21.1c-0.9-1.6-1.7-3.2-2.3-4.8
	c-1.1-2.7-0.3-4.7,2.4-5.9c4.4-1.9,9.1-3,13.6-4.3c11.5-3.3,23.2-4,35-4.4c14-0.5,28,0.4,42,2.2c3.3,0.4,29.7,5.2,38.9,7.9
	c6.3,1.9,12.8,3.6,18.8,6.2c4.6,2,9.3,4,13.6,6.7c2.7,1.8,5.7,3.3,8.4,5.3c3.5,2.4,7.2,4.6,10.5,7.1c2.3,1.7,4.1,3.8,4.5,6.7
	C281.5,178.7,280.7,179.7,278.1,180z M369.4,242.2c-0.4,0-0.8,0-1.3,0.1c-0.4,0-0.8,0-1.3-0.1c-1.3-0.2-3-0.3-3.5-1.4
	c-0.4-0.8,1.3-1.6,1.9-2.3c2-2.7,4.6-4.6,7.8-5.8c0.6-0.2,1.2-0.4,1.8-0.5c1.3-0.1,2,0.5,2.1,1.8
	C377.3,238.3,374.2,241.8,369.4,242.2z"/>
</svg>
