<?xml version="1.0" encoding="utf-8"?>
<!-- Generator: Adobe Illustrator 22.0.1, SVG Export Plug-In . SVG Version: 6.00 Build 0)  -->
<svg version="1.1" xmlns="http://www.w3.org/2000/svg" xmlns:xlink="http://www.w3.org/1999/xlink" x="0px" y="0px"
	 viewBox="0 0 595 842" style="enable-background:new 0 0 595 842;" xml:space="preserve">
<style type="text/css">
	.st0{opacity:0.7;fill-rule:evenodd;clip-rule:evenodd;fill:none;stroke:#000000;stroke-width:2;stroke-miterlimit:10;}
	.st1{fill-rule:evenodd;clip-rule:evenodd;fill:#00AFF0;}
	.st2{fill-rule:evenodd;clip-rule:evenodd;fill:#4D4D4D;}
	.st3{fill:#4D4D4D;}
	.st4{font-family:'DINCondensed-Bold';}
	.st5{font-size:49.8972px;}
	.st6{fill:#FFFFFF;}
</style>
<g id="Guides_For_Artboard">
</g>
<g id="Layer_1">
	<circle id="XMLID_1_" class="st0" cx="195.2" cy="694.9" r="30"/>
	<g>
		<g>
			<polygon class="st1" points="308.2,426.3 260.1,426.3 226.5,402.5 226.8,402.1 			"/>
			<polygon class="st2" points="466,426.3 358.1,426.3 373.1,405.2 298.8,300.6 299,300.2 			"/>
			<path class="st1" d="M306.9,204.3l43.5,60.7l-22.7-16.1c-5.9-4.2-10-7.6-12.4-10.4c-2.4-2.8-4.4-5.6-5.9-8.4
				c-0.1-0.1-0.2-0.2-0.2-0.3c0-0.1,0-0.2,0-0.2l-45.3,63.9l53,76.3l-0.3,0.4l-88.2-26.7l-46.5,65.6c1-0.1,1.9,0,2.8,0
				c0.8,0.1,1.6,0.1,2.4,0.1c2.8,0.4,5.6,1.4,8.3,3c2.7,1.5,6.8,4.2,12.3,8.1l8.5,6h-68.3L306.9,204.3z"/>
		</g>
	</g>
	<text transform="matrix(1.4179 0 0 1 147.8801 783.8561)" class="st3 st4 st5">MAVAJ SUN CO</text>
	<g>
		<path class="st3" d="M174.1,450c-1,2.6-2,5.1-2.9,7.7c-1.2,3.3-1.9,7.1-6.5,7.2c-5,0.1-5.7-4.1-6.9-7.5c-1-2.6-1.9-5.3-3.8-7.9
			c0,5.5,0,11,0,16.5c0,2.1,0.5,4.5-3.1,4.4c-3-0.1-3-1.8-3-3.9c0-8.2,0-16.3,0-24.5c0-3,1.1-5.3,4.2-5.7c3-0.4,5,1.2,6,4.1
			c1.9,5.5,3.9,11.1,6.5,18.6c2.5-7,4.5-12.1,6.2-17.3c1.1-3.3,2.9-5.7,6.5-5.2c4,0.5,4.3,3.7,4.3,7c-0.1,7.7-0.1,15.4,0,23.1
			c0,2.7-0.6,4-3.7,4c-3.2,0-2.8-2-2.8-4c0-5.4,0-10.8,0-16.1C174.8,450.1,174.5,450,174.1,450z"/>
		<path class="st3" d="M384.4,459.3c0-6.3,0-12.6,0-18.9c0-2-0.3-4,2.8-4.1c3,0,3.7,1.5,3.7,4.1c-0.1,8.1,0,16.3-0.1,24.4
			c0,2.6-0.8,4.9-3.8,5.4c-2.9,0.5-5.2-0.3-6.6-3.1c-3.2-6.6-6.4-13.3-10.6-19.7c0,6.3,0,12.5,0,18.8c0,1.9,0.6,4-2.7,4.1
			c-3.3,0.1-3.4-1.9-3.4-4.2c0-7.7,0-15.4,0-23.1c0-3,0.3-5.9,3.9-6.7c3.8-0.8,5.7,1.6,7,4.6c2.9,6.3,5.8,12.5,8.7,18.8
			C383.8,459.5,384.1,459.4,384.4,459.3z"/>
		<path class="st3" d="M466,452.3c0.1,12.2-4.8,18.2-14.1,18.2c-6.3,0-10.3-2.9-12.3-8.9c-1.5-4.5-1.3-9.1-0.8-13.7
			c1-7.8,5.7-11.8,13.2-11.9c7.6-0.1,11.9,3.8,13.3,11.8C465.7,449.5,465.9,451.2,466,452.3z"/>
		<path class="st3" d="M199.9,436c3.9,0.4,6.6,2.5,7.4,6.8c1.5,7.7,3.2,15.4,4.7,23.2c0.3,1.4,1.6,3.6-1.4,4.1
			c-2.7,0.5-4.5-0.5-4.5-3.2c0-5.4-3-6.1-7.6-6.1c-4-0.1-5.6,1.4-5.8,5c-0.2,3.1-1.2,5.2-4.8,4.3c-3.8-1-1.1-3.7-0.9-5.2
			c1.1-7.1,2.6-14.2,4.1-21.3C192.3,438.4,195.3,435.8,199.9,436z"/>
		<path class="st3" d="M272,467.6c0.2,1.6-0.2,2.5-2,2.6c-2.3,0.2-3.7-0.4-4.2-2.9c-0.6-3.4-0.5-6.8-5.9-6.5c-4.5,0.2-7.7,0.8-7.7,6
			c0,2.9-1.5,3.7-4.2,3.5c-3.8-0.4-1.8-2.8-1.5-4.3c1.3-7.6,2.8-15.1,4.3-22.6c0.9-4.4,3.4-7.2,8-7.2c4.5,0,7.2,2.5,8.1,7
			C268.6,451.3,270.3,459.4,272,467.6z"/>
		<path class="st3" d="M358.2,450.2c0,2.4,0,4.8,0,7.3c-0.1,9-3.7,12.9-12,13c-8.3,0.1-12.5-3.9-12.8-12.5c-0.2-5.9,0-11.9-0.1-17.8
			c0-2.3,0.6-3.8,3.3-3.8c2.9,0,3,1.8,3,3.9c0,4.8-0.1,9.7,0,14.5c0.1,4.8-0.7,10.6,6.5,10.5c6.7-0.1,6.2-5.5,6.2-10.2
			c0-4.8,0-9.7,0-14.5c0-2-0.3-4.1,2.7-4.2c3-0.1,3,1.8,3,3.9C358.2,443.6,358.2,446.9,358.2,450.2z"/>
		<path class="st3" d="M315.6,470.5c-3.4,0.1-6.6-0.6-9.6-2c-1.8-0.9-2.8-1.9-1.6-4.1c1.1-2.1,2.1-2.3,4.1-1
			c3.1,2.1,6.5,2.6,10.1,1.8c2.5-0.5,3.8-2,3.8-4.6c0-2.7-1.6-4-4-4.4c-1.9-0.3-4-0.2-5.9-0.5c-4.7-0.8-8.3-3.1-8.7-8.4
			c-0.4-5.4,2.4-8.5,7.4-10.3c4.5-1.6,8.7-0.4,12.9,0.9c2,0.6,2.8,1.9,1.8,4c-0.9,1.8-1.9,1.9-3.6,1c-2.3-1.2-4.9-2.1-7.6-1.6
			c-2.6,0.5-4.4,1.9-4.4,4.9c0,2.7,1.7,3.9,4.1,4.2c1.7,0.2,3.5,0.2,5.3,0.5c5.5,1,9.7,3.5,9.2,9.9c-0.4,6.1-4.3,8.8-9.9,9.6
			C317.8,470.4,316.7,470.4,315.6,470.5z"/>
		<path class="st3" d="M228.6,470.4c-4.1,0.1-6.8-1.9-7.6-5.9c-1.7-8.2-3.3-16.3-4.9-24.5c-0.3-1.4-1-3.2,1.4-3.6
			c2.1-0.3,3.8-0.2,4.3,2.6c1.3,7.3,2.9,14.7,4.4,21.9c0.3,1.6,0.1,4.1,2.5,4.1c2.3,0,2.2-2.4,2.6-4c1.4-6.9,2.7-13.8,4.1-20.7
			c0.4-2.1,0.7-4.5,3.9-4c3.8,0.6,2.2,3.3,1.8,5.1c-1.3,7.3-2.9,14.7-4.5,22C235.8,467.8,233.5,470.7,228.6,470.4z"/>
		<path class="st3" d="M408.9,452.2c0.6-13.5,11.4-20.3,22.5-14.2c1.8,1,3.6,1.7,2.2,4.4c-1.4,2.7-2.8,1-4.3,0.3
			c-4.3-2-8.5-2.8-11.9,1.6c-3.1,4-3.1,14.2,0.1,18.2c3.4,4.2,7.7,3.5,11.9,1.6c1.5-0.7,2.9-2.2,4.2,0.4c1.4,2.8-0.6,3.5-2.3,4.3
			c-5.3,2.5-10.7,2.5-15.8-0.3C410.8,465.9,408.5,459.8,408.9,452.2z"/>
		<path class="st3" d="M284.6,454.1c0,4.2,0.2,8.4,0,12.5c-0.2,5.2-2.5,9.2-7.1,11.9c-1.1,0.7-2.3,1.6-3.5,0.2
			c-1-1.2-1.9-3.1-0.4-4.1c6.1-4.2,4.5-10.5,4.6-16.2c0.1-5.7,0-11.4,0-17.1c0-2.3-0.7-5.2,3.2-5c3.8,0.2,3,3,3.1,5.3
			C284.6,445.8,284.6,450,284.6,454.1C284.6,454.1,284.6,454.1,284.6,454.1z"/>
		<path class="st6" d="M460.1,453.4c0,2.9-0.5,5.7-1.8,8.3c-1.3,2.6-3.5,3.7-6.4,3.7c-2.9,0-5.1-1.4-6.1-4.1
			c-1.6-4.4-2-8.9-0.9-13.5c1-4,2.9-6.8,7.5-6.7c4.4,0,6.1,2.9,7,6.5C459.8,449.5,459.9,451.5,460.1,453.4z"/>
		<path class="st6" d="M199.3,455.9c-1.7-0.5-4.9,0.8-3.9-2.6c1.2-4-0.1-11.3,4-11.4c4-0.1,3,7.1,4,11.1
			C204.4,457.2,200.9,455.3,199.3,455.9z"/>
		<path class="st6" d="M259.1,455.9c-1.9-0.4-5.4,0.9-4.1-3c1.3-3.9-0.1-11,4.3-10.9c3.4,0,2.9,7.4,3.7,11.5
			C263.8,457.1,260.6,455.3,259.1,455.9z"/>
	</g>
	<g>
		<g>
			<polygon class="st1" points="195.7,706.7 187.9,706.7 182.5,702.8 182.5,702.7 			"/>
			<polygon class="st2" points="221.3,706.7 203.8,706.7 206.3,703.2 194.2,686.3 194.3,686.2 			"/>
			<path class="st1" d="M195.5,670.7l7.1,9.9l-3.7-2.6c-1-0.7-1.6-1.2-2-1.7c-0.4-0.5-0.7-0.9-1-1.4c0,0,0,0,0,0c0,0,0,0,0,0
				l-7.3,10.4l8.6,12.4l0,0.1l-14.3-4.3l-7.5,10.6c0.2,0,0.3,0,0.4,0c0.1,0,0.3,0,0.4,0c0.5,0.1,0.9,0.2,1.3,0.5
				c0.4,0.2,1.1,0.7,2,1.3l1.4,1h-11.1L195.5,670.7z"/>
		</g>
	</g>
</g>
</svg>
