<?xml version="1.0" encoding="utf-8"?>
<!-- Generator: Adobe Illustrator 22.0.1, SVG Export Plug-In . SVG Version: 6.00 Build 0)  -->
<svg version="1.1" id="Layer_1" xmlns="http://www.w3.org/2000/svg" xmlns:xlink="http://www.w3.org/1999/xlink" x="0px" y="0px"
	 viewBox="0 0 1920 1080" style="enable-background:new 0 0 1920 1080;" xml:space="preserve">
<style type="text/css">
	.st0{fill:#FFFFFF;}
	.st1{fill:#D9E021;}
</style>
<g>
	<path class="st0" d="M1126.4,922.9c-269.7,0-539.4,0-809.1,0c0-217.2,0-434.4,0-651.6c405.6,0,811.2,0,1216.8,0
		c0,150.5,0,300.9,0,451.4c-0.8-3.5-2-6.9-2.4-10.5c-2.3-21.6-11.3-40.1-24.7-56.9c-6.5-8.1-12.4-16.6-18.5-25
		c-1.2-1.7-2.3-3.7-2.8-5.7c-1-3.8,0.9-6.1,4.7-5.1c3.9,1,7.7,2.9,11.4,4.8c2.5,1.4,4.6,3.5,7.2,5.6c0.1-1,0.2-1.5,0.1-2
		c-2-13.5-6.1-26.1-14.9-36.9c-7.2-8.9-17.2-14-26.4-20.3c-8.4-5.7-16.8-11.6-24.8-18c-5.3-4.2-9.2-9.8-10.2-16.9
		c-0.4-2.7,0.5-4.4,3-4.7c3.7-0.4,7.4-0.5,11.2-0.3c2.9,0.1,5.8,0.8,8.8,1.2c-2.4-3.6-5.3-6.2-7.9-9c-9.1-9.6-20.1-15.3-32.9-18.5
		c-20.7-5.3-41.9-6.1-62.9-4.5c-33.1,2.5-66.1,6.1-99.1,9.8c-10.5,1.2-20.8,4.1-31.1,6.6c-5.7,1.4-9.7,5.3-12.1,10.9
		c-3.3,7.8-8.3,14.4-15.4,19.2c-8.9,6-18.9,9.1-29.4,10.1c-14.3,1.3-28.3,0.2-41-7.2c-12-6.9-15.4-6.2-22.5,5.7
		c-0.1,0.1-0.1,0.2-0.2,0.4c-9.9,17.1-14.7,35.7-15.7,55.3c-0.4,7.6,0.3,15.2,3.6,22.6c9.3-3.7,18.3-7.1,27.2-10.8
		c2.5-1.1,4.7-1.1,6.7,0.5c4.3,3.4,8.7,6.8,12.7,10.5c7.6,6.9,16.2,10,26.3,7.9c4.4-0.9,8.8-2.6,13-4.3c15.4-6.2,30.9-6.8,46.4-1
		c8.2,3.1,16.2,6.5,24.2,9.9c21.2,8.9,43.2,13.1,66.2,10c8.9-1.2,17.7-3,26.6-4.4c5.1-0.8,10.1-0.5,13.8,3.6
		c1.1,1.2,1.9,3.8,1.5,5.3c-10.1,33.9-31.1,57.2-66.1,66.2c-25.3,6.5-50.6,4.5-75.3-2.4c-66.9-18.6-120.6-56.5-160.4-113.3
		c-24-34.2-37-72-33-114.5c1.1-11.8,3.3-23.5,9.4-33.9c6.4-11,16.7-13.2,27.3-6.4c3,1.9,6.4,3.3,9.7,4.8c3.4,1.5,5.6-0.1,6-3.4
		c0.7-5.7,1.8-11.5,1.1-17.1c-1.8-13.7-8.5-25.4-17.2-35.9c-13.4-16.2-29.3-29.6-46.2-42c-23.6-17.3-48.5-32.6-76.6-41.6
		c-74.4-23.9-149.9-42.9-228.3-47.7c-24-1.5-48.1-0.7-72.1,0.1c-25.4,0.8-50,6.9-74.7,12.3c-31.7,6.9-63.3,14-92.9,27.5
		c-13.4,6.1-26.4,13.1-39.4,20.1c-2.7,1.4-4.7,4.3-7,6.5c1.5,0.8,2.3,0.8,3.1,0.6c13.7-2.8,27.4-5.7,41.1-8.3
		c8.5-1.6,17.2-3.1,25.8-3.5c9-0.4,16.9,3.2,21.8,11.3c2.7,4.4,5.5,8.6,7.7,13.2c10,21.3,11.3,43.7,7.3,66.6
		c-5.7,32.1-21.2,57.3-50.7,73c-7.8,4.1-15,9.5-22.5,14.2c-13,8.1-25.7,16.8-39.1,24.1c-20.5,11.3-41.6,21.3-62.1,32.5
		c-8.8,4.8-16.9,10.9-25.1,16.8c-3.4,2.5-6.1,6-7,10.8c1.5-0.3,2.7-0.4,3.8-0.8c23.3-6.8,46.8-13.2,70-20.4c21.1-6.5,42-7,63.1-0.9
		c27.6,8,52,34.5,40,72.9c-5.2,16.7-14.8,30.9-24.9,44.9c-5.1,7.1-9.8,14.4-14.3,21.9c-2.1,3.6-3.3,7.8-4.8,11.7
		c0.3,0.2,0.7,0.5,1,0.7c5.7-3.6,11.6-7,17.1-11c3.5-2.5,7-5.5,9.6-8.9c14.7-19.2,31.7-35.9,52.1-49
		c50.6-32.4,105.3-39.4,162.9-24.9c42.2,10.7,74.2,35.1,93.8,74.5c2.7,5.4,4.1,11.6,5.1,17.7c2.2,12.6,3.7,25.3,5.7,37.9
		c0.4,2.4,1.8,4.7,3,7.6c1.8-1.5,2.9-2.3,3.9-3.2c10.4-9.9,20.5-20.2,31.2-29.8c22.9-20.5,50-33.2,79.4-41.3
		c23.7-6.5,47.7-10.8,72.5-8.2c5.8,0.6,11.7,0.1,18.6,0.1c-1.7-0.9-2.5-1.3-3.3-1.6c-14.4-6.3-29.5-10.1-45.3-10.5
		c-25.5-0.6-50.1,2.7-72.7,15.7c-8.8,5.1-17.9,9.8-27.3,13.9c-5.2,2.3-11,3.6-16.6,4.3c-5,0.7-5.6-0.5-5.7-5.3
		c0-2.2-0.1-4.3,0.1-6.5c2.2-21.3,9.3-41.2,21.3-58.5c14.9-21.6,31.4-42,47.6-62.6c12.3-15.7,26-30.3,42.5-41.7
		c6.5-4.5,14-8.2,21.5-10.5c11.5-3.5,20.8,2.4,23.6,14c4.8,20.5,13.4,39.4,24.6,57.1c30.9,48.9,72.4,86.8,122.2,115.5
		c33.2,19.2,68.4,32.5,107.3,34.3c39.7,1.8,74.3-10,102.1-39c9.3-9.7,18.5-19.4,20.9-33.7c2.9-16.8,1.6-32.4-10-46
		c-5.9-6.9-13.2-12.3-21.3-16.4c-6.2-3.1-12.6-5.9-19.1-8.5c-1.2-0.5-3.2,0.9-4.9,1.4c0.7,1.6,1,3.6,2.2,4.7c1.7,1.7,4.1,2.6,6,4
		c4.5,3.4,9.2,6.6,13.3,10.5c7.7,7.5,6.9,17-2.4,22.6c-4.6,2.8-10,4.7-15.3,5.6c-14.6,2.6-29.1,0-42.9-4.4
		c-14.7-4.7-29-10.6-43.4-16c-13.3-5-26.6-5.8-40.3-1.5c-6.9,2.2-13.9,4.1-20.9,6.1c-16.2,4.6-30.2,1.2-41.8-11.5
		c-6.6-7.2-14-12.5-24.5-7.4c-0.2,0.1-0.5,0.1-0.8,0.1c-4.3,0.5-5.4-0.5-5.2-4.9c0.1-1.6,0.1-3.2,0-4.8
		c-0.8-14.3,2.2-27.5,10.8-39.2c1.6-2.1,2.7-3,5.5-2.1c8.1,2.5,16.3,4.7,24.4,6.9c18.7,5.2,37.7,9.1,56.9,4.4
		c16.1-3.9,32-7,48.7-6.6c8.1,0.2,14.5-4.4,17.8-12.4c0.4-0.9,1-2.2,1.8-2.5c4.2-1.2,8.4-2.6,12.7-3.1c3.7-0.4,7.5,0.2,11.3,0.5
		c20.1,1.6,39.9,4,56.8,16.8c1.9,1.4,4.4,1.9,6.7,2.8c0.4-0.5,0.8-1,1.2-1.5c-1.9-2-3.7-4.1-5.6-6.1c-4.1-4.4-8.8-8.4-12.1-13.3
		c-5.1-7.6-2.3-14,6.7-15.8c4.8-0.9,10-0.9,14.8-0.2c17.4,2.7,32.5,10.9,46.3,21.5c27.7,21.3,46.5,49.2,58.8,81.4
		c18.4,48.4,27.2,98.6,23.5,150.6c-1.7,23.2-6.3,45.8-15.9,67.1c-2.9,6.4-5.3,12.9-7.7,19.5c-1.3,3.7-2.2,7.5-3.3,11.3
		c1.6-0.4,2.4-1.1,2.9-1.9c5.3-9.3,11.6-18.2,15.8-28c14.4-34.2,23.5-69.7,25.4-106.9c0.4-9,1.7-17.9,2.7-26.9
		c0.1-1.2,1.9-3.3,2.5-3.1c9.4,1.9,19.3,3.1,26.1,11.1c0,65.7,0,131.3,0,197c-128.4,0-256.8,0-385.1,0c0-0.8,0-1.6,0.1-2.4
		c3.8-18.7,7.7-37.4,11.5-56.1c1.5-7.1,2.9-14.1,4.7-22.4c1.1,2.8,1.7,4.4,2.3,6c7.6,21,15.2,41.9,22.6,62.9c1.1,3,2.6,3.7,5.5,3.7
		c2.9,0,4.5-0.6,5.6-3.7c5.3-15.4,10.9-30.6,16.4-45.9c2.6-7.3,5.3-14.5,8-21.8c0.3,0,0.5,0.1,0.8,0.1c4.4,23,8.8,46,13.2,69
		c7.6,0,14.8,0,22.2,0c-0.1-1-0.2-1.8-0.3-2.6c-8.2-40.6-16.4-81.1-24.5-121.7c-1.5-7.4-1.5-7.2-8.9-7.5c-3.8-0.2-5.3,1.1-6.4,4.7
		c-8,26.5-16.3,52.9-24.5,79.3c-0.4,1.2-0.9,2.3-1.6,4.1c-0.6-1.7-1-2.7-1.4-3.7c-8.1-25.5-16.2-50.9-24.3-76.4
		c-2.5-7.9-2.5-7.8-11.1-7.9c-2.8,0-3.9,0.7-4.5,3.6c-4.2,21.5-8.7,42.9-13,64.4C1136.3,873.4,1131.4,898.1,1126.4,922.9z
		 M1435,787.7c-1.8-1.1-3.2-2-4.7-2.8c-31.8-16.5-69.6-3.8-84.1,28.8c-10.3,23.2-9.5,47,0.2,70.1c6.1,14.6,17,25.1,32.8,28.6
		c8.4,1.9,17.3,2.3,26,2c11.6-0.5,22.4-4.3,31.1-12.6c0.8-0.8,1.7-2.8,1.3-3.5c-3-5.8-6.4-11.4-10-17.7c-1.3,1.5-2,2.7-3,3.6
		c-16.8,16.6-45.2,12.6-55.2-8.7c-9.4-19.9-8.7-40.3,2.6-59.5c7-11.9,17.8-17.5,31.8-16.7c7.9,0.5,15.4,2.2,21.8,7.7
		C1428.7,800.4,1431.8,794.1,1435,787.7z M1263.7,884.3c-0.2,1.6-0.6,2.5-0.4,3.3c1.4,7.4,2.8,14.8,4.5,22.1
		c0.2,1.1,1.7,2.2,2.9,2.6c8.3,2.8,16.9,3,25.5,2.1c11.1-1.1,21.2-4.8,29.1-13.2c14.7-15.6,11.5-42.2-6.8-55.3
		c-5.1-3.6-11.1-6.1-16.3-9.6c-6.8-4.5-14.1-8.6-19.7-14.4c-7.7-7.9-3.3-20.4,7.5-22.9c3.8-0.9,8.2-1.1,11.9-0.1
		c6.7,1.7,13.1,4.5,19.8,7c1.5-4.3,3.2-9.3,5-14.4c1.8-5.2,1.9-5.4-3.2-7.8c-12.1-5.6-24.9-6.6-37.8-4.5
		c-14.5,2.3-26.6,13.4-29.3,26.6c-3.3,16,2.5,30.4,15.6,38.9c3.6,2.3,7.4,4.3,11.1,6.5c6.1,3.6,12.4,7,18.3,10.9
		c5,3.3,8.2,8.1,9.4,14c1.7,8-1.9,14.4-9.8,16.4c-4,1-8.2,1.3-12.4,1.2C1279.7,893.8,1271.8,889.6,1263.7,884.3z"/>
	<path class="st1" d="M1534.1,725.9c-6.8-8-16.6-9.3-26.1-11.1c-0.6-0.1-2.4,2-2.5,3.1c-1.1,8.9-2.3,17.9-2.7,26.9
		c-1.8,37.2-11,72.7-25.4,106.9c-4.1,9.8-10.4,18.7-15.8,28c-0.5,0.9-1.3,1.5-2.9,1.9c1.1-3.8,1.9-7.6,3.3-11.3
		c2.4-6.6,4.9-13.1,7.7-19.5c9.6-21.4,14.2-44,15.9-67.1c3.8-52-5.1-102.1-23.5-150.6c-12.2-32.2-31.1-60.1-58.8-81.4
		c-13.8-10.6-28.9-18.8-46.3-21.5c-4.8-0.8-10-0.7-14.8,0.2c-9,1.8-11.8,8.2-6.7,15.8c3.3,4.9,8,8.9,12.1,13.3
		c1.9,2,3.7,4.1,5.6,6.1c-0.4,0.5-0.8,1-1.2,1.5c-2.2-0.9-4.8-1.4-6.7-2.8c-16.8-12.8-36.7-15.2-56.8-16.8
		c-3.7-0.3-7.6-0.9-11.3-0.5c-4.3,0.5-8.5,1.8-12.7,3.1c-0.8,0.2-1.4,1.5-1.8,2.5c-3.2,8-9.7,12.6-17.8,12.4
		c-16.7-0.4-32.6,2.7-48.7,6.6c-19.2,4.6-38.2,0.7-56.9-4.4c-8.2-2.3-16.3-4.4-24.4-6.9c-2.8-0.9-4,0-5.5,2.1
		c-8.6,11.7-11.6,24.9-10.8,39.2c0.1,1.6,0.1,3.2,0,4.8c-0.3,4.4,0.8,5.5,5.2,4.9c0.3,0,0.6,0,0.8-0.1c10.4-5.1,17.9,0.2,24.5,7.4
		c11.6,12.7,25.5,16.1,41.8,11.5c7-2,14-3.9,20.9-6.1c13.6-4.3,27-3.6,40.3,1.5c14.4,5.5,28.7,11.3,43.4,16
		c13.9,4.4,28.3,7,42.9,4.4c5.3-0.9,10.8-2.8,15.3-5.6c9.3-5.6,10.1-15.2,2.4-22.6c-4-3.9-8.8-7.1-13.3-10.5c-1.9-1.5-4.3-2.4-6-4
		c-1.2-1.1-1.5-3.1-2.2-4.7c1.6-0.5,3.6-1.9,4.9-1.4c6.5,2.5,12.9,5.4,19.1,8.5c8.1,4.1,15.3,9.4,21.3,16.4
		c11.6,13.5,12.9,29.1,10,46c-2.4,14.2-11.6,24-20.9,33.7c-27.9,29-62.4,40.8-102.1,39c-38.8-1.8-74.1-15.1-107.3-34.3
		c-49.9-28.8-91.3-66.6-122.2-115.5c-11.2-17.7-19.7-36.6-24.6-57.1c-2.7-11.5-12.1-17.5-23.6-14c-7.6,2.3-15,6-21.5,10.5
		c-16.5,11.4-30.2,26-42.5,41.7c-16.2,20.6-32.7,41-47.6,62.6c-12,17.4-19,37.3-21.3,58.5c-0.2,2.1-0.1,4.3-0.1,6.5
		c0.1,4.9,0.7,6,5.7,5.3c5.6-0.7,11.4-2,16.6-4.3c9.3-4.1,18.4-8.8,27.3-13.9c22.6-13,47.3-16.2,72.7-15.7
		c15.8,0.3,30.8,4.2,45.3,10.5c0.8,0.3,1.5,0.8,3.3,1.6c-6.9,0-12.8,0.5-18.6-0.1c-24.8-2.6-48.8,1.7-72.5,8.2
		c-29.4,8.1-56.5,20.8-79.4,41.3c-10.7,9.6-20.8,19.8-31.2,29.8c-1,0.9-2,1.7-3.9,3.2c-1.2-2.8-2.6-5.1-3-7.6
		c-2-12.6-3.5-25.3-5.7-37.9c-1-6-2.4-12.2-5.1-17.7c-19.6-39.4-51.7-63.9-93.8-74.5c-57.6-14.6-112.3-7.5-162.9,24.9
		c-20.4,13-37.4,29.8-52.1,49c-2.6,3.4-6.1,6.4-9.6,8.9c-5.5,4-11.4,7.4-17.1,11c-0.3-0.2-0.7-0.5-1-0.7c1.6-3.9,2.7-8.1,4.8-11.7
		c4.5-7.5,9.2-14.9,14.3-21.9c10.1-14,19.6-28.2,24.9-44.9c12-38.4-12.5-64.9-40-72.9c-21.1-6.1-42.1-5.6-63.1,0.9
		c-23.2,7.2-46.7,13.6-70,20.4c-1.1,0.3-2.3,0.5-3.8,0.8c0.9-4.8,3.5-8.3,7-10.8c8.2-5.9,16.3-12,25.1-16.8
		c20.5-11.2,41.7-21.2,62.1-32.5c13.4-7.4,26.1-16,39.1-24.1c7.5-4.7,14.7-10.1,22.5-14.2c29.6-15.6,45-40.9,50.7-73
		c4.1-22.9,2.7-45.3-7.3-66.6c-2.2-4.6-5-8.9-7.7-13.2c-5-8.2-12.8-11.7-21.8-11.3c-8.7,0.4-17.3,1.9-25.8,3.5
		c-13.7,2.5-27.4,5.5-41.1,8.3c-0.8,0.2-1.6,0.2-3.1-0.6c2.3-2.2,4.3-5.1,7-6.5c13-6.9,26-14,39.4-20.1
		c29.7-13.5,61.3-20.6,92.9-27.5c24.7-5.4,49.3-11.4,74.7-12.3c24-0.8,48.2-1.5,72.1-0.1c78.3,4.8,153.9,23.7,228.3,47.7
		c28.1,9,53,24.2,76.6,41.6c16.8,12.4,32.8,25.8,46.2,42c8.7,10.5,15.4,22.2,17.2,35.9c0.7,5.6-0.4,11.4-1.1,17.1
		c-0.4,3.4-2.6,4.9-6,3.4c-3.3-1.5-6.7-2.8-9.7-4.8c-10.6-6.8-20.9-4.6-27.3,6.4c-6.1,10.5-8.3,22.1-9.4,33.9
		c-4,42.5,9,80.4,33,114.5c39.8,56.8,93.5,94.7,160.4,113.3c24.8,6.9,50,8.9,75.3,2.4c35.1-9,56-32.3,66.1-66.2
		c0.5-1.5-0.4-4-1.5-5.3c-3.7-4.1-8.8-4.4-13.8-3.6c-8.9,1.4-17.7,3.2-26.6,4.4c-23,3.1-44.9-1.1-66.2-10c-8-3.4-16.1-6.8-24.2-9.9
		c-15.6-5.8-31-5.2-46.4,1c-4.2,1.7-8.6,3.4-13,4.3c-10.1,2.1-18.8-1-26.3-7.9c-4-3.7-8.4-7.1-12.7-10.5c-2.1-1.6-4.2-1.6-6.7-0.5
		c-8.9,3.7-17.9,7.2-27.2,10.8c-3.3-7.4-4-15-3.6-22.6c1-19.6,5.8-38.2,15.7-55.3c0.1-0.1,0.1-0.2,0.2-0.4
		c7.2-11.9,10.6-12.7,22.5-5.7c12.8,7.4,26.8,8.4,41,7.2c10.6-1,20.5-4.1,29.4-10.1c7.1-4.8,12.2-11.4,15.4-19.2
		c2.4-5.7,6.4-9.5,12.1-10.9c10.3-2.6,20.6-5.4,31.1-6.6c33-3.7,66-7.3,99.1-9.8c21-1.6,42.2-0.8,62.9,4.5
		c12.7,3.2,23.8,8.9,32.9,18.5c2.7,2.8,5.5,5.5,7.9,9c-2.9-0.4-5.8-1.1-8.8-1.2c-3.7-0.2-7.5-0.1-11.2,0.3c-2.6,0.3-3.4,2-3,4.7
		c1,7.1,4.9,12.7,10.2,16.9c7.9,6.4,16.3,12.3,24.8,18c9.2,6.3,19.2,11.4,26.4,20.3c8.7,10.8,12.9,23.4,14.9,36.9
		c0.1,0.5-0.1,1-0.1,2c-2.6-2.1-4.7-4.2-7.2-5.6c-3.6-2-7.4-3.8-11.4-4.8c-3.8-1-5.7,1.3-4.7,5.1c0.5,2,1.6,4,2.8,5.7
		c6.1,8.4,12,16.9,18.5,25c13.4,16.8,22.4,35.3,24.7,56.9c0.4,3.5,1.6,7,2.4,10.5C1534.1,723.7,1534.1,724.8,1534.1,725.9z
		 M680.6,291.5c-43,0-77.2,2.1-110.8,9.8c-14,3.2-27.7,7.7-41.3,12.3c-8.3,2.8-10,7.9-6.5,15.9c1.8,4,3.9,8,6.3,11.7
		c10.3,15.9,14.2,33.6,13.9,52.2c-0.2,15.4-1.5,30.9-2.3,46.3c-0.3,5.8,1.3,8.2,7.1,9.4c3.2,0.7,6.8,1.2,10,0.7
		c9.1-1.6,18.2-3.3,27.1-5.7c36.4-9.8,73.2-17.6,110.3-23.4c27.5-4.3,55-8.7,82.7-11c31.2-2.6,62.5-3.1,93.8-4.2
		c21.2-0.7,42.4-1.6,63.7,0.5c21.6,2.1,43.2,2,64.8-0.6c5.6-0.7,9.5-3.5,7.9-10.3c-1.8-7.4-6.5-12.3-12.4-16.2
		c-6.5-4.3-13.1-8.4-19.7-12.6c-23.6-15-47.9-28.8-74.6-37.7C826.4,303.8,750,292.6,680.6,291.5z M881.5,420.4
		c-28.4,1.2-56.8,1.9-85.1,3.8c-42.7,2.9-85,8.9-126.9,17.6c-46.3,9.5-91.5,22.5-135.4,40.2c-24.6,10-47.1,23.4-68.1,39.5
		c-3.4,2.6-6.5,5.7-9.3,8.9c-1.7,2-2.9,4.5-4.1,6.8c-1.1,2.3-0.5,3.9,1.8,5.3c31.7,19.5,56,46.3,75.5,77.7c2.7,4.4,6,6.1,10.7,6.3
		c2.3,0.1,4.7,0.3,6.8-0.4c8-2.5,16.6-4.2,23.9-8.2c19.6-10.8,38.9-22.3,58-34.2c34.7-21.5,69.4-43.1,105.9-61.7
		c40.9-20.9,83.3-38.3,128.3-48.2c35.2-7.7,70.6-13.9,106-20.8c6.5-1.3,12.9-2.5,19.3-4.3c5.7-1.6,9.5-5.4,10.2-11.7
		c0.3-2.7-0.3-4.7-3.3-5.4c-9.2-2-18.2-5.3-27.5-6C939.3,423.4,910.4,422.1,881.5,420.4z M646.6,596.9c1.9,4.6,5.2,6.9,9.5,7.9
		c4.6,1.1,9.2,1.9,13.9,2.4c26.5,2.8,51.1,11,73.4,25.8c15.8,10.4,28.6,24,41.2,37.8c3.3,3.6,7.1,7,11.1,9.9
		c4.5,3.2,8.3,2.6,11.8-1.5c3.9-4.6,7.4-9.6,10.5-14.7c6.8-11.1,12.9-22.6,20-33.6c27.6-43,60.5-81.3,100.6-113.2
		c10.1-8,20.4-15.8,30.6-23.7c4.4-3.4,9-6.5,10.6-12.3c1.2-4.4-0.2-6.6-4.6-7.3c-2.4-0.3-4.9-0.7-7.2-0.4
		c-15.9,1.9-31.8,3.3-47.5,6.2c-38.1,7.1-75.2,18.1-111.9,30.3c-33.2,11.1-65.6,23.8-96.6,40.2c-18.7,9.9-35.2,23.3-52.5,35.3
		C654.9,589.2,650.9,593.2,646.6,596.9z M1219.6,555.1c5.4,4,11.2,4.4,17.2,3.6c11.8-1.5,19.8-10.4,19-20.6
		c-0.3-3.3-2.3-5.2-5.6-4.8c-1.7,0.2-3.4,0.9-5,1.5C1234.5,538.6,1227.1,546.4,1219.6,555.1z"/>
	<path d="M1126.4,922.9c5-24.8,9.9-49.5,14.9-74.3c4.3-21.5,8.8-42.9,13-64.4c0.6-2.9,1.7-3.6,4.5-3.6c8.6,0.1,8.6,0,11.1,7.9
		c8.1,25.5,16.2,50.9,24.3,76.4c0.3,1,0.7,2,1.4,3.7c0.7-1.7,1.3-2.9,1.6-4.1c8.2-26.4,16.5-52.8,24.5-79.3c1.1-3.6,2.6-4.8,6.4-4.7
		c7.4,0.3,7.4,0.1,8.9,7.5c8.2,40.6,16.4,81.1,24.5,121.7c0.2,0.8,0.2,1.5,0.3,2.6c-7.4,0-14.6,0-22.2,0c-4.4-23-8.8-46-13.2-69
		c-0.3,0-0.5-0.1-0.8-0.1c-2.7,7.3-5.3,14.5-8,21.8c-5.5,15.3-11.1,30.6-16.4,45.9c-1.1,3-2.6,3.7-5.6,3.7c-3,0-4.5-0.8-5.5-3.7
		c-7.4-21-15-42-22.6-62.9c-0.6-1.6-1.2-3.2-2.3-6c-1.7,8.3-3.2,15.3-4.7,22.4c-3.8,18.7-7.7,37.4-11.5,56.1
		c-0.2,0.8-0.1,1.6-0.1,2.4C1141.4,922.9,1133.9,922.9,1126.4,922.9z"/>
	<path d="M1435,787.7c-3.2,6.4-6.2,12.7-9.5,19.3c-6.4-5.5-13.9-7.2-21.8-7.7c-14-0.9-24.8,4.8-31.8,16.7
		c-11.3,19.2-12,39.6-2.6,59.5c10.1,21.3,38.5,25.3,55.2,8.7c0.9-0.9,1.7-2,3-3.6c3.6,6.3,6.9,11.9,10,17.7c0.4,0.8-0.4,2.7-1.3,3.5
		c-8.7,8.3-19.5,12.1-31.1,12.6c-8.6,0.4-17.6-0.1-26-2c-15.7-3.6-26.7-14-32.8-28.6c-9.7-23.2-10.5-47-0.2-70.1
		c14.4-32.6,52.3-45.3,84.1-28.8C1431.8,785.7,1433.2,786.6,1435,787.7z"/>
	<path d="M1263.7,884.3c8.1,5.3,16,9.4,25.1,9.6c4.1,0.1,8.4-0.2,12.4-1.2c7.9-2,11.4-8.4,9.8-16.4c-1.3-5.9-4.5-10.8-9.4-14
		c-5.9-3.9-12.2-7.3-18.3-10.9c-3.7-2.2-7.5-4.1-11.1-6.5c-13.1-8.5-18.8-22.9-15.6-38.9c2.7-13.2,14.7-24.3,29.3-26.6
		c13-2,25.8-1.1,37.8,4.5c5.2,2.4,5.1,2.6,3.2,7.8c-1.8,5-3.5,10.1-5,14.4c-6.8-2.5-13.2-5.3-19.8-7c-3.7-1-8.1-0.7-11.9,0.1
		c-10.8,2.5-15.2,15-7.5,22.9c5.6,5.8,12.9,9.9,19.7,14.4c5.3,3.5,11.2,5.9,16.3,9.6c18.3,13,21.5,39.7,6.8,55.3
		c-7.9,8.4-18,12.1-29.1,13.2c-8.6,0.8-17.2,0.6-25.5-2.1c-1.2-0.4-2.7-1.6-2.9-2.6c-1.7-7.3-3.1-14.7-4.5-22.1
		C1263.1,886.8,1263.5,885.9,1263.7,884.3z"/>
	<path class="st0" d="M680.6,291.5c69.4,1.2,145.8,12.3,220,37c26.8,8.9,51,22.7,74.6,37.7c6.6,4.2,13.2,8.3,19.7,12.6
		c5.9,4,10.6,8.9,12.4,16.2c1.7,6.7-2.3,9.6-7.9,10.3c-21.6,2.6-43.2,2.7-64.8,0.6c-21.2-2.1-42.4-1.2-63.7-0.5
		c-31.3,1.1-62.7,1.6-93.8,4.2c-27.7,2.3-55.2,6.7-82.7,11c-37.2,5.8-74,13.6-110.3,23.4c-8.9,2.4-18,4.2-27.1,5.7
		c-3.2,0.5-6.7,0-10-0.7c-5.7-1.3-7.3-3.6-7.1-9.4c0.8-15.4,2-30.9,2.3-46.3c0.3-18.6-3.6-36.3-13.9-52.2c-2.4-3.7-4.5-7.7-6.3-11.7
		c-3.6-8-1.9-13.1,6.5-15.9c13.6-4.6,27.3-9.1,41.3-12.3C603.4,293.6,637.6,291.5,680.6,291.5z"/>
	<path class="st0" d="M881.5,420.4c28.9,1.7,57.7,3,86.5,5.3c9.3,0.7,18.3,4,27.5,6c3,0.7,3.6,2.6,3.3,5.4
		c-0.7,6.3-4.5,10.1-10.2,11.7c-6.3,1.8-12.8,3-19.3,4.3c-35.3,6.9-70.8,13.1-106,20.8c-45,9.9-87.4,27.2-128.3,48.2
		c-36.4,18.6-71.1,40.2-105.9,61.7c-19.1,11.8-38.3,23.4-58,34.2c-7.3,4-15.8,5.7-23.9,8.2c-2.1,0.7-4.5,0.5-6.8,0.4
		c-4.7-0.1-8-1.9-10.7-6.3c-19.5-31.4-43.8-58.2-75.5-77.7c-2.3-1.4-3-3.1-1.8-5.3c1.2-2.4,2.4-4.9,4.1-6.8c2.8-3.2,5.9-6.3,9.3-8.9
		c21-16.1,43.5-29.5,68.1-39.5c43.9-17.8,89.1-30.7,135.4-40.2c41.9-8.6,84.2-14.6,126.9-17.6C824.8,422.2,853.1,421.6,881.5,420.4z
		"/>
	<path class="st0" d="M646.6,596.9c4.2-3.6,8.2-7.7,12.8-10.9c17.3-12,33.8-25.3,52.5-35.3c31-16.4,63.4-29.1,96.6-40.2
		c36.7-12.3,73.8-23.2,111.9-30.3c15.7-2.9,31.6-4.3,47.5-6.2c2.4-0.3,4.8,0.1,7.2,0.4c4.4,0.6,5.8,2.8,4.6,7.3
		c-1.5,5.8-6.2,8.9-10.6,12.3c-10.2,7.9-20.5,15.6-30.6,23.7c-40.1,31.8-73,70.2-100.6,113.2c-7,11-13.2,22.5-20,33.6
		c-3.2,5.1-6.7,10.1-10.5,14.7c-3.5,4.2-7.3,4.7-11.8,1.5c-4-2.8-7.8-6.2-11.1-9.9c-12.6-13.8-25.5-27.4-41.2-37.8
		c-22.3-14.8-46.9-22.9-73.4-25.8c-4.7-0.5-9.3-1.4-13.9-2.4C651.9,603.8,648.5,601.4,646.6,596.9z"/>
	<path class="st0" d="M1219.6,555.1c7.4-8.7,14.9-16.5,25.6-20.3c1.6-0.6,3.3-1.3,5-1.5c3.3-0.4,5.3,1.4,5.6,4.8
		c0.8,10.3-7.2,19.1-19,20.6C1230.8,559.5,1225,559.1,1219.6,555.1z"/>
</g>
</svg>
